<?xml version="1.0" encoding="UTF-8" standalone="no"?>
<svg
   version="1.1"
   viewBox="-10 0 1010 1000"
   id="svg866"
   sodipodi:docname="U002B_plus.svg"
   inkscape:version="1.1.2 (0a00cf5339, 2022-02-04)"
   xmlns:inkscape="http://www.inkscape.org/namespaces/inkscape"
   xmlns:sodipodi="http://sodipodi.sourceforge.net/DTD/sodipodi-0.dtd"
   xmlns="http://www.w3.org/2000/svg"
   xmlns:svg="http://www.w3.org/2000/svg">
  <defs
     id="defs870" />
  <sodipodi:namedview
     id="namedview868"
     pagecolor="#ffffff"
     bordercolor="#666666"
     borderopacity="1.0"
     inkscape:pageshadow="2"
     inkscape:pageopacity="0.0"
     inkscape:pagecheckerboard="0"
     showgrid="false"
     inkscape:zoom="0.83792154"
     inkscape:cx="407.55606"
     inkscape:cy="500.64353"
     inkscape:window-width="2494"
     inkscape:window-height="1371"
     inkscape:window-x="66"
     inkscape:window-y="32"
     inkscape:window-maximized="1"
     inkscape:current-layer="svg866"
     inkscape:snap-global="false" />
  <rect
     style="fill:#dc0000;fill-opacity:1;fill-rule:evenodd;stroke-width:10;stroke-linecap:round;stroke-linejoin:round;stroke-dashoffset:19.02"
     id="rect845"
     width="1016.1195"
     height="219.56371"
     x="-15.531845"
     y="781.01752" />
  <path
     id="path1938"
     style="fill:#000000;fill-rule:evenodd;stroke:none;stroke-width:1px;stroke-linecap:butt;stroke-linejoin:miter;stroke-opacity:1;fill-opacity:1"
     d="M 528.41406 191.87891 L 526.72656 210.44531 L 434.08008 208.88086 L 434.01953 416.1543 L 300.10938 416.29883 L 300.10938 434.86328 L 452.04492 433.42383 L 450.42969 298.75391 L 540.52344 296.22266 L 542.75977 411.69531 L 555.41797 411.69531 L 556.26172 192.72266 L 528.41406 191.87891 z M 777.21484 418.48828 L 617.29492 422.06836 L 616.10156 437.58398 L 750.12305 439.94336 L 748.92969 476.93945 L 522.88672 475.98438 L 533.9082 661.8418 L 451.55273 660.64844 L 452.39062 508.30469 L 253.94336 508.30469 L 258.7168 428.3457 L 222.26172 421.18555 L 218.19922 525.46289 L 435.53906 529.06836 L 434.66406 661.81836 L 435.85742 751.32617 L 560.20117 748.31836 L 559.08203 526.95508 L 775.17773 527.43945 L 777.21484 418.48828 z "
     transform="translate(-10)" />
</svg>
