<?xml version="1.0" encoding="UTF-8" standalone="no"?>
<svg
   version="1.1"
   viewBox="-10 0 1010 1000"
   id="svg866"
   sodipodi:docname="U0023_numbersign.svg"
   inkscape:version="1.1.2 (0a00cf5339, 2022-02-04)"
   xmlns:inkscape="http://www.inkscape.org/namespaces/inkscape"
   xmlns:sodipodi="http://sodipodi.sourceforge.net/DTD/sodipodi-0.dtd"
   xmlns="http://www.w3.org/2000/svg"
   xmlns:svg="http://www.w3.org/2000/svg">
  <defs
     id="defs870" />
  <sodipodi:namedview
     id="namedview868"
     pagecolor="#ffffff"
     bordercolor="#666666"
     borderopacity="1.0"
     inkscape:pageshadow="2"
     inkscape:pageopacity="0.0"
     inkscape:pagecheckerboard="0"
     showgrid="false"
     inkscape:zoom="0.83792154"
     inkscape:cx="627.14703"
     inkscape:cy="679.65791"
     inkscape:window-width="2494"
     inkscape:window-height="1371"
     inkscape:window-x="66"
     inkscape:window-y="32"
     inkscape:window-maximized="1"
     inkscape:current-layer="svg866"
     inkscape:snap-global="false" />
  <rect
     style="fill:#dc0000;fill-rule:evenodd;stroke-width:10;stroke-linecap:round;stroke-linejoin:round;stroke-dashoffset:19.02;fill-opacity:1"
     id="rect845"
     width="1016.1195"
     height="219.56371"
     x="-15.531845"
     y="780.17365" />
  <path
     id="path2575"
     style="fill:#000000;fill-rule:evenodd;stroke:none;stroke-width:1px;stroke-linecap:butt;stroke-linejoin:miter;stroke-opacity:1;fill-opacity:1"
     d="M 657.07422 176.8418 L 650.21289 177.14062 L 649.01953 189.37305 L 579.55469 189.54492 L 567.50586 257.60352 L 636.10938 255.87891 L 625.92773 322.55664 L 562.63477 319.67773 L 558.41406 332.33594 L 436.35352 331.48047 L 436.77539 322.61914 L 360.7168 321.25391 L 356.2832 332.86133 L 255.45117 331.98828 L 254.05859 387.47461 L 286.53711 388.85156 L 286.11523 402.35352 L 343.2832 402.16406 L 325.28516 513.61328 L 290.03516 513.19141 L 288.76953 522.47461 L 358.49219 520.18555 L 357.35938 725.77539 L 310.23242 725.83008 L 327.92383 578.98242 L 249.25 577.81445 L 247.05273 521.50195 L 265.61133 523.95508 L 267.29883 513.82812 L 237.20508 513.40625 L 240.55078 584.71094 L 315.73242 586.88477 L 296.71094 754.92773 L 376.33203 757.125 L 396.93164 588.08008 L 438.71484 585.02344 L 438.28516 521.45898 L 532.83203 521.91602 L 554.66992 402.30078 L 544.96094 403.10547 L 525.62891 514.67383 L 438.23633 514.28516 L 438.22266 512.37109 L 402.7832 513.84961 L 414.39844 456.56836 L 359.02344 452.98633 L 359.0332 388.30859 L 710.43359 385.52734 L 710.93359 394.53516 L 622.23828 394.11328 L 597.79297 520.83398 L 693.45898 521.47852 L 692.74023 580.89648 L 611.90625 580.31055 L 611.48438 586.2168 L 701.20508 586.86328 L 700.73438 515.94922 L 606.66406 514.875 L 627.78125 404.02148 L 717.26367 403.81836 L 718.81836 385.46094 L 719.43164 385.45703 L 719.33594 379.35742 L 719.37305 378.92383 L 719.33008 378.92578 L 718.58789 331.44922 L 636.13086 331.44922 L 638.15234 323.11328 L 637.16797 323.06836 L 657.07422 176.8418 z M 444.33789 177.86719 L 442.92969 191.17969 L 386.0332 190.21484 L 388.7168 178.87695 L 380.96094 178.87695 L 361.79492 300.44531 L 371.9375 301.63867 L 379.66992 256.7207 L 437.79297 257.22461 L 437.88086 310.38672 L 454.48242 178.76172 L 444.33789 177.86719 z M 471.96094 575.67578 L 470.69531 584.53711 L 519.90039 583.69336 L 509.41211 659.68164 L 579.62109 659.39844 L 567.6543 747.99219 L 500.89453 747.18359 L 509.43359 704.29492 L 503.52539 703.45117 L 494.66406 753.7207 L 574.85156 753.20117 L 594.83594 585.74414 L 525.46289 587.47852 L 526.72852 576.50781 L 471.96094 575.67578 z "
     transform="translate(-10)" />
</svg>
