<?xml version="1.0" encoding="UTF-8" standalone="no"?>
<svg
   version="1.1"
   viewBox="-10 0 1010 1000"
   id="svg866"
   sodipodi:docname="U002F_slash.svg"
   inkscape:version="1.1.2 (0a00cf5339, 2022-02-04)"
   xmlns:inkscape="http://www.inkscape.org/namespaces/inkscape"
   xmlns:sodipodi="http://sodipodi.sourceforge.net/DTD/sodipodi-0.dtd"
   xmlns="http://www.w3.org/2000/svg"
   xmlns:svg="http://www.w3.org/2000/svg">
  <defs
     id="defs870" />
  <sodipodi:namedview
     id="namedview868"
     pagecolor="#ffffff"
     bordercolor="#666666"
     borderopacity="1.0"
     inkscape:pageshadow="2"
     inkscape:pageopacity="0.0"
     inkscape:pagecheckerboard="0"
     showgrid="false"
     inkscape:zoom="1.185"
     inkscape:cx="461.18144"
     inkscape:cy="397.8903"
     inkscape:window-width="2494"
     inkscape:window-height="1371"
     inkscape:window-x="66"
     inkscape:window-y="32"
     inkscape:window-maximized="1"
     inkscape:current-layer="svg866"
     inkscape:snap-global="false" />
  <rect
     style="fill:#dc0000;fill-opacity:1;fill-rule:evenodd;stroke-width:10;stroke-linecap:round;stroke-linejoin:round;stroke-dashoffset:19.02"
     id="rect845"
     width="1016.1195"
     height="219.56371"
     x="-15.531845"
     y="781.01752" />
  <path
     id="path2701"
     style="fill:#000000;fill-rule:evenodd;stroke:none;stroke-width:1px;stroke-linecap:butt;stroke-linejoin:miter;stroke-opacity:1;fill-opacity:1"
     d="M 673.28516 25.361328 L 593.38867 30.423828 L 583.26172 56.583984 L 658.36719 38.019531 L 616.58789 162.69727 L 558.61133 163.05078 L 561.98633 119.16992 L 528.28125 226.00977 L 595.23242 226.42773 L 574.86914 287.19531 L 516.80664 284.80078 L 483.47852 386.15234 L 487.69727 477.29102 L 452.25391 478.13477 L 374.00781 754.14453 L 458.18555 754.20117 L 464.0918 745.76172 L 383.92383 745.76172 L 448.94141 538.28711 L 521.51562 539.13086 L 561.5332 408.00781 L 555.625 347.24805 L 576.72266 343.87305 L 598.66406 288.17578 L 590.71484 287.84766 L 610.00781 226.51953 L 612.04102 226.5332 L 639.21484 162.55859 L 630.10938 162.61328 L 673.28516 25.361328 z "
     transform="translate(-10)" />
</svg>
