<?xml version="1.0" encoding="UTF-8" standalone="no"?>
<svg
   version="1.1"
   viewBox="-10 0 1010 1000"
   id="svg866"
   sodipodi:docname="U0026_ampersand.svg"
   inkscape:version="1.1.2 (0a00cf5339, 2022-02-04)"
   xmlns:inkscape="http://www.inkscape.org/namespaces/inkscape"
   xmlns:sodipodi="http://sodipodi.sourceforge.net/DTD/sodipodi-0.dtd"
   xmlns="http://www.w3.org/2000/svg"
   xmlns:svg="http://www.w3.org/2000/svg">
  <defs
     id="defs870" />
  <sodipodi:namedview
     id="namedview868"
     pagecolor="#ffffff"
     bordercolor="#666666"
     borderopacity="1.0"
     inkscape:pageshadow="2"
     inkscape:pageopacity="0.0"
     inkscape:pagecheckerboard="0"
     showgrid="false"
     inkscape:zoom="0.29625"
     inkscape:cx="335.86498"
     inkscape:cy="919.83122"
     inkscape:window-width="2494"
     inkscape:window-height="1371"
     inkscape:window-x="66"
     inkscape:window-y="32"
     inkscape:window-maximized="1"
     inkscape:current-layer="svg866"
     inkscape:snap-global="false" />
  <rect
     style="fill:#dc0000;fill-opacity:1;fill-rule:evenodd;stroke-width:10;stroke-linecap:round;stroke-linejoin:round;stroke-dashoffset:19.02"
     id="rect845"
     width="1016.1195"
     height="219.56371"
     x="-15.531845"
     y="781.01752" />
  <path
     id="path3343"
     style="fill:#000000;fill-rule:evenodd;stroke:none;stroke-width:1px;stroke-linecap:butt;stroke-linejoin:miter;stroke-opacity:1;fill-opacity:1"
     d="M 499.5293 150.08203 L 497.8418 174.55469 L 415.98438 170.33398 L 389.82422 199.87109 L 371.46484 233.0957 L 362.18359 261.78906 L 360.49414 303.13867 L 365.55859 345.33203 L 373.99609 383.30859 L 386.6543 415.375 L 384.12305 421.2832 L 384.12305 428.87695 L 362.18359 444.91016 L 338.55469 471.91602 L 322.51953 497.23242 L 314.08203 507.35742 L 317.41797 507.25195 L 303.55664 549.08789 L 295.11719 590.4375 L 301.02344 639.38281 L 317.90234 679.04492 L 337.31055 708.58203 L 371.88086 737.94531 L 373.56836 724.44336 L 338.37305 696.86133 L 317.27539 657.19727 L 303.30078 614.58594 L 303.30078 587.58008 L 313.42773 546.23047 L 327.77344 511.63086 L 331.80469 506.79492 L 393.78125 504.82617 L 393.58594 239.24609 L 447.32227 239.24609 L 444.96094 244.67773 L 438.20898 257.33594 L 425.55078 286.0293 L 424.70703 312.18945 L 432.30273 329.91016 L 439.89648 327.37891 L 434.83398 314.7207 L 432.30273 290.24805 L 439.05273 270.83789 L 457.34375 239.24609 L 457.7207 239.24609 L 468.69141 222.36719 L 493.16406 218.99219 L 512.1875 237.8457 L 552.69336 237.8457 L 550.77344 182.16016 L 556.65039 182.16016 L 577.74609 205.78906 L 592.09375 246.29688 L 592.9375 288.49023 L 576.05859 331.52734 L 550.74219 369.50195 L 515.01172 412.69141 L 522.60742 417.75391 L 545.39258 393.28125 L 574.08398 353.61914 L 596.02539 313.95703 L 599.14648 259.00781 L 589.02148 220.18945 L 573.83008 188.96484 L 550.32031 169.01758 L 550.16211 164.42773 L 529.9082 155.98828 L 502.9043 152.61328 L 499.5293 150.08203 z M 532 259.40625 L 523.56055 263.625 L 524.4043 290.63086 L 513.43555 321.85352 L 496.26562 342.98438 L 496.28516 340.49805 L 482.7832 351.46875 L 467.59375 370.0332 L 458.31055 374.25195 L 445.65234 343.0293 L 448.18359 394.50586 L 447.94141 496.49609 L 447.55664 511.92578 L 432.47852 491.52734 L 419.82031 499.12305 L 407.16211 521.9082 L 389.44141 554.81836 L 379.31445 583.50977 L 388.59766 585.19922 L 394.50391 562.41406 L 409.69336 532.0332 L 428.42188 506.47461 L 446.14258 527.57227 L 447.16016 527.75977 L 447.09766 530.25 L 497.51562 597.1875 C 498.35951 590.43645 497.12891 508.35547 497.12891 508.35547 L 541.01172 510.04492 L 508.94336 473.75781 L 495.44141 452.66016 L 496.14648 358.99609 L 508.37109 342.95117 L 521.0293 325.22852 L 528.625 300.75586 L 532 259.40625 z M 743.16797 419.01758 L 657.34766 419.53516 L 654.81641 435.56836 L 646.37695 473.54297 L 628.18359 506.61914 L 627.75586 506.59375 L 614.25391 548.78711 L 599.90625 569.88477 L 552.65039 527.68945 L 552.65039 576.63477 L 597.375 579.16602 L 599.0625 696.4668 L 589.78125 703.2168 L 593.59961 710.68945 L 604.57031 699.71875 L 648.45312 727.56641 L 704.14844 753.72656 L 721.02734 763.85352 L 747.07031 672.62891 L 676.18359 637.18555 L 672.80859 649.84375 L 736.09961 677.69141 L 719.2207 745.20312 L 655.50586 721.04492 L 655.60352 508.28125 L 638.66992 507.25586 L 644.70117 494.26367 L 659.04883 464.72852 L 668.33008 426.75391 L 734.1543 426.75391 L 682.67578 566.83789 L 692.80273 573.58984 L 704.61719 542.36523 L 725.44727 483.1543 L 743.16797 419.01758 z M 515.10938 604.31055 L 509.20117 612.74805 L 534.51758 641.44141 L 516.79688 658.31836 L 467.85156 672.66406 L 448.44336 665.91406 L 434.0957 667.60156 L 413 652.41016 L 397.81055 622.03125 L 390.95312 745.62695 L 416.27148 763.34961 L 469.43555 761.66016 L 500.6582 759.97266 L 546.22852 740.56445 L 581.67188 717.7793 L 445.91016 715.70312 L 447.59961 678.57227 L 461.10156 681.94727 L 486.41797 681.10352 L 520.17188 673.50781 L 553.92773 646.50391 L 515.10938 604.31055 z "
     transform="translate(-10)" />
</svg>
