<?xml version="1.0" encoding="UTF-8" standalone="no"?>
<svg
   version="1.1"
   viewBox="-10 0 1010 1000"
   id="svg866"
   sodipodi:docname="U0028_parenleft.svg"
   inkscape:version="1.1.2 (0a00cf5339, 2022-02-04)"
   xmlns:inkscape="http://www.inkscape.org/namespaces/inkscape"
   xmlns:sodipodi="http://sodipodi.sourceforge.net/DTD/sodipodi-0.dtd"
   xmlns="http://www.w3.org/2000/svg"
   xmlns:svg="http://www.w3.org/2000/svg">
  <defs
     id="defs870" />
  <sodipodi:namedview
     id="namedview868"
     pagecolor="#ffffff"
     bordercolor="#666666"
     borderopacity="1.0"
     inkscape:pageshadow="2"
     inkscape:pageopacity="0.0"
     inkscape:pagecheckerboard="0"
     showgrid="false"
     inkscape:zoom="0.5925"
     inkscape:cx="370.46414"
     inkscape:cy="621.94093"
     inkscape:window-width="2494"
     inkscape:window-height="1371"
     inkscape:window-x="66"
     inkscape:window-y="32"
     inkscape:window-maximized="1"
     inkscape:current-layer="svg866"
     inkscape:snap-global="false" />
  <rect
     style="fill:#dc0000;fill-opacity:1;fill-rule:evenodd;stroke-width:10;stroke-linecap:round;stroke-linejoin:round;stroke-dashoffset:19.02"
     id="rect845"
     width="1016.1195"
     height="219.56371"
     x="-15.531845"
     y="781.01752" />
  <path
     id="path12084"
     style="fill:#000000;fill-rule:evenodd;stroke:none;stroke-width:1px;stroke-linecap:butt;stroke-linejoin:miter;stroke-opacity:1;fill-opacity:1"
     d="M 543.63867 101.31641 L 540.85938 176.41211 L 454.73438 178.0957 L 433.21484 225.35352 L 417.57617 276.69922 L 425.85742 275.92383 L 440.6875 234.72461 L 516.90625 234.93555 L 521.12695 225.6543 L 537.58203 189.78906 L 554.03711 159.83008 L 567.8457 130.90234 L 575.86133 116.55664 L 543.63867 101.31641 z M 483.05273 288.44336 L 412.51953 288.95508 L 404.92383 314.69336 L 398.17383 345.49609 L 419.26953 345.91797 L 418.70898 515.36133 C 421.81161 515.36133 459.60103 515.37795 475.86719 515.38477 L 486.78906 585.29102 L 504.09375 642.57617 L 529.20312 686.38867 L 533.97656 682.80859 L 523.83203 667.29492 L 502.35156 600.46289 L 493.40039 557.49805 L 487.14062 515.39062 C 487.20236 515.39065 488.66797 515.39062 488.66797 515.39062 L 483.05273 288.44336 z M 406.69141 551.08398 L 429.81055 630.59766 L 452.25586 685.31055 L 505.95312 772.60156 L 577.10547 747.80469 L 544.76172 697.00391 L 544.33984 744.25977 L 515.48047 759.49609 L 482.25781 713.71289 L 450.55859 650.27734 L 418.08398 552.77344 L 406.69141 551.08398 z "
     transform="translate(-10)" />
</svg>
