<?xml version="1.0" encoding="UTF-8" standalone="no"?>
<svg
   version="1.1"
   viewBox="-10 0 1010 1000"
   id="svg866"
   sodipodi:docname="U0021_exclaim.svg"
   inkscape:version="1.1.2 (0a00cf5339, 2022-02-04)"
   xmlns:inkscape="http://www.inkscape.org/namespaces/inkscape"
   xmlns:sodipodi="http://sodipodi.sourceforge.net/DTD/sodipodi-0.dtd"
   xmlns="http://www.w3.org/2000/svg"
   xmlns:svg="http://www.w3.org/2000/svg">
  <defs
     id="defs870" />
  <sodipodi:namedview
     id="namedview868"
     pagecolor="#ffffff"
     bordercolor="#666666"
     borderopacity="1.0"
     inkscape:pageshadow="2"
     inkscape:pageopacity="0.0"
     inkscape:pagecheckerboard="0"
     showgrid="false"
     inkscape:zoom="0.83792154"
     inkscape:cx="402.78234"
     inkscape:cy="582.99015"
     inkscape:window-width="2494"
     inkscape:window-height="1371"
     inkscape:window-x="66"
     inkscape:window-y="32"
     inkscape:window-maximized="1"
     inkscape:current-layer="svg866"
     inkscape:snap-global="false" />
  <rect
     style="fill:#dc0000;fill-opacity:1;fill-rule:evenodd;stroke-width:10;stroke-linecap:round;stroke-linejoin:round;stroke-dashoffset:19.02"
     id="rect845"
     width="1016.1195"
     height="219.56371"
     x="-15.531845"
     y="781.01752" />
  <path
     id="path7876"
     style="fill:#000000;fill-rule:evenodd;stroke:none;stroke-width:1px;stroke-linecap:butt;stroke-linejoin:miter;stroke-opacity:1;fill-opacity:1"
     d="M 528.9375 67.699219 L 384.91797 68.251953 L 386.30078 204.93164 L 398.23633 202.54492 L 399.22656 83.03125 L 511.4082 85.417969 L 487.02539 328.22852 L 450.85938 326.86328 L 442.38867 404.43555 L 405.39258 402.04883 L 402.44727 476.10742 L 447.79688 476.10742 L 444.2168 527.42383 L 500.30859 529.81055 L 514.11133 329.25 L 509.7793 329.08594 L 510.55664 308.15039 L 528.9375 67.699219 z M 436.91406 589.97852 L 390.37109 616.23242 L 365.30859 647.26172 L 360.53516 693.80664 L 374.85742 726.0293 L 409.4668 753.47656 L 440.49414 757.05859 L 446.46289 638.9082 L 530.00195 636.52148 L 530.00195 613.8457 L 476.29883 595.94531 L 436.91406 589.97852 z "
     transform="translate(-10)" />
</svg>
