<?xml version="1.0" encoding="UTF-8" standalone="no"?>
<svg
   version="1.1"
   viewBox="-10 0 1010 1000"
   id="svg866"
   sodipodi:docname="U0025_percent.svg"
   inkscape:version="1.1.2 (0a00cf5339, 2022-02-04)"
   xmlns:inkscape="http://www.inkscape.org/namespaces/inkscape"
   xmlns:sodipodi="http://sodipodi.sourceforge.net/DTD/sodipodi-0.dtd"
   xmlns="http://www.w3.org/2000/svg"
   xmlns:svg="http://www.w3.org/2000/svg">
  <defs
     id="defs870" />
  <sodipodi:namedview
     id="namedview868"
     pagecolor="#ffffff"
     bordercolor="#666666"
     borderopacity="1.0"
     inkscape:pageshadow="2"
     inkscape:pageopacity="0.0"
     inkscape:pagecheckerboard="0"
     showgrid="false"
     inkscape:zoom="0.83792154"
     inkscape:cx="371.75318"
     inkscape:cy="519.7384"
     inkscape:window-width="2494"
     inkscape:window-height="1371"
     inkscape:window-x="66"
     inkscape:window-y="32"
     inkscape:window-maximized="1"
     inkscape:current-layer="svg866"
     inkscape:snap-global="false" />
  <rect
     style="fill:#dc0000;fill-opacity:1;fill-rule:evenodd;stroke-width:10;stroke-linecap:round;stroke-linejoin:round;stroke-dashoffset:19.02"
     id="rect845"
     width="1016.1195"
     height="219.56371"
     x="-15.531845"
     y="781.01752" />
  <path
     id="path968"
     style="fill:#000000;fill-rule:evenodd;stroke:none;stroke-width:1px;stroke-linecap:butt;stroke-linejoin:miter;stroke-opacity:1;fill-opacity:1"
     d="M 312.89258 192.05273 L 267.54297 194.43945 L 272.31641 211.14648 L 308.11914 209.95312 L 348.69531 220.69336 L 372.56445 248.14258 L 379.72461 273.20508 L 330.79492 275.5918 L 328.40625 293.49414 L 340.3418 309.00781 L 342.72852 347.19727 L 340.3418 394.93555 L 336.76172 422.38281 L 329.59961 428.35156 L 331.98828 460.57422 L 305.73242 458.1875 L 287.83008 477.28125 L 272.31641 477.28125 L 254.41406 461.76758 L 212.64453 460.57422 L 204.48242 216.49609 L 180.61328 245.13867 L 165.09766 277.36133 L 155.55078 340.61328 L 149.58398 391.92969 L 162.38281 447.09961 L 200.57227 497.22266 L 226.82812 523.47852 L 335.42969 524.67188 L 370.17773 505.97266 L 392.85156 471.36328 L 388.07812 337.69922 L 411.94727 335.3125 L 407.17383 299.50977 L 398.82031 277.97852 L 385.69141 249.33594 L 366.59766 223.08008 L 341.53516 202.79297 L 312.89258 192.05273 z M 653.96289 193.0332 L 587.66406 193.87695 L 552.93555 269.35742 L 567.28125 271.89062 L 594.18164 202.87109 L 637.2207 200.33789 L 508.49609 446.28125 L 507.78906 353.61719 L 302.08398 758.00977 L 363.12305 761.22461 L 364.21875 761.77344 L 364.47656 761.29492 L 366.21875 761.38672 L 367.92969 754.86133 L 451.22461 599.70703 L 439.29102 594.93359 L 350.31836 750.30078 L 314.9707 750.30078 L 428.24219 525.55664 L 485.75 526.40039 L 518.75977 464.16602 L 517.96484 464.16602 L 653.96289 193.0332 z M 652.17188 415.12695 L 626.85547 418.50195 L 599.00586 438.75586 L 572.8457 462.38477 L 573.08984 463.17773 L 570.28516 463.18359 L 555.93945 485.125 L 550.03125 512.12891 L 548.34375 523.94336 L 548.53906 523.94531 L 541.80859 571.07031 L 546.02734 641.11328 L 557.01758 683.50781 L 580.99414 723.92773 L 590.27539 717.17578 L 568.33594 680.88867 L 553.14453 626.03711 L 550.61328 563.58789 L 561.61523 524.11328 L 622.5293 524.89062 L 628.4375 499.57422 L 645.31445 479.32031 L 665.56836 475.10156 L 695.10352 476.78906 L 709.44922 497.88672 L 719.33984 521.67773 L 776.33398 523.74805 L 783.94531 635.31836 L 773.26953 655.90625 L 733.33789 654.00586 L 734.18164 740.08008 L 758.6543 723.20312 L 773 699.57422 L 786.50195 665.82031 L 786.50195 662.38477 L 795.75977 641.22461 L 792.35547 524.33008 L 793.42969 524.36914 L 790.89844 507.49219 L 776.55078 475.42578 L 768.11328 462.76758 L 586.10938 463.15039 L 587.9082 459.85352 L 604.78711 445.50586 L 630.10352 427.78516 L 701.11719 426.09766 L 726.43359 437.06836 L 737.40234 430.31641 L 707.02344 416.81445 L 652.17188 415.12695 z M 621.87109 646.89062 L 625.24609 746.46875 L 637.9043 759.12695 L 675.03516 760.81445 L 674.19141 699.21094 L 644.65625 694.14844 L 627.77734 668.83203 L 621.87109 646.89062 z "
     transform="translate(-10)" />
</svg>
