<?xml version="1.0" encoding="UTF-8" standalone="no"?>
<svg
   version="1.1"
   viewBox="-10 0 1010 1000"
   id="svg866"
   sodipodi:docname="U0037_7_seven.svg"
   inkscape:version="1.1.2 (0a00cf5339, 2022-02-04)"
   xmlns:inkscape="http://www.inkscape.org/namespaces/inkscape"
   xmlns:sodipodi="http://sodipodi.sourceforge.net/DTD/sodipodi-0.dtd"
   xmlns="http://www.w3.org/2000/svg"
   xmlns:svg="http://www.w3.org/2000/svg">
  <defs
     id="defs870" />
  <sodipodi:namedview
     id="namedview868"
     pagecolor="#ffffff"
     bordercolor="#666666"
     borderopacity="1.0"
     inkscape:pageshadow="2"
     inkscape:pageopacity="0.0"
     inkscape:pagecheckerboard="0"
     showgrid="false"
     inkscape:zoom="0.83792154"
     inkscape:cx="461.26037"
     inkscape:cy="477.96838"
     inkscape:window-width="2494"
     inkscape:window-height="1371"
     inkscape:window-x="66"
     inkscape:window-y="32"
     inkscape:window-maximized="1"
     inkscape:current-layer="svg866"
     inkscape:snap-global="false" />
  <rect
     style="fill:#dc0000;fill-opacity:1;fill-rule:evenodd;stroke-width:10;stroke-linecap:round;stroke-linejoin:round;stroke-dashoffset:19.02"
     id="rect845"
     width="1016.1195"
     height="219.56371"
     x="-15.531845"
     y="781.01752" />
  <path
     id="path5678"
     style="fill:#000000;fill-rule:evenodd;stroke:none;stroke-width:1px;stroke-linecap:butt;stroke-linejoin:miter;stroke-opacity:1;fill-opacity:1"
     d="M 254.60742 41.296875 L 263.32812 169.54883 L 324.19336 168.35547 L 597.10938 167.79688 L 592.33594 139.1543 L 286.18945 141.54102 L 280.22266 62.775391 L 736.46289 65.166016 L 737.65625 130.80469 L 761.52539 133.19141 L 761.52539 44.876953 L 254.60742 41.296875 z M 558.62305 221.83008 L 540.7207 260.01953 L 510.88672 299.40234 L 476.27539 368.62109 L 483.93164 552.04102 L 421.87305 554.42773 L 404.93359 642.51172 L 408.26758 642.39844 L 401.9668 761.08398 L 546.37305 762.2793 L 549.95312 734.83008 L 426.73633 741.5293 L 436.42188 641.43359 L 548.45508 637.59961 L 556.80859 595.83008 L 574.70898 546.90039 L 567.54883 471.71289 L 584.25781 466.93945 L 590.8457 428.29297 L 607.55273 386.52344 L 566.97656 386.52344 L 568.16992 311.33594 L 633.80859 307.75586 L 661.25781 267.17969 L 691.09375 223.02344 L 558.62305 221.83008 z "
     transform="translate(-10)" />
</svg>
