<?xml version="1.0" encoding="UTF-8" standalone="no"?>
<svg
   version="1.1"
   viewBox="-10 0 1010 1000"
   id="svg866"
   sodipodi:docname="U0030_zero.svg"
   inkscape:version="1.1.2 (0a00cf5339, 2022-02-04)"
   xmlns:inkscape="http://www.inkscape.org/namespaces/inkscape"
   xmlns:sodipodi="http://sodipodi.sourceforge.net/DTD/sodipodi-0.dtd"
   xmlns="http://www.w3.org/2000/svg"
   xmlns:svg="http://www.w3.org/2000/svg">
  <defs
     id="defs870" />
  <sodipodi:namedview
     id="namedview868"
     pagecolor="#ffffff"
     bordercolor="#666666"
     borderopacity="1.0"
     inkscape:pageshadow="2"
     inkscape:pageopacity="0.0"
     inkscape:pagecheckerboard="0"
     showgrid="false"
     inkscape:zoom="0.83792154"
     inkscape:cx="495.86982"
     inkscape:cy="494.67639"
     inkscape:window-width="2494"
     inkscape:window-height="1371"
     inkscape:window-x="66"
     inkscape:window-y="32"
     inkscape:window-maximized="1"
     inkscape:current-layer="svg866"
     inkscape:snap-global="false" />
  <rect
     style="fill:#dc0000;fill-rule:evenodd;stroke-width:10;stroke-linecap:round;stroke-linejoin:round;stroke-dashoffset:19.02;fill-opacity:1"
     id="rect845"
     width="1016.1195"
     height="219.56371"
     x="-15.531845"
     y="780.17365" />
  <path
     id="path1050"
     style="fill:#000000;fill-opacity:1;fill-rule:evenodd;stroke:none;stroke-width:1px;stroke-linecap:butt;stroke-linejoin:miter;stroke-opacity:1"
     d="M 484.65039 15.539062 C 479.87667 15.539062 439.30078 25.087891 439.30078 25.087891 C 439.30078 25.087891 415.34599 39.780568 399.60742 48.091797 L 397.99805 48.162109 L 395.22461 50.351562 C 391.26498 52.30934 388.02842 53.728516 386.78906 53.728516 L 390.90625 53.761719 L 375.32422 66.064453 L 323.40039 120.06055 L 292.68945 182.54102 L 286.99414 182.54102 L 272.71875 277.55078 L 394.44922 275.16406 L 420.6582 182.54102 L 324.19727 182.54102 L 344.29492 135.2832 L 401.58008 79.191406 L 420.24414 53.994141 L 537.16211 54.921875 C 537.16211 54.921875 568.35126 54.869468 586.71094 52.724609 L 630.17383 110.29492 L 658.81445 162.80664 L 665.36328 177.21289 L 570.46289 181.44922 L 600.78906 272.66602 L 732.76953 268.56836 L 708.30469 189.06055 L 716.09961 189.06055 L 705.58789 180.23242 L 704.12695 175.48242 L 700.14648 175.66016 L 686.26367 164 L 633.75391 91.199219 L 588.40234 32.722656 L 586.87305 39.683594 C 574.89126 32.673032 559.83788 25.087891 559.83789 25.087891 C 559.83789 25.087891 489.42409 15.539062 484.65039 15.539062 z M 262.53906 348.93555 L 266.36914 443.20508 L 390.23633 443.09766 L 393.81641 348.93555 L 262.53906 348.93555 z M 602.35352 356.39453 L 605.45312 435.01172 L 734.34375 437.39844 L 740.3125 359.82422 L 602.35352 356.39453 z M 602.66602 481.33398 L 601.47266 527.87695 L 591.29297 566.77539 L 647.38281 566.77539 L 645.79883 705.16797 L 673.24805 684.88086 L 691.15039 638.33594 L 717.4043 585.82617 L 735.30664 498.70508 L 738.88672 481.99805 L 602.66602 481.33398 z M 263.24414 485.57422 L 272.79102 541.66602 L 291.88672 610.88477 L 310.98047 652.6543 L 332.05469 682.44531 L 332.32422 674.72266 L 375.83398 727.10547 L 409.25 750.97461 L 455.79297 766.48828 L 497.88281 771.27344 L 498.00781 773.50391 L 527.84375 772.31055 L 563.64648 761.57031 L 617.35156 734.12109 L 567.22656 734.12109 L 567.22656 606.07031 L 554.09961 635.90625 L 524.26367 653.80664 L 512.33008 653.80664 L 491.40625 655.26758 L 496.86914 753.09961 L 461.6543 749.04492 L 406.94336 734.02148 L 378.30273 704.18555 L 346.08008 660.02734 L 333.36133 644.95312 L 336.04297 567.91992 L 406.45508 570.30664 L 401.68164 546.43945 L 398.10156 520.18359 L 394.52148 487.96094 L 263.24414 485.57422 z "
     transform="translate(-10)" />
</svg>
