<?xml version="1.0" encoding="UTF-8" standalone="no"?>
<svg
   version="1.1"
   viewBox="-10 0 1010 1000"
   id="svg866"
   sodipodi:docname="U003D_equal.svg"
   inkscape:version="1.1.2 (0a00cf5339, 2022-02-04)"
   xmlns:inkscape="http://www.inkscape.org/namespaces/inkscape"
   xmlns:sodipodi="http://sodipodi.sourceforge.net/DTD/sodipodi-0.dtd"
   xmlns="http://www.w3.org/2000/svg"
   xmlns:svg="http://www.w3.org/2000/svg">
  <defs
     id="defs870" />
  <sodipodi:namedview
     id="namedview868"
     pagecolor="#ffffff"
     bordercolor="#666666"
     borderopacity="1.0"
     inkscape:pageshadow="2"
     inkscape:pageopacity="0.0"
     inkscape:pagecheckerboard="0"
     showgrid="false"
     inkscape:zoom="1.185"
     inkscape:cx="362.44726"
     inkscape:cy="384.38819"
     inkscape:window-width="2494"
     inkscape:window-height="1371"
     inkscape:window-x="66"
     inkscape:window-y="32"
     inkscape:window-maximized="1"
     inkscape:current-layer="svg866"
     inkscape:snap-global="false" />
  <rect
     style="fill:#dc0000;fill-opacity:1;fill-rule:evenodd;stroke-width:10;stroke-linecap:round;stroke-linejoin:round;stroke-dashoffset:19.02"
     id="rect845"
     width="1016.1195"
     height="219.56371"
     x="-15.531845"
     y="781.01752" />
  <path
     style="fill:#000000;fill-rule:evenodd;stroke:none;stroke-width:1px;stroke-linecap:butt;stroke-linejoin:miter;stroke-opacity:1;fill-opacity:1"
     d="m 321.28134,309.59504 -11.33758,1.19343 0.0555,56.17104 123.35668,3.42841 -1.86575,-50.86449 105.82819,0.25192 -0.59672,50.12403 119.68046,-0.92064 -0.0331,-59.81244 -38.10261,2.10973 v 7.75729 l 26.85215,-1.79014 -0.57457,43.62437 -54.6181,1.15497 1.19343,-52.98089 -217.04058,1.17875 v 48.33388 l -49.34798,1.33274 v -41.17331 l 28.93443,0.4412 0.59672,-8.95072 z"
     id="path1336" />
  <path
     style="fill:#000000;fill-rule:evenodd;stroke:none;stroke-width:1px;stroke-linecap:butt;stroke-linejoin:miter;stroke-opacity:1;fill-opacity:1"
     d="m 310.86356,517.62645 -0.59671,-57.47832 344.92809,1.24372 0.59671,13.12772 -330.72862,-1.85082 -1.79014,38.18974 325.39111,0.79444 v -20.2883 l 8.35401,-0.59671 v 30.43244 z"
     id="path1338" />
</svg>
