<?xml version="1.0" encoding="UTF-8" standalone="no"?>
<svg
   version="1.1"
   viewBox="-10 0 1010 1000"
   id="svg866"
   sodipodi:docname="U0031_1_one.svg"
   inkscape:version="1.1.2 (0a00cf5339, 2022-02-04)"
   xmlns:inkscape="http://www.inkscape.org/namespaces/inkscape"
   xmlns:sodipodi="http://sodipodi.sourceforge.net/DTD/sodipodi-0.dtd"
   xmlns="http://www.w3.org/2000/svg"
   xmlns:svg="http://www.w3.org/2000/svg">
  <defs
     id="defs870" />
  <sodipodi:namedview
     id="namedview868"
     pagecolor="#ffffff"
     bordercolor="#666666"
     borderopacity="1.0"
     inkscape:pageshadow="2"
     inkscape:pageopacity="0.0"
     inkscape:pagecheckerboard="0"
     showgrid="false"
     inkscape:zoom="1.185"
     inkscape:cx="461.18144"
     inkscape:cy="397.8903"
     inkscape:window-width="2494"
     inkscape:window-height="1371"
     inkscape:window-x="66"
     inkscape:window-y="32"
     inkscape:window-maximized="1"
     inkscape:current-layer="svg866"
     inkscape:snap-global="false" />
  <rect
     style="fill:#dc0000;fill-rule:evenodd;stroke-width:10;stroke-linecap:round;stroke-linejoin:round;stroke-dashoffset:19.02;fill-opacity:1"
     id="rect845"
     width="1016.1195"
     height="219.56371"
     x="-15.531845"
     y="780.17365" />
  <path
     id="path1609"
     style="fill:#000000;fill-rule:evenodd;stroke:none;stroke-width:1px;stroke-linecap:butt;stroke-linejoin:miter;stroke-opacity:1;fill-opacity:1"
     d="M 467.85938 26.441406 L 448.8125 45.939453 L 448.83203 51.263672 L 378.37305 83.617188 L 378.30859 80.304688 L 358.89844 87.898438 L 346.24023 89.585938 L 330.20703 89.585938 L 325.80078 189.14062 L 380.49414 191.67188 L 378.68164 99.335938 L 448.91211 73.625 L 449.73438 301.45117 L 516.31836 308.66016 L 519.14648 490.81641 L 444.30273 486.30078 L 440.97656 569.56641 L 441.07227 645.55664 L 307.68359 644.95508 L 309.79883 771.20117 L 331.93359 765.48828 L 419.65234 766.21289 L 420.49609 743.42773 L 335.54883 740.68164 L 334.27148 666.55859 L 450.92383 663.18359 L 458.51953 574.57617 L 521.18555 577.95117 L 519.02734 748.35156 L 682.06445 752.00195 L 683.88281 646.38281 L 650.97266 644.69531 L 651.81641 663.25977 L 582.61719 661.57227 L 582.61719 646.38281 L 558.98828 645.53906 L 565.0957 220.04688 L 518.68164 218.35938 L 518.94922 45.880859 L 564.94531 47.609375 L 567.47656 29.886719 L 467.85938 26.441406 z "
     transform="translate(-10)" />
</svg>
