<?xml version="1.0" encoding="UTF-8" standalone="no"?>
<svg
   version="1.1"
   viewBox="-10 0 1010 1000"
   id="svg866"
   sodipodi:docname="U003A_colon.svg"
   inkscape:version="1.1.2 (0a00cf5339, 2022-02-04)"
   xmlns:inkscape="http://www.inkscape.org/namespaces/inkscape"
   xmlns:sodipodi="http://sodipodi.sourceforge.net/DTD/sodipodi-0.dtd"
   xmlns="http://www.w3.org/2000/svg"
   xmlns:svg="http://www.w3.org/2000/svg">
  <path
     id="path1028"
     style="fill:#000000;fill-rule:evenodd;stroke:none;stroke-width:1px;stroke-linecap:butt;stroke-linejoin:miter;stroke-opacity:1;fill-opacity:1"
     d="M 487.64453 253.03906 L 457.21094 262.58594 L 436.92383 282.27734 L 426.18164 310.32227 L 424.68555 347.79102 L 433.03906 379.41602 L 446.16797 404.47852 L 471.82617 419.39648 L 494.50195 427.75 L 533.28906 423.57422 L 558.94727 409.84961 L 579.23438 385.98047 L 585.79883 362.11133 L 585.79883 319.74414 L 577.44531 297.07031 L 567.89844 283.94141 L 561.92969 291.69922 L 578.63867 317.35742 L 579.23438 353.75781 L 569.6875 381.20703 L 549.39844 403.88281 L 529.11133 412.83203 L 501.66211 420.58984 L 492.11523 417.00977 L 487.64453 253.03906 z M 507.85547 597.8125 L 472.05273 602.58594 L 438.88672 630.73047 L 424.74805 660.57422 L 424.0293 709.90039 L 436.56055 740.92969 L 474.1543 770.16992 C 474.1543 770.16992 518.90704 774.3457 521.89062 774.3457 C 524.8742 774.3457 521.89062 763.60547 521.89062 763.60547 L 474.75 761.21875 L 444.91602 736.15625 L 434.77148 706.91797 L 434.17383 663.95312 L 566.9707 665.0293 L 567.29102 735.96289 L 584.5957 717.46484 L 585.19141 697.77148 L 588.28125 666.17383 L 568.12305 623.4707 L 544.25586 601.39258 L 507.85547 597.8125 z "
     transform="translate(-10)" />
  <defs
     id="defs870" />
  <sodipodi:namedview
     id="namedview868"
     pagecolor="#ffffff"
     bordercolor="#666666"
     borderopacity="1.0"
     inkscape:pageshadow="2"
     inkscape:pageopacity="0.0"
     inkscape:pagecheckerboard="0"
     showgrid="false"
     inkscape:zoom="1.185"
     inkscape:cx="389.45148"
     inkscape:cy="498.31224"
     inkscape:window-width="2494"
     inkscape:window-height="1371"
     inkscape:window-x="66"
     inkscape:window-y="32"
     inkscape:window-maximized="1"
     inkscape:current-layer="svg866"
     inkscape:snap-global="false" />
  <rect
     style="fill:#dc0000;fill-rule:evenodd;stroke-width:10;stroke-linecap:round;stroke-linejoin:round;stroke-dashoffset:19.02;fill-opacity:1"
     id="rect845"
     width="1016.1195"
     height="219.56371"
     x="-15.531845"
     y="780.17365" />
</svg>
