<?xml version="1.0" encoding="UTF-8" standalone="no"?>
<svg
   version="1.1"
   viewBox="-10 0 1010 1000"
   id="svg866"
   sodipodi:docname="U0032_2_two.svg"
   inkscape:version="1.1.2 (0a00cf5339, 2022-02-04)"
   xmlns:inkscape="http://www.inkscape.org/namespaces/inkscape"
   xmlns:sodipodi="http://sodipodi.sourceforge.net/DTD/sodipodi-0.dtd"
   xmlns="http://www.w3.org/2000/svg"
   xmlns:svg="http://www.w3.org/2000/svg">
  <defs
     id="defs870" />
  <sodipodi:namedview
     id="namedview868"
     pagecolor="#ffffff"
     bordercolor="#666666"
     borderopacity="1.0"
     inkscape:pageshadow="2"
     inkscape:pageopacity="0.0"
     inkscape:pagecheckerboard="0"
     showgrid="false"
     inkscape:zoom="1.185"
     inkscape:cx="461.18144"
     inkscape:cy="397.8903"
     inkscape:window-width="2494"
     inkscape:window-height="1371"
     inkscape:window-x="66"
     inkscape:window-y="32"
     inkscape:window-maximized="1"
     inkscape:current-layer="svg866"
     inkscape:snap-global="false" />
  <rect
     style="fill:#dc0000;fill-opacity:1;fill-rule:evenodd;stroke-width:10;stroke-linecap:round;stroke-linejoin:round;stroke-dashoffset:19.02"
     id="rect845"
     width="1016.1195"
     height="219.56371"
     x="-15.531845"
     y="781.01752" />
  <path
     id="path2283"
     style="fill:#000000;fill-opacity:1;fill-rule:evenodd;stroke:none;stroke-width:1.14004px;stroke-linecap:butt;stroke-linejoin:miter;stroke-opacity:1"
     d="m 499.12366,22.469019 -72.69631,2.804427 -46.56333,14.013487 -34.74996,19.230977 144.55568,3.169846 0.99057,90.621704 36.65541,14.01349 26.74979,56.05395 12.8796,4.67044 -2.32507,-156.191682 31.64298,20.99969 46.68027,59.005412 24.76866,49.51533 1.98113,68.84361 -15.18175,34.13747 -107.65721,0.85624 -41.78938,82.88305 107.86588,0.78057 -55.3821,100.8837 -127.19561,-5.78616 -20.8041,20.55211 1.31387,65.83593 -59.44294,2.80226 -85.76165,81.39543 71.3297,3.73851 0.99285,74.73788 -93.12896,-0.93409 0.99056,25.22472 477.48569,2.01305 -3.08634,-121.9526 h -76.2871 l -0.43108,90.82712 -235.20822,5.83157 2.97398,-73.80595 78.66719,0.67894 0.99057,-19.61802 -42.60109,-1.86817 41.61052,-37.37002 -5.94337,-32.69743 33.68372,2.80227 75.43182,-80.78783 -8.11711,-0.36974 57.64755,-101.91942 0.1949,0.002 5.98923,-10.93661 4.60429,-8.13869 -0.15363,0.0129 36.12344,-65.95269 -4.22594,0.0345 8.27762,-36.6954 -4.95282,-56.05394 -16.80746,-42.25237 -33.68372,-59.7903 -45.52921,-43.865397 1.73807,0.05406 L 550.6421,42.08887 Z m -160.70965,38.351678 -97.02471,78.578013 75.68405,77.47529 33.68371,-32.69958 36.65771,-26.15664 42.60108,-14.94974 -94.57353,2.47144 z" />
</svg>
