<?xml version="1.0" encoding="UTF-8" standalone="no"?>
<svg
   version="1.1"
   viewBox="-10 0 1010 1000"
   id="svg866"
   sodipodi:docname="U0039_9_nine.svg"
   inkscape:version="1.1.2 (0a00cf5339, 2022-02-04)"
   xmlns:inkscape="http://www.inkscape.org/namespaces/inkscape"
   xmlns:sodipodi="http://sodipodi.sourceforge.net/DTD/sodipodi-0.dtd"
   xmlns="http://www.w3.org/2000/svg"
   xmlns:svg="http://www.w3.org/2000/svg">
  <defs
     id="defs870" />
  <sodipodi:namedview
     id="namedview868"
     pagecolor="#ffffff"
     bordercolor="#666666"
     borderopacity="1.0"
     inkscape:pageshadow="2"
     inkscape:pageopacity="0.0"
     inkscape:pagecheckerboard="0"
     showgrid="false"
     inkscape:zoom="0.29625"
     inkscape:cx="535.0211"
     inkscape:cy="1372.1519"
     inkscape:window-width="2494"
     inkscape:window-height="1371"
     inkscape:window-x="66"
     inkscape:window-y="32"
     inkscape:window-maximized="1"
     inkscape:current-layer="svg866"
     inkscape:snap-global="false" />
  <rect
     style="fill:#dc0000;fill-opacity:1;fill-rule:evenodd;stroke-width:10;stroke-linecap:round;stroke-linejoin:round;stroke-dashoffset:19.02"
     id="rect845"
     width="1016.1195"
     height="219.56371"
     x="-15.531845"
     y="781.01752" />
  <path
     id="path6760"
     style="fill:#000000;fill-rule:evenodd;stroke:none;stroke-width:1px;stroke-linecap:butt;stroke-linejoin:miter;stroke-opacity:1;fill-opacity:1"
     d="M 487.34961 76.824219 L 415.74219 81.599609 L 357.17188 110.39648 L 371.49414 118.75 L 422.81055 91.300781 L 493.22266 86.527344 L 567.2168 99.654297 L 635.24219 158.13281 L 667.46484 214.22461 L 679 248.0332 L 571.30859 245.99219 L 598.5625 327.125 L 702.98047 328.70117 L 714.61914 384.47656 L 713.14844 413.16992 L 628.4668 415.11719 L 632.72461 567.64453 L 580.21484 568.83789 L 530.17969 658.71875 L 649.19727 659.60352 L 634.4043 683.09766 L 609.34375 712.93359 L 553.25195 746.34961 L 510.28906 767.83008 L 453.00391 772.60547 L 411.23438 770.21875 L 377.81836 754.70312 L 332.4668 733.2207 L 305.01953 708.16016 L 320.5332 692.64453 L 307.40625 679.51758 L 280.37305 714.70898 L 331.69141 761.25195 L 398.16992 784.53906 L 468.51953 789.3125 L 516.25586 783.3457 L 553.25195 766.63672 L 612.92383 732.02734 L 639.17969 697.41797 L 668.91797 659.75 L 671.42969 659.76953 L 674.7793 652.32422 L 674.98242 652.06836 L 674.89844 652.0625 L 692.91211 612.03125 L 706.03906 560.71484 L 698.87891 492.68945 L 725.13477 495.07617 L 727.52148 433.01758 L 732.29492 412.72852 L 727.15625 412.84766 L 725.04102 351.51367 L 718.80273 328.93945 L 722.4082 328.99414 L 697.21484 248.37891 L 694.55859 248.32812 L 660.5957 170.11133 L 610.27148 117.40234 C 610.27148 117.40234 572.08231 87.566406 567.30859 87.566406 C 562.53487 87.566406 487.34961 76.824219 487.34961 76.824219 z M 455.01367 177.32422 L 296.28711 180.9043 L 278.38672 220.99219 L 273.21094 254.54297 L 267.95312 266.49414 L 269.14648 347.64648 L 287.04883 413.28516 L 288.17773 413.73828 L 303.60156 441.0293 L 325.08398 469.67188 L 341.79102 482.79883 L 341.79102 414.77344 L 309.64648 414.05859 L 284.53516 345 L 286.92188 275.78125 L 296.47266 259.89844 L 398.92188 260.86523 L 404.88867 221.48242 L 444.27344 185.67969 L 455.01367 177.32422 z M 505.42188 178.98242 L 540.03125 201.65625 L 559.125 219.55859 L 561.51172 180.17578 L 505.42188 178.98242 z M 412.20508 383.74414 L 412.20508 492.3457 L 357.9707 489.92773 L 396.16016 513.79688 L 439.12305 518.57031 L 491.63477 517.37695 L 491.47461 509.64258 L 493.89062 516.28516 L 541.62695 491.22266 L 571.46289 468.54883 L 597.49805 445.76953 L 591.33203 488.15039 L 603.86328 489.93945 L 610.42773 443.99219 L 599.21875 444.26172 L 600.10547 443.48633 L 588.16992 431.55273 L 527.30664 482.86914 L 491.31445 501.99023 L 489.77734 427.90234 L 455.16797 421.93359 L 425.33203 400.45312 L 412.20508 383.74414 z M 348.27734 631.0293 L 364.38867 655.49414 L 388.85352 672.79883 L 415.10938 676.37891 L 467.62109 674.58984 L 465.83008 666.83203 L 432.41406 666.83203 L 408.54492 665.04102 L 378.11328 651.91406 L 348.27734 631.0293 z M 344.40234 635.35938 L 327.69336 656.8418 L 346.78906 656.8418 L 344.40234 635.35938 z "
     transform="translate(-10)" />
</svg>
