<?xml version="1.0" encoding="UTF-8" standalone="no"?>
<svg
   version="1.1"
   viewBox="-10 0 1010 1000"
   id="svg866"
   sodipodi:docname="U0035_5_five.svg"
   inkscape:version="1.1.2 (0a00cf5339, 2022-02-04)"
   xmlns:inkscape="http://www.inkscape.org/namespaces/inkscape"
   xmlns:sodipodi="http://sodipodi.sourceforge.net/DTD/sodipodi-0.dtd"
   xmlns="http://www.w3.org/2000/svg"
   xmlns:svg="http://www.w3.org/2000/svg">
  <defs
     id="defs870" />
  <sodipodi:namedview
     id="namedview868"
     pagecolor="#ffffff"
     bordercolor="#666666"
     borderopacity="1.0"
     inkscape:pageshadow="2"
     inkscape:pageopacity="0.0"
     inkscape:pagecheckerboard="0"
     showgrid="false"
     inkscape:zoom="1.185"
     inkscape:cx="656.96203"
     inkscape:cy="412.23629"
     inkscape:window-width="2494"
     inkscape:window-height="1371"
     inkscape:window-x="66"
     inkscape:window-y="32"
     inkscape:window-maximized="1"
     inkscape:current-layer="svg866"
     inkscape:snap-global="false" />
  <rect
     style="fill:#dc0000;fill-opacity:1;fill-rule:evenodd;stroke-width:10;stroke-linecap:round;stroke-linejoin:round;stroke-dashoffset:19.02"
     id="rect845"
     width="1016.1195"
     height="219.56371"
     x="-15.531845"
     y="781.01752" />
  <path
     id="path4117"
     style="fill:#000000;fill-opacity:1;fill-rule:evenodd;stroke:none;stroke-width:1px;stroke-linecap:butt;stroke-linejoin:miter;stroke-opacity:1"
     d="m 339.18555,54.992188 -3.58008,22.673828 70.41211,-1.19336 -4.75391,235.695314 -78.93555,0.69922 -7.16015,78.76758 222.34961,-3.3125 -1.19336,44.15625 33.41601,32.22265 5.9668,59.67188 -2.38672,28.64257 1.91211,-0.006 -14.68554,49.30859 -22.78516,39.66211 -49.78906,18.56641 -55.47852,-4.79297 -35.44336,-10.97071 -28.6914,-21.9414 -37.13086,-37.13086 -57.28125,88.84961 8.77929,9.28515 50.63672,-78.0039 27.84766,33.75586 c 0,0 50.63228,23.6289 54.00781,23.6289 3.37552,0 46.41406,10.97071 46.41406,10.97071 0,0 62.73775,-13.50196 66.11328,-13.50196 3.37552,0 32.06836,-21.9414 32.06836,-21.9414 l 18.38867,-58.28125 6.1836,-27.48828 28.98437,-0.0801 -0.8457,170.35937 62.50195,-72.62305 -3.58007,-100.24804 28.64257,-2.38672 L 699,467.97461 l -89.93555,4.75 v -79.95899 l 54.31446,-2.38671 -28.64258,-39.38282 -47.73828,-33.41601 -56.08985,-11.93555 -65.63867,5.96875 -31.0293,15.51367 11.76758,-148.22461 h 33.41602 l -5.10938,-103.173824 180.07032,-1.427735 -1.25586,86.382809 -82.03125,-1.32226 v 19.4082 l 102.78711,2.5332 -1.58008,-107.142574 1.16406,-0.0098 2.38672,-15.513672 z m -27.64844,660.746092 37.45975,26.53869 68.46017,30.44959 72.95117,-0.71679 46.54297,-3.58008 -1.19336,-51.31641 z"
     transform="translate(-10)"
     sodipodi:nodetypes="cccccccccccccccccccccccscscccccccccccccccccccccccccccccccccccc" />
</svg>
