<?xml version="1.0" encoding="UTF-8" standalone="no"?>
<svg
   version="1.1"
   viewBox="-10 0 1010 1000"
   id="svg866"
   sodipodi:docname="U0036_6_six.svg"
   inkscape:version="1.1.2 (0a00cf5339, 2022-02-04)"
   xmlns:inkscape="http://www.inkscape.org/namespaces/inkscape"
   xmlns:sodipodi="http://sodipodi.sourceforge.net/DTD/sodipodi-0.dtd"
   xmlns="http://www.w3.org/2000/svg"
   xmlns:svg="http://www.w3.org/2000/svg">
  <defs
     id="defs870" />
  <sodipodi:namedview
     id="namedview868"
     pagecolor="#ffffff"
     bordercolor="#666666"
     borderopacity="1.0"
     inkscape:pageshadow="2"
     inkscape:pageopacity="0.0"
     inkscape:pagecheckerboard="0"
     showgrid="false"
     inkscape:zoom="0.83792154"
     inkscape:cx="461.26037"
     inkscape:cy="477.96838"
     inkscape:window-width="2494"
     inkscape:window-height="1371"
     inkscape:window-x="66"
     inkscape:window-y="32"
     inkscape:window-maximized="1"
     inkscape:current-layer="svg866"
     inkscape:snap-global="false" />
  <rect
     style="fill:#dc0000;fill-opacity:1;fill-rule:evenodd;stroke-width:10;stroke-linecap:round;stroke-linejoin:round;stroke-dashoffset:19.02"
     id="rect845"
     width="1016.1195"
     height="219.56371"
     x="-15.531845"
     y="781.01752" />
  <path
     id="path4920"
     style="fill:#000000;fill-rule:evenodd;stroke:none;stroke-width:1px;stroke-linecap:butt;stroke-linejoin:miter;stroke-opacity:1;fill-opacity:1"
     d="M 541.27148 63.412109 L 471.88867 69.318359 L 431.38281 89.572266 L 429.2793 92.316406 L 413.42773 101.375 L 379.67188 125.00391 L 367.85742 135.13086 L 365.49805 318.95508 L 275.47266 321.59375 L 273.22656 396.42578 L 288.41797 398.11328 L 286.95117 475.67578 L 275.13672 476.51953 L 276.82422 519.55664 L 287.4375 570.31445 L 315.28516 621.79102 L 349.03906 682.55078 L 367.69336 704.08594 L 369.02734 634.17383 L 441.40039 636.5957 L 436.50781 744.20508 L 475.17383 761.62305 L 520.66602 764.87109 L 521.0332 765.18945 L 587.70117 760.9707 L 649.30469 733.12305 L 689.39258 696.48633 L 720.61719 645.00977 L 748.46484 588.4707 L 746.18945 498.4668 L 746.18945 475.68359 L 727.62305 476.52734 L 736.1582 585.04883 L 717.59375 623.02344 L 684.68164 682.0957 L 644.17578 722.60156 L 592.69922 744.54297 L 557.25586 751.29492 L 521.87305 751.29492 L 519.2793 687.60156 L 575.76562 679.11133 L 637.61328 611.92188 L 642.67773 546.09961 L 621.01367 545.45898 L 618.48242 610.4375 L 566.98242 661.75195 L 518.42578 666.60742 L 518.21094 661.3457 L 488.67578 663.87695 L 456.60938 641.0918 L 445.63867 625.90234 L 417.78906 580.33203 L 411.88281 551.64062 L 363.78125 552.48438 L 363.44727 396.16992 L 399.73438 396.16992 L 400.57812 344.07031 C 400.57812 344.07031 413.23594 289.21954 415.76758 284.15625 C 418.29923 279.09295 444.45898 230.99023 444.45898 230.99023 L 497.97656 179.44531 L 553.67188 170.16406 L 620.44141 182.99023 L 661.71484 214.98242 L 719.23047 163.33789 L 439.91602 164.48828 L 437.76953 107.02734 L 477.13867 81.429688 L 543.72852 76.527344 L 611.23828 79.902344 L 654.27734 98.46875 L 673.68555 108.59375 L 682.23828 93.845703 L 630.76172 70.216797 L 541.27148 63.412109 z M 595.77734 330.71289 L 597.82422 395.5 L 514.92188 395.08203 L 518.29883 418.71094 L 562.64258 428.11914 L 597.24219 449.2168 L 611.58789 473.68945 L 675.94531 467.07031 L 677.63281 397.37891 L 707.16992 395.69141 L 689.44727 374.59375 L 665.82031 352.65234 L 630.37695 337.46289 L 595.77734 330.71289 z M 441.93359 366.07812 L 414.92969 394.76953 L 440.24609 393.92578 L 441.93359 366.07812 z "
     transform="translate(-10)" />
</svg>
