<?xml version="1.0" encoding="UTF-8" standalone="no"?>
<svg
   version="1.1"
   viewBox="-10 0 1010 1000"
   id="svg866"
   sodipodi:docname="U0038_8_eight.svg"
   inkscape:version="1.1.2 (0a00cf5339, 2022-02-04)"
   xmlns:inkscape="http://www.inkscape.org/namespaces/inkscape"
   xmlns:sodipodi="http://sodipodi.sourceforge.net/DTD/sodipodi-0.dtd"
   xmlns="http://www.w3.org/2000/svg"
   xmlns:svg="http://www.w3.org/2000/svg">
  <defs
     id="defs870" />
  <sodipodi:namedview
     id="namedview868"
     pagecolor="#ffffff"
     bordercolor="#666666"
     borderopacity="1.0"
     inkscape:pageshadow="2"
     inkscape:pageopacity="0.0"
     inkscape:pagecheckerboard="0"
     showgrid="false"
     inkscape:zoom="0.83792154"
     inkscape:cx="461.26037"
     inkscape:cy="477.96838"
     inkscape:window-width="2494"
     inkscape:window-height="1371"
     inkscape:window-x="66"
     inkscape:window-y="32"
     inkscape:window-maximized="1"
     inkscape:current-layer="svg866"
     inkscape:snap-global="false" />
  <rect
     style="fill:#dc0000;fill-opacity:1;fill-rule:evenodd;stroke-width:10;stroke-linecap:round;stroke-linejoin:round;stroke-dashoffset:19.02"
     id="rect845"
     width="1016.1195"
     height="219.56371"
     x="-15.531845"
     y="781.01752" />
  <path
     id="path6161"
     style="fill:#000000;fill-rule:evenodd;stroke:none;stroke-width:1px;stroke-linecap:butt;stroke-linejoin:miter;stroke-opacity:1;fill-opacity:1"
     d="M 554.57812 48.724609 L 436.91797 54.691406 L 382.01953 73.787109 L 331.89648 117.94336 L 304.44727 159.71289 L 305.57031 161.13281 L 292.13867 189.11719 L 290.94336 232.08008 L 407.90039 236.85352 L 411.48047 204.63086 L 424.60742 178.37695 L 455.63672 153.31445 L 328.36133 158.4043 L 335.81445 142.43555 L 377.58398 99.470703 L 439.28125 73.787109 L 543.83789 70.207031 L 582.02734 85.720703 L 597.54102 64.238281 L 554.57812 48.724609 z M 676.66016 154.68164 L 531.89453 155.00195 L 566.50391 182.45117 L 577.24414 209.90039 L 584.01172 233.34766 L 669.47461 235.29297 L 663.18359 283.82422 L 614.25391 336.33594 L 550.51562 394.48242 L 507.00195 393.95898 L 507.00195 347.41602 L 471.19922 333.0957 L 436.58984 312.80664 L 303.33594 314.875 L 326.01172 349.48438 L 366.58789 386.48047 L 378.52148 396.0293 L 400.73047 395.56641 L 343.9707 436.39258 L 291.30664 488.23633 L 291.39844 482.78906 L 270.82617 513.74023 L 260.08594 559.0918 L 269.63281 639.05078 L 361.52734 642.63086 L 364.07422 739.73242 L 436.87305 773.14844 L 436.89844 771.17188 L 553.12109 771.17188 L 588.92383 755.6582 L 635.4668 740.14453 L 674.85156 705.53516 L 691.55859 685.24609 L 673.6582 684.05273 L 652.17578 705.53516 L 610.40625 732.98242 L 549.54102 755.6582 L 437.0957 755.6582 L 438.18945 670.1582 L 402.38672 634.35547 L 374.9375 587.81055 L 374.9375 560.36133 L 290.20508 553.20117 L 290.89258 512.62695 L 436.66797 403.85547 L 440.16992 440.50391 L 489.10156 458.4043 L 512.96875 478.69336 L 689.59766 473.91992 L 666.92188 441.69727 L 606.05664 395.15234 L 573.57617 394.76172 L 625.77148 350.44922 L 679.47461 293.16406 L 689.91406 235.75781 L 693.36719 235.83594 L 696.94727 207.19336 L 683.82031 165.42188 L 676.66016 154.68164 z M 435.80664 394.83594 L 436.31445 400.15039 L 426.5 395.0293 L 435.80664 394.83594 z M 587.44141 552.32617 L 594.60156 595.28906 L 586.24805 627.51172 L 571.79102 639.91016 L 714.80273 640.63867 L 719.57617 604.83594 L 721.96289 554.71289 L 587.44141 552.32617 z "
     transform="translate(-10)" />
</svg>
