<?xml version="1.0" encoding="UTF-8" standalone="no"?>
<svg
   version="1.1"
   viewBox="-10 0 1010 1000"
   id="svg866"
   sodipodi:docname="U003E_greater.svg"
   inkscape:version="1.1.2 (0a00cf5339, 2022-02-04)"
   xmlns:inkscape="http://www.inkscape.org/namespaces/inkscape"
   xmlns:sodipodi="http://sodipodi.sourceforge.net/DTD/sodipodi-0.dtd"
   xmlns="http://www.w3.org/2000/svg"
   xmlns:svg="http://www.w3.org/2000/svg">
  <defs
     id="defs870" />
  <sodipodi:namedview
     id="namedview868"
     pagecolor="#ffffff"
     bordercolor="#666666"
     borderopacity="1.0"
     inkscape:pageshadow="2"
     inkscape:pageopacity="0.0"
     inkscape:pagecheckerboard="0"
     showgrid="false"
     inkscape:zoom="1.185"
     inkscape:cx="460.33755"
     inkscape:cy="314.34599"
     inkscape:window-width="2494"
     inkscape:window-height="1371"
     inkscape:window-x="66"
     inkscape:window-y="32"
     inkscape:window-maximized="1"
     inkscape:current-layer="svg866"
     inkscape:snap-global="false" />
  <rect
     style="fill:#dc0000;fill-opacity:1;fill-rule:evenodd;stroke-width:10;stroke-linecap:round;stroke-linejoin:round;stroke-dashoffset:19.02"
     id="rect845"
     width="1016.1195"
     height="219.56371"
     x="-15.531845"
     y="781.01752" />
  <path
     id="path8588"
     style="fill:#000000;fill-rule:evenodd;stroke:none;stroke-width:1px;stroke-linecap:butt;stroke-linejoin:miter;stroke-opacity:1;fill-opacity:1"
     d="M 330.5 223.27539 L 330.20312 324.06836 L 341.89844 326.69531 L 341.75586 238.30078 L 445.96875 279.89648 L 442.0957 356.71484 L 569.54297 403.30469 L 569.58008 329.23438 L 637.25 356.24414 L 636.75977 497.10156 L 704.33008 471.96289 L 703.08008 428.40625 L 733.45898 426.71875 L 734.54102 378.36523 L 637.30078 341.55078 L 637.29492 343.0918 L 330.5 223.27539 z M 577.20508 433.92188 L 379.35352 505.47852 L 379.58789 576.42383 L 342.08789 598.57227 L 342.05078 519.0293 L 331.50195 520.29492 L 330.38477 618.47461 L 452.68945 567.37305 L 455.02344 504.08594 L 510.36523 505.94531 L 506.56641 548.14062 L 576.85547 520.11133 L 577.20508 433.92188 z "
     transform="translate(-10)" />
</svg>
