<?xml version="1.0" encoding="UTF-8" standalone="no"?>
<svg
   version="1.1"
   viewBox="-10 0 1010 1000"
   id="svg866"
   sodipodi:docname="U003B_semicolon.svg"
   inkscape:version="1.1.2 (0a00cf5339, 2022-02-04)"
   xmlns:inkscape="http://www.inkscape.org/namespaces/inkscape"
   xmlns:sodipodi="http://sodipodi.sourceforge.net/DTD/sodipodi-0.dtd"
   xmlns="http://www.w3.org/2000/svg"
   xmlns:svg="http://www.w3.org/2000/svg">
  <defs
     id="defs870" />
  <sodipodi:namedview
     id="namedview868"
     pagecolor="#ffffff"
     bordercolor="#666666"
     borderopacity="1.0"
     inkscape:pageshadow="2"
     inkscape:pageopacity="0.0"
     inkscape:pagecheckerboard="0"
     showgrid="false"
     inkscape:zoom="0.29625"
     inkscape:cx="1429.5359"
     inkscape:cy="551.89873"
     inkscape:window-width="2494"
     inkscape:window-height="1371"
     inkscape:window-x="66"
     inkscape:window-y="32"
     inkscape:window-maximized="1"
     inkscape:current-layer="svg866"
     inkscape:snap-global="false" />
  <rect
     style="fill:#dc0000;fill-opacity:1;fill-rule:evenodd;stroke-width:10;stroke-linecap:round;stroke-linejoin:round;stroke-dashoffset:19.02"
     id="rect845"
     width="1016.1195"
     height="219.56371"
     x="-15.531845"
     y="781.01752" />
  <path
     id="path1849"
     style="fill:#000000;fill-rule:evenodd;stroke:none;stroke-width:1px;stroke-linecap:butt;stroke-linejoin:miter;stroke-opacity:1;fill-opacity:1"
     d="M 461.22852 211.20898 L 417.3457 246.65234 L 409.13281 316.55273 L 435.29297 351.99414 L 475.79297 365.67773 L 478.95312 223.50391 L 511.86523 225.19141 L 542.24414 239.53711 L 552.77539 272.8125 L 552.77539 314.16211 L 524.08398 345.38672 L 528.30273 352.98047 L 560.37109 323.44531 L 563.74609 278.71875 L 550.24414 233.15039 L 513.95703 214.58398 L 461.22852 211.20898 z M 479.50195 521.67383 L 451.65234 530.11133 L 427.17969 552.89648 L 415.36523 581.58984 L 547.01172 580.74414 L 549.37891 653.3418 L 469.00781 652.05273 L 469.00781 662.17773 L 502.95703 661.0625 L 502.11328 687.22266 L 478.48438 720.97656 L 466.66992 739.54297 L 461.60742 791.86328 L 398.35547 794.56445 L 422.43945 851.42773 L 432.56641 846.36523 L 469.69727 830.33008 L 507.67188 806.70312 L 535.51953 774.63477 L 534.67578 725.68945 L 572.65039 727.37695 L 587.8418 653.95898 L 551.74023 653.38086 L 574.01562 602.68555 L 562.20117 565.55469 L 542.79297 541.92578 L 509.88086 523.36133 L 479.50195 521.67383 z "
     transform="translate(-10)" />
</svg>
