<?xml version="1.0" encoding="UTF-8" standalone="no"?>
<svg
   version="1.1"
   viewBox="-10 0 1010 1000"
   id="svg866"
   sodipodi:docname="U0033_3_three.svg"
   inkscape:version="1.1.2 (0a00cf5339, 2022-02-04)"
   xmlns:inkscape="http://www.inkscape.org/namespaces/inkscape"
   xmlns:sodipodi="http://sodipodi.sourceforge.net/DTD/sodipodi-0.dtd"
   xmlns="http://www.w3.org/2000/svg"
   xmlns:svg="http://www.w3.org/2000/svg">
  <defs
     id="defs870" />
  <sodipodi:namedview
     id="namedview868"
     pagecolor="#ffffff"
     bordercolor="#666666"
     borderopacity="1.0"
     inkscape:pageshadow="2"
     inkscape:pageopacity="0.0"
     inkscape:pagecheckerboard="0"
     showgrid="false"
     inkscape:zoom="0.5925"
     inkscape:cx="731.64557"
     inkscape:cy="691.13924"
     inkscape:window-width="2494"
     inkscape:window-height="1371"
     inkscape:window-x="66"
     inkscape:window-y="32"
     inkscape:window-maximized="1"
     inkscape:current-layer="svg866"
     inkscape:snap-global="false" />
  <rect
     style="fill:#dc0000;fill-opacity:1;fill-rule:evenodd;stroke-width:10;stroke-linecap:round;stroke-linejoin:round;stroke-dashoffset:19.02"
     id="rect845"
     width="1016.1195"
     height="219.56371"
     x="-15.531845"
     y="781.01752" />
  <path
     id="path3055"
     style="fill:#000000;fill-rule:evenodd;stroke:none;stroke-width:1px;stroke-linecap:butt;stroke-linejoin:miter;stroke-opacity:1;fill-opacity:1"
     d="M 485.71875 61.351562 L 425.73047 75.060547 L 380.37891 100.12305 L 430.50391 96.542969 L 431.69727 172.92188 L 327.56641 179.06445 L 371.72266 235.15625 L 399.17188 218.44727 L 445.7168 188.61133 L 503 173.09766 L 543.57812 174.29102 L 593.70117 211.28711 L 593.70117 171.9043 L 508.9668 165.9375 L 509.15039 98.203125 L 628.84961 97.296875 L 645.44922 110.10156 L 692.70703 142.16797 L 730.53516 203.85938 L 733.06641 259.55664 L 719.56445 322.84766 L 668.93164 373.48047 L 673.99414 384.45117 L 705.98047 362.24219 L 737.20312 320.04688 L 748.17383 271.94531 L 749.01758 217.94922 L 730.45312 165.62891 L 702.60547 124.27734 L 664.45312 97.027344 L 666.68164 97.009766 L 661.375 94.828125 L 661.25391 94.742188 L 661.10547 94.71875 L 620.57617 78.060547 L 564.48633 64.931641 L 485.71875 61.351562 z M 594.75586 306.95117 L 576.85352 330.82031 L 539.85742 353.49609 L 505.24805 359.46289 L 508.82812 415.55469 L 438.41602 416.74805 L 439.60938 457.32422 L 511.06055 461.26172 L 554.02344 467.22852 L 589.82617 491.0957 L 594.75586 306.95117 z M 625.47852 494.94531 C 610.65052 494.90787 600.37126 495.04095 599.31641 495.46289 L 614.12109 517.92578 L 639.4375 551.68164 L 627.62305 585.4375 L 758.24414 584.47852 L 758.59375 602.98828 L 755.98828 624.25391 L 736.58008 652.10352 L 723.48047 663.22266 L 590.09375 658.84375 L 588.90039 640.94141 L 524.45508 666.00391 L 480.29883 656.45508 L 436.14258 645.71484 L 437.33594 664.81055 L 508.94141 666.00391 L 505.36133 740.41992 L 640.82617 742.5332 L 634.39062 750.64648 L 603.16797 761.61719 L 503.74805 766.67969 L 456.49219 763.30469 L 399.10742 742.20703 L 394.04492 754.86523 L 468.12109 772.94336 L 547.01562 776.86328 L 630.14844 765.49805 L 659.30273 742.82227 L 659.4668 742.82422 L 691.68945 730.89062 L 727.49219 703.44141 L 748.97461 664.05859 L 746.46289 663.97656 L 773.7832 616.65039 L 775.4707 565.17383 L 773.99219 564.61133 L 773.99219 547.23242 L 755.37109 496.70703 C 755.37109 496.70703 669.9625 495.05766 625.47852 494.94531 z M 350.79688 589.87109 L 281.07031 676.23438 L 305.64062 699.38672 L 325.92773 720.86914 L 354.57031 735.18945 L 350.79688 589.87109 z "
     transform="translate(-10)" />
</svg>
