<?xml version="1.0" encoding="UTF-8" standalone="no"?>
<svg
   version="1.1"
   viewBox="-10 0 1010 1000"
   id="svg866"
   sodipodi:docname="U0040_at.svg"
   inkscape:version="1.1.2 (0a00cf5339, 2022-02-04)"
   xmlns:inkscape="http://www.inkscape.org/namespaces/inkscape"
   xmlns:sodipodi="http://sodipodi.sourceforge.net/DTD/sodipodi-0.dtd"
   xmlns="http://www.w3.org/2000/svg"
   xmlns:svg="http://www.w3.org/2000/svg">
  <defs
     id="defs870" />
  <sodipodi:namedview
     id="namedview868"
     pagecolor="#ffffff"
     bordercolor="#666666"
     borderopacity="1.0"
     inkscape:pageshadow="2"
     inkscape:pageopacity="0.0"
     inkscape:pagecheckerboard="0"
     showgrid="false"
     inkscape:zoom="0.5925"
     inkscape:cx="392.40506"
     inkscape:cy="586.49789"
     inkscape:window-width="2494"
     inkscape:window-height="1371"
     inkscape:window-x="66"
     inkscape:window-y="32"
     inkscape:window-maximized="1"
     inkscape:current-layer="svg866"
     inkscape:snap-global="false" />
  <rect
     style="fill:#dc0000;fill-opacity:1;fill-rule:evenodd;stroke-width:10;stroke-linecap:round;stroke-linejoin:round;stroke-dashoffset:19.02"
     id="rect845"
     width="1016.1195"
     height="219.56371"
     x="-15.531845"
     y="781.01752" />
  <path
     id="path9058"
     style="fill:#000000;fill-rule:evenodd;stroke:none;stroke-width:1px;stroke-linecap:butt;stroke-linejoin:miter;stroke-opacity:1;fill-opacity:1"
     d="M 636.95508 103.41016 L 433.39062 103.54297 L 406.58789 113.81055 L 371.98828 130.68945 C 371.98828 130.68945 334.47319 157.94694 331.09766 160.05664 L 461.01953 158.41211 L 488.25781 145.95508 L 551.76172 145.95508 C 555.55919 145.95508 580.875 148.9082 580.875 148.9082 L 597.33008 157.76953 L 722.12109 160.16406 L 692.22852 132.67578 L 636.95508 103.41016 z M 724.06641 162.1582 L 721.98047 214.91797 L 684.84961 214.07422 L 696.50195 225.97656 L 710.42578 245.38477 L 717.88867 270.94922 L 719.86914 270.95312 L 723.52148 284.56445 L 728.58398 311.56836 L 730.27148 334.77539 L 730.69336 382.5625 L 726.05273 407.03516 L 722.83594 418.32227 L 722.83789 416.38672 L 714.60352 439.80273 L 685.91211 472.71484 L 664.60742 489.99023 L 627.50195 492.31445 L 608.0918 482.1875 L 597.96484 461.93359 L 598.80859 440.41602 L 596.0293 440.42578 L 607.36328 385.19727 L 613.79492 385.22461 L 626.33984 328.94727 L 618.93164 328.83008 L 630.41797 272.85938 L 631.35742 272.87109 L 635.99805 260.63477 L 579.92969 259.87695 L 573.79102 272.1582 L 621.91016 272.75391 C 620.05946 279.87825 614.71466 300.35178 607.30664 328.64648 L 572.75195 328.10156 L 573.17383 287.5957 L 566.00195 292.23828 L 558.40625 280.8457 L 547.01367 265.6543 L 526.17773 258.99805 L 490.08789 259.8418 L 470.55273 265.64453 L 470.97461 273.66016 L 517.55469 271.82031 L 517.5957 312.52734 L 495.50195 314.41211 L 470.60742 326.22656 L 443.60352 358.7168 C 443.60352 358.7168 433.8985 376.43716 433.47656 378.54688 C 433.05461 380.65658 426.72461 418.08789 426.72461 418.08789 L 427.27344 441.99414 L 413.79492 443.46094 L 414.33008 302.47656 L 405.89062 307.11719 L 389.03125 342.48828 L 371.71484 372.29297 L 363.31055 407.96875 L 363.31055 434.12891 L 361.20117 458.60156 L 371.63867 484.41406 L 378.375 502.77148 L 468.58594 503.46289 L 469.85156 549.0332 L 496.80664 538.97656 L 518.63867 526.36328 L 518.63867 501.04688 L 539.3125 501.89062 L 545.64258 494.7168 L 549.43945 500.625 L 571.80273 502.73438 L 572.64648 537.75586 L 592.05469 549.57031 C 592.05469 549.57031 610.59543 554.0918 612.2832 554.0918 C 613.97096 554.0918 619.87695 555.35742 619.87695 555.35742 L 621.54102 505.32227 L 676.24219 505.05859 L 675.82031 545.98828 L 707.88867 527.84375 L 728.77344 513.57617 L 741.27539 500.35352 L 722.71094 500.77539 L 722.79492 445.33594 L 733.36914 429.80273 L 740.96484 406.5957 L 744.76172 374.5293 L 743.91797 344.99219 L 740.47266 302.04297 L 732.70508 270.97461 L 779.37695 271.05469 L 764.48828 220.48828 L 737.96094 183.88281 L 724.06641 162.1582 z M 307.05859 181.34961 L 287.65039 204.55664 L 259.71289 242.66992 L 247.89844 270.0957 L 259.48047 273.48047 L 259.05859 328.8457 L 277.96094 328.35742 L 270.21875 347.54492 L 263.04492 381.61133 L 260.37695 422.46875 L 260.0332 444.21484 L 206.11914 441.88086 L 206.96289 467.61914 L 212.86914 500.53125 L 271.00391 501.56055 C 274.17593 511.81319 278.71565 526.30902 279.60742 527.49805 C 280.87325 529.18581 301.24023 565.08203 301.24023 565.08203 L 333.75781 604.01367 L 359.49609 624.26758 L 405.37695 645.16211 L 407.91016 638.41211 L 383.4375 627.86328 L 351.17383 609.10742 L 329.23242 586.74414 L 308.5625 560.52539 L 291.38672 529.72266 L 284.91406 501.80664 L 287.75391 501.85742 L 280.13281 481.97852 L 278.4043 454.30859 L 278.82617 445.02734 L 275.75586 444.89453 L 275.50781 431.55078 L 277.95312 391.91797 L 284.2832 347.75586 L 290.86133 328.02344 L 293.4043 327.95703 L 302.26562 301.79688 L 319.56055 269.84375 C 319.56055 269.84375 306.48047 271.53091 306.48047 273.64062 C 306.48047 275.75032 307.05859 181.34961 307.05859 181.34961 z M 517.60156 319.29688 L 517.60352 320.71289 L 534.05859 322.40039 L 546.7168 338.43359 L 549.66992 348.13867 L 541.69531 384.91211 L 592.45117 385.13281 C 586.52476 407.50843 581.30127 426.96665 577.55469 440.48828 L 533.62891 440.63672 L 525.57227 460.00586 L 508.50391 476.29102 L 491.21875 483.53516 L 469.27734 484.80078 L 452.13867 481.38867 L 436.58008 461.18164 L 433.20508 441.34961 L 431.64648 441.51953 L 430.15625 430.40234 L 433.10938 404.24219 L 442.39258 373.01953 L 463.9707 346.73633 L 478.31641 328.59375 L 499.71484 320.96094 L 517.60156 319.29688 z M 605.79102 620.76953 L 587.64844 630.89648 L 570.77148 636.38086 L 572.26367 638.20312 L 574.79492 669.84961 L 573.5293 692.63281 L 541.63086 698.96289 L 518.47852 703.81836 L 519.32227 653.18555 L 468.68945 653.60742 L 467.83398 705.42383 L 440.83008 703.31445 L 410.87109 696.14062 L 411.29297 669.98047 L 328.69727 668.51562 L 352.32617 684.97266 L 403.04688 704.89648 L 443.83008 710.22461 L 475.47461 714.02148 L 517.10156 713.17773 L 553.75 706.38867 L 579.48828 700.06055 L 602.27344 691.62109 L 625.51172 674.38281 L 605.79102 620.76953 z "
     transform="translate(-10)" />
</svg>
