<?xml version="1.0" encoding="UTF-8" standalone="no"?>
<svg
   version="1.1"
   viewBox="-10 0 1010 1000"
   id="svg866"
   sodipodi:docname="U004C_L.svg"
   inkscape:version="1.1.2 (0a00cf5339, 2022-02-04)"
   xmlns:inkscape="http://www.inkscape.org/namespaces/inkscape"
   xmlns:sodipodi="http://sodipodi.sourceforge.net/DTD/sodipodi-0.dtd"
   xmlns="http://www.w3.org/2000/svg"
   xmlns:svg="http://www.w3.org/2000/svg">
  <defs
     id="defs870" />
  <sodipodi:namedview
     id="namedview868"
     pagecolor="#ffffff"
     bordercolor="#666666"
     borderopacity="1.0"
     inkscape:pageshadow="2"
     inkscape:pageopacity="0.0"
     inkscape:pagecheckerboard="0"
     showgrid="false"
     inkscape:zoom="0.10474019"
     inkscape:cx="1274.5823"
     inkscape:cy="-2553.9384"
     inkscape:window-width="2494"
     inkscape:window-height="1371"
     inkscape:window-x="66"
     inkscape:window-y="32"
     inkscape:window-maximized="1"
     inkscape:current-layer="svg866"
     inkscape:snap-global="false" />
  <rect
     style="fill:#dc0000;fill-rule:evenodd;stroke-width:10;stroke-linecap:round;stroke-linejoin:round;stroke-dashoffset:19.02;fill-opacity:1"
     id="rect845"
     width="1016.1195"
     height="219.56371"
     x="-15.531845"
     y="780.17365" />
  <path
     style="fill:#040000;fill-opacity:1;fill-rule:evenodd;stroke:none;stroke-width:0.578687px;stroke-linecap:butt;stroke-linejoin:miter;stroke-opacity:1"
     d="m 284.05671,796.76051 -7.76592,50.91386 171.09512,36.66222 104.83366,-29.71322 57.88041,48.22216 -19.07767,45.11441 -82.77872,34.024 95.77623,-17.05772 27.57453,-74.82631 -74.98529,-58.48795 -107.37639,31.26765 -88.35832,-22.82981 35.43015,-25.97278 9.0195,-67.29867 -43.02083,42.42604 z"
     id="path5576"
     sodipodi:nodetypes="cccccccccccccccc" />
  <path
     id="path1620"
     style="fill:#040000;fill-rule:evenodd;stroke:none;stroke-width:1px;stroke-linecap:butt;stroke-linejoin:miter;stroke-opacity:1;fill-opacity:1"
     d="M 288.60156 41.669922 L 287.4082 59.572266 L 290.9668 210.50195 L 304.0957 208.11523 L 303.47266 59.998047 L 344.04883 58.804688 L 348.96875 447.0918 L 400.28711 447.0918 L 402.01953 531.21484 L 287.48438 531.21484 L 289.87109 609.98242 L 347.1543 611.17578 L 345.96094 683.97461 L 285.69141 687.55469 L 286.88477 719.77734 L 417.70117 720.35352 L 417.73047 718.06445 L 556.87891 720.14648 L 559.86133 701.64844 C 559.86133 701.64844 434.05438 702.33331 417.93164 702.41016 L 418.23438 678.79688 L 640.72266 677.36914 L 641.31836 652.30664 L 418.59375 650.70508 L 418.89453 627.26562 L 666.30469 627.26562 L 665.11133 703.64648 L 585.52148 702.45312 L 585.52148 720.35352 L 684.57617 716.77344 L 687.03516 612.99023 L 417.41211 611.89648 L 418.99023 42.863281 L 288.60156 41.669922 z "
     transform="translate(-10)" />
</svg>
