<?xml version="1.0" encoding="UTF-8" standalone="no"?>
<svg
   version="1.1"
   viewBox="-10 0 1010 1000"
   id="svg866"
   sodipodi:docname="U004F_O.svg"
   inkscape:version="1.1.2 (0a00cf5339, 2022-02-04)"
   xmlns:inkscape="http://www.inkscape.org/namespaces/inkscape"
   xmlns:sodipodi="http://sodipodi.sourceforge.net/DTD/sodipodi-0.dtd"
   xmlns="http://www.w3.org/2000/svg"
   xmlns:svg="http://www.w3.org/2000/svg">
  <defs
     id="defs870" />
  <sodipodi:namedview
     id="namedview868"
     pagecolor="#ffffff"
     bordercolor="#666666"
     borderopacity="1.0"
     inkscape:pageshadow="2"
     inkscape:pageopacity="0.0"
     inkscape:pagecheckerboard="0"
     showgrid="false"
     inkscape:zoom="0.83792154"
     inkscape:cx="801.38769"
     inkscape:cy="649.82218"
     inkscape:window-width="2494"
     inkscape:window-height="1371"
     inkscape:window-x="66"
     inkscape:window-y="32"
     inkscape:window-maximized="1"
     inkscape:current-layer="svg866"
     inkscape:snap-global="false" />
  <rect
     style="fill:#dc0000;fill-rule:evenodd;stroke-width:10;stroke-linecap:round;stroke-linejoin:round;stroke-dashoffset:19.02;fill-opacity:1"
     id="rect845"
     width="1016.1195"
     height="219.56371"
     x="-15.531845"
     y="780.17365" />
  <path
     id="path4874"
     style="fill:#000000;fill-opacity:1;fill-rule:evenodd;stroke:none;stroke-width:1px;stroke-linecap:butt;stroke-linejoin:miter;stroke-opacity:1"
     d="m 517.40381,19.557826 -80.86719,2.53125 -32.9121,7.59375 -37.97461,8.439453 -10.76758,6.152344 -0.4961,0.08789 -1.0039,0.769532 -5.45313,3.117187 h 1.39258 l -56.0664,43.029297 -52.06055,63.076171 -19.41016,48.94531 -28.66601,77.60352 -3.37696,59.91602 -3.73632,77.57617 6.75195,58.22851 8.4375,54.04102 11.81445,32.91211 5.9082,-16.87696 -14.3457,-47.25781 -9.2832,-59.23828 6.29883,-77.08008 5.9082,-79.32422 16.0332,-56.54101 c 0,0 19.40989,-48.94452 21.09766,-54.00781 1.68776,-5.0633 40.50586,-56.53907 40.50586,-56.53907 l 51.32422,-47.109372 33.21484,-21.353516 h 20.45117 l 3.67188,113.531248 -12.61524,11.60547 -24.47265,32.06836 -24.47266,54.85156 9.2832,-1.6875 25.31641,-54.85156 27.53906,-24.07422 0.0332,0.99805 27.00585,-21.09766 27.00391,-11.81445 51.56641,-8.43945 68.35351,17.72265 39.66407,37.97461 35.96093,64.39844 12.85938,62.69336 4.70508,48.52148 -2.52539,61.51563 -16.86524,82.89258 13.50195,5.90625 8.53125,-50.43555 c 0,0 7.01354,-59.269 7.85743,-62.64453 0.55271,-2.21086 1.31153,-17.0582 1.87695,-29.0625 l 122.64648,-0.58984 -1.73242,-44.45704 -6.75,-36.28711 -18.60351,-87.36718 -31.22266,-59.91602 -5.9082,15.18945 24.99414,49.07422 14.34765,59.91602 3.375,21.09766 -90.31836,2.60546 L 684.09327,91.630089 662.15186,69.688685 631.771,45.216029 612.3628,40.997279 V 129.6047 l -150.38282,-3.07422 -0.0137,-81.16992 132.03321,0.357422 -0.84375,-13.501953 -31.86915,-12.658203 z m -273.3457,274.908204 -1.53906,330.16797 22.78515,35.44336 33.75391,33.75586 18.56641,18.56445 -3.86133,-336.03906 17.7207,0.84375 -10.26562,-37.54492 11.81445,-27.00586 2.05859,-14.81055 z m 552.75,98.83594 -12.6582,1.6875 2.49218,35.55273 -7.84179,35.28711 -94.97266,0.15039 0.84375,81.01367 -57.38281,-1.6875 -17.08008,36.56836 -33.75586,37.13086 -29.12695,13.26172 167.8164,-1.73047 -1.08398,2.49024 -38.09375,47.50976 -27.84766,30.37891 -84.86328,30.41797 v 12.6582 l 50.94727,-15.33984 43.88086,-21.94141 46.41406,-52.32031 26.625,-34.01953 2.91797,-0.0293 19.41015,-32.06641 7.59571,-23.6289 c 0,0 -9.28387,-27.84961 -5.06446,-27.84961 h 22.78516 l 7.54492,-42.17188 7.59375,-38.81836 -3.51758,0.006 8.95313,-45.50586 z m -456.5332,103.83398 -9.28321,0.84375 10.12696,37.97461 20.25195,48.10156 37.47266,49.5586 32.0664,17.72265 29.44531,14.05274 -0.23437,90.44336 -50.37891,-12.57422 -48.10156,-17.72266 -27.00391,-21.9414 1.6875,19.41015 56.54102,32.06641 55.72852,11.09961 26.16211,5.90625 c 0,0 37.97381,-1.68776 43.0371,0 5.06329,1.68777 21.09766,-9.2832 21.09766,-9.2832 l 0.84375,-122.36329 -17.72266,8.43946 -32.91015,7.5957 -28.69336,-11.81445 -0.006,1.99414 -38.87695,-16.66016 -48.90039,-48.0918 -21.09766,-43.88086 z" />
  <path
     id="path5741"
     style="fill:#080000;fill-rule:evenodd;stroke:none;stroke-width:1.3862px;stroke-linecap:butt;stroke-linejoin:miter;stroke-opacity:1;fill-opacity:1"
     d="M 531.20898 836.35938 L 515.91797 842.26758 L 514.37109 918.5625 C 506.28272 918.57884 504.7752 918.58013 496.09375 918.59766 C 497.01115 904.96157 502.50391 838.9043 502.50391 838.9043 L 486.4707 844.81055 L 484.90039 918.62109 C 458.30748 918.67473 456.17166 918.67869 430.38086 918.73047 C 431.53271 902.5058 436.68164 840.5918 436.68164 840.5918 L 420.64844 846.5 L 419.10938 918.75195 C 412.30083 918.7656 410.41841 918.7706 404.11523 918.7832 C 405.48807 900.13185 410.29102 842.36133 410.29102 842.36133 L 394.25781 848.26758 L 392.75781 918.80664 C 376.85481 918.83835 361.11616 918.87053 351.81445 918.88867 C 354.89288 897.95921 363.73633 843.27539 363.73633 843.27539 L 332.76562 849.15234 L 329.88281 918.93164 C 328.06293 918.935 313.69825 918.96484 313.51562 918.96484 L 304.29492 928.04102 L 329.51758 927.80469 L 329.50586 928.06641 C 329.50586 928.06641 348.89202 930.36393 350.53516 927.60938 L 392.57812 927.21484 L 392.57031 927.59375 C 392.57031 927.59375 402.65278 929.91215 403.46289 927.11328 L 617.73047 925.10938 L 616.04102 918.35742 C 616.04102 918.35742 600.25667 918.38866 598.32422 918.39258 C 601.55094 900.73969 614.42969 839.23437 614.42969 839.23438 L 574.45117 845.0957 L 570.5293 918.44922 C 558.99091 918.47257 543.95423 918.50256 524.92578 918.54102 C 525.38067 909.81049 531.20898 836.35937 531.20898 836.35938 z "
     transform="translate(-10)" />
</svg>
