<?xml version="1.0" encoding="UTF-8" standalone="no"?>
<svg
   version="1.1"
   viewBox="-10 0 1010 1000"
   id="svg866"
   sodipodi:docname="U0049_I.svg"
   inkscape:version="1.1.2 (0a00cf5339, 2022-02-04)"
   xmlns:inkscape="http://www.inkscape.org/namespaces/inkscape"
   xmlns:sodipodi="http://sodipodi.sourceforge.net/DTD/sodipodi-0.dtd"
   xmlns="http://www.w3.org/2000/svg"
   xmlns:svg="http://www.w3.org/2000/svg">
  <defs
     id="defs870" />
  <sodipodi:namedview
     id="namedview868"
     pagecolor="#ffffff"
     bordercolor="#666666"
     borderopacity="1.0"
     inkscape:pageshadow="2"
     inkscape:pageopacity="0.0"
     inkscape:pagecheckerboard="0"
     showgrid="false"
     inkscape:zoom="0.83792155"
     inkscape:cx="582.99014"
     inkscape:cy="530.47926"
     inkscape:window-width="2494"
     inkscape:window-height="1371"
     inkscape:window-x="66"
     inkscape:window-y="32"
     inkscape:window-maximized="1"
     inkscape:current-layer="svg866"
     inkscape:snap-global="false" />
  <rect
     style="fill:#dc0000;fill-rule:evenodd;stroke-width:10;stroke-linecap:round;stroke-linejoin:round;stroke-dashoffset:19.02;fill-opacity:1"
     id="rect845"
     width="1016.1195"
     height="219.56371"
     x="-15.531845"
     y="780.17365" />
  <path
     style="fill:#040000;fill-opacity:1;fill-rule:evenodd;stroke:none;stroke-width:0.744616px;stroke-linecap:butt;stroke-linejoin:miter;stroke-opacity:1"
     d="m 537.40632,814.1631 27.6509,50.8533 92.53743,0.32645 0.84194,48.95103 -47.17624,-22.75241 -74.26351,2.44413 35.45205,21.97849 48.31746,51.58303 63.01915,-9.6467 33.28714,-58.73031 -0.0597,74.91135 -101.09188,7.50965 -58.72867,-47.35693 -64.08287,-27.49326 -135.73314,34.25175 -66.99711,-29.87922 7.04265,-37.59874 37.18514,-15.25712 -29.77951,22.68075 -3.45352,26.6252 59.91295,19.17374 48.07783,-11.28531 39.77633,-23.34746 -30.84126,-12.66143 c 0,0 -13.31249,-29.45407 -14.41019,-30.96911 -2.39196,-3.30139 2.07395,-34.79173 2.07395,-34.79173 z"
     id="path5576"
     sodipodi:nodetypes="ccccccccccccccccccccccccscc" />
  <path
     id="path948"
     style="fill:#000000;fill-rule:evenodd;stroke:none;stroke-width:1px;stroke-linecap:butt;stroke-linejoin:miter;stroke-opacity:1;fill-opacity:1"
     d="M 420.96094 19.742188 L 420.1875 25.152344 L 419.27539 21.787109 L 364.375 23.144531 L 364.75586 50.109375 L 418.5332 54.015625 L 416.9707 721.66797 L 379.00195 721.66797 L 378.5 753.4707 L 416.89062 755.53125 L 416.88672 757.13281 L 598.10547 758.52344 L 598.10547 756.44141 L 639.31055 755.54883 L 639.73242 718.41797 L 598.10547 717.4082 L 598.10547 715.56055 L 586.17188 717.94727 L 583.78516 744.20312 L 500.54492 741.81641 L 502.50586 550.97266 L 578.6582 547.82812 L 584.50391 696.0957 L 598.82422 697.28906 L 597.63086 467.4043 L 437.44336 468.3418 L 436.9375 42.699219 L 584.19727 44.123047 L 586.45898 418.61328 L 597.19922 418.61328 L 597.45703 54.904297 L 645.11328 51.28125 L 646.20312 24.318359 L 597.48047 24.318359 L 597.48047 23.324219 L 420.96094 19.742188 z "
     transform="translate(-10)" />
</svg>
