<?xml version="1.0" encoding="UTF-8" standalone="no"?>
<svg
   version="1.1"
   viewBox="-10 0 1010 1000"
   id="svg866"
   sodipodi:docname="U004C_L.svg"
   inkscape:version="1.1.2 (0a00cf5339, 2022-02-04)"
   xmlns:inkscape="http://www.inkscape.org/namespaces/inkscape"
   xmlns:sodipodi="http://sodipodi.sourceforge.net/DTD/sodipodi-0.dtd"
   xmlns="http://www.w3.org/2000/svg"
   xmlns:svg="http://www.w3.org/2000/svg">
  <defs
     id="defs870" />
  <sodipodi:namedview
     id="namedview868"
     pagecolor="#ffffff"
     bordercolor="#666666"
     borderopacity="1.0"
     inkscape:pageshadow="2"
     inkscape:pageopacity="0.0"
     inkscape:pagecheckerboard="0"
     showgrid="false"
     inkscape:zoom="1.185"
     inkscape:cx="485.65401"
     inkscape:cy="593.67089"
     inkscape:window-width="2494"
     inkscape:window-height="1371"
     inkscape:window-x="66"
     inkscape:window-y="32"
     inkscape:window-maximized="1"
     inkscape:current-layer="svg866"
     inkscape:snap-global="false" />
  <rect
     style="fill:#dc0000;fill-rule:evenodd;stroke-width:10;stroke-linecap:round;stroke-linejoin:round;stroke-dashoffset:19.02;fill-opacity:1"
     id="rect845"
     width="1016.1195"
     height="219.56371"
     x="-15.531845"
     y="780.17365" />
  <path
     style="fill:#040000;fill-opacity:1;fill-rule:evenodd;stroke:none;stroke-width:0.578687px;stroke-linecap:butt;stroke-linejoin:miter;stroke-opacity:1"
     d="m 284.05671,796.76051 -7.76592,50.91386 171.09512,36.66222 204.64584,-44.14655 -202.79908,22.68957 -88.35832,-22.82981 290.58704,-34.05949 14.77653,-19.79325 z"
     id="path5576"
     sodipodi:nodetypes="ccccccccc" />
  <path
     style="fill:#040000;fill-rule:evenodd;stroke:none;stroke-width:1px;stroke-linecap:butt;stroke-linejoin:miter;stroke-opacity:1;fill-opacity:1"
     d="m 277.40774,59.57163 1.19343,-17.901438 130.38891,1.193429 -1.57767,569.033749 269.623,1.09327 -2.46014,103.78274 -99.05462,3.58029 v -17.90144 l 79.59147,1.19343 1.19343,-76.37946 H 408.89524 l -1.19343,93.08747 -130.81656,-0.57632 -1.19343,-32.22259 60.26963,-3.58028 1.19343,-72.79918 -57.2846,-1.19343 -2.38686,-78.76633 h 114.53613 l -1.73267,-84.12284 h -51.31745 l -4.91991,-388.288415 -40.5766,1.193429 0.62243,148.117206 -13.12772,2.38686 z"
     id="path1620" />
</svg>
