<?xml version="1.0" encoding="UTF-8" standalone="no"?>
<svg
   version="1.1"
   viewBox="-10 0 1010 1000"
   id="svg866"
   sodipodi:docname="U0046_F.svg"
   inkscape:version="1.1.2 (0a00cf5339, 2022-02-04)"
   xmlns:inkscape="http://www.inkscape.org/namespaces/inkscape"
   xmlns:sodipodi="http://sodipodi.sourceforge.net/DTD/sodipodi-0.dtd"
   xmlns="http://www.w3.org/2000/svg"
   xmlns:svg="http://www.w3.org/2000/svg">
  <defs
     id="defs870" />
  <sodipodi:namedview
     id="namedview868"
     pagecolor="#ffffff"
     bordercolor="#666666"
     borderopacity="1.0"
     inkscape:pageshadow="2"
     inkscape:pageopacity="0.0"
     inkscape:pagecheckerboard="0"
     showgrid="false"
     inkscape:zoom="0.41896077"
     inkscape:cx="519.14168"
     inkscape:cy="278.06899"
     inkscape:window-width="2494"
     inkscape:window-height="1371"
     inkscape:window-x="66"
     inkscape:window-y="32"
     inkscape:window-maximized="1"
     inkscape:current-layer="svg866"
     inkscape:snap-global="false" />
  <rect
     style="fill:#dc0000;fill-rule:evenodd;stroke-width:10;stroke-linecap:round;stroke-linejoin:round;stroke-dashoffset:19.02;fill-opacity:1"
     id="rect845"
     width="1016.1195"
     height="219.56371"
     x="-15.531845"
     y="780.17365" />
  <path
     style="fill:#000000;fill-rule:evenodd;stroke:none;stroke-width:1px;stroke-linecap:butt;stroke-linejoin:miter;stroke-opacity:1;fill-opacity:1"
     d="m 595.31406,152.98037 c 10.12885,2.94855 80.45609,-0.0532 80.45609,-0.0532 l -1.25104,-108.285614 75.77306,-1.150016 -0.43435,106.97265 13.12772,-1.79014 c 0,0 5.702,-125.478673 2.71843,-125.478673 -2.98357,0 -483.69591,2.78641 -483.69591,2.78641 L 280.28285,196.79311 H 294.604 l -0.73449,-156.238881 36.39959,1.790144 5.09465,341.914397 -56.26621,-0.53098 4.46152,367.25303 152.69684,1.21834 0.19936,-134.41455 -13.72443,0.59671 1.74382,121.95726 -128.70461,0.22224 3.37724,-277.00428 c 0,0 122.21432,-5.83279 123.40775,-2.84922 1.19343,2.98358 0.59671,73.3959 0.59671,73.3959 l 15.51458,0.59671 -1.79014,-77.00113 275.4426,-1.20595 -1.9536,-79.40671 -34.21888,2.64348 -4.177,-44.15688 -75.81065,2.38686 0.59672,44.75359 -175.29387,-0.50825 -1.75554,-337.39169 175.27237,-0.951778 0.50093,91.662448 -142.21208,1.46633 -0.59671,12.531 z"
     id="path3477" />
  <path
     style="fill:#040000;fill-rule:evenodd;stroke:none;stroke-width:1px;stroke-linecap:butt;stroke-linejoin:miter;stroke-opacity:1;fill-opacity:1"
     d="m 283.7428,809.6015 1.19343,41.17327 -40.42224,-1.98973 58.18543,42.78215 7.75729,-5.37043 -32.22259,-26.25544 166.82405,-1.79014 -93.27614,40.2515 -0.40197,18.321 105.23625,38.8724 13.72443,-11.33758 -101.4701,-32.23118 -2.98358,-6.56386 107.16898,-50.84777 -45.35031,-10.74087 0.62964,-52.24031 h -13.72443 l 1.69581,51.85753 -115.77618,2.63838 -2.93087,-50.66385 z"
     id="path3931" />
</svg>
