<?xml version="1.0" encoding="UTF-8" standalone="no"?>
<svg
   version="1.1"
   viewBox="-10 0 1010 1000"
   id="svg866"
   sodipodi:docname="U004D_M.svg"
   inkscape:version="1.1.2 (0a00cf5339, 2022-02-04)"
   xmlns:inkscape="http://www.inkscape.org/namespaces/inkscape"
   xmlns:sodipodi="http://sodipodi.sourceforge.net/DTD/sodipodi-0.dtd"
   xmlns="http://www.w3.org/2000/svg"
   xmlns:svg="http://www.w3.org/2000/svg">
  <defs
     id="defs870" />
  <sodipodi:namedview
     id="namedview868"
     pagecolor="#ffffff"
     bordercolor="#666666"
     borderopacity="1.0"
     inkscape:pageshadow="2"
     inkscape:pageopacity="0.0"
     inkscape:pagecheckerboard="0"
     showgrid="false"
     inkscape:zoom="0.41896078"
     inkscape:cx="891.49157"
     inkscape:cy="793.63038"
     inkscape:window-width="2494"
     inkscape:window-height="1371"
     inkscape:window-x="66"
     inkscape:window-y="32"
     inkscape:window-maximized="1"
     inkscape:current-layer="svg866"
     inkscape:snap-global="false" />
  <rect
     style="fill:#dc0000;fill-rule:evenodd;stroke-width:10;stroke-linecap:round;stroke-linejoin:round;stroke-dashoffset:19.02;fill-opacity:1"
     id="rect845"
     width="1016.1195"
     height="219.56371"
     x="-15.531845"
     y="780.17365" />
  <path
     id="path3051"
     style="fill:#000000;fill-rule:evenodd;stroke:none;stroke-width:1px;stroke-linecap:butt;stroke-linejoin:miter;stroke-opacity:1;fill-opacity:1"
     d="M 335.05859 93.724609 L 168.4082 94.703125 L 170.08594 580.13281 L 171.21875 580.13281 L 171.01367 763.62109 L 308.02734 763.61328 L 306.49219 654.2832 L 290.03711 654.70508 L 289.42383 748.7793 L 183.12109 749.69336 L 183.875 580.13672 L 306.78516 580.16406 L 307.3418 428.28906 L 290.46484 429.55469 L 286.45508 500.11133 L 206.58594 500.81055 L 208.63867 342.60547 L 295.96875 343.83789 L 275.45117 279.69336 L 282.20117 266.61328 L 206.17773 266.19141 L 205.26953 112.29688 L 333.79297 112.29102 L 335.05859 93.724609 z M 688.9707 97.142578 L 688.12695 111.91016 L 825.15234 112.13672 L 824.45312 330.53125 L 836.26758 330.95508 L 836.26367 99.685547 L 688.9707 97.142578 z M 666.38086 133.57031 L 603.34375 297.27539 L 603.01367 290.57422 L 555.21094 420.05469 L 604.87305 419.4043 L 605.51953 564.60156 L 692.42188 342.7207 L 605.54492 342.0293 L 604.76562 326.18945 L 679.03906 137.36719 L 666.38086 133.57031 z M 368.57812 187.01562 L 361.40625 191.23633 L 415.99023 345.17969 L 373.80078 343.375 L 372.30273 266.14844 L 293.45508 265.30469 L 369.40039 483.51953 L 374.46289 424.57227 L 447.20312 425.58984 L 449.73633 651.40039 L 396.23633 519.96094 L 387.375 525.86914 L 447.90039 677.98438 L 459.29297 706.67578 L 532.10156 706.16016 L 528.65625 655.52539 L 566.20898 656.79102 L 600.44727 578.38867 L 533.58984 579.0957 L 533.4043 470.61914 L 508.71289 549.61719 L 433.87109 345.94336 L 429.18945 345.74414 L 368.57812 187.01562 z M 713.27734 250.69141 L 683.02148 320.59766 L 693.14648 323.55078 L 720.29492 266.24805 L 734.21875 267.9375 L 721.0918 323.32422 L 730.82812 328.86133 L 743.91602 271.78711 L 740.11914 254.91016 L 713.27734 250.69141 z M 717.73828 341.97266 L 708.0332 358.42773 L 710.73047 421.25977 L 765.0918 420.82617 L 766.39062 499.95898 L 838.19531 497.30078 L 838.67383 348.20898 L 717.73828 341.97266 z M 718.75 453.94336 L 703.98242 455.63086 L 703.47461 580.04688 L 704.4043 764.07031 L 838.4375 765.33789 L 838.16016 693.3125 L 828.0332 693.3125 L 829.40234 753.14453 L 715.45312 753.38867 L 715.44922 655.64844 L 834.59766 655.21289 L 834.25 516.54102 L 822.66016 517.79688 L 823.45703 578.01562 L 717.17969 579.28125 L 718.75 453.94336 z "
     transform="translate(-10)" />
  <path
     id="path3734"
     style="fill:#040000;fill-rule:evenodd;stroke:none;stroke-width:1px;stroke-linecap:butt;stroke-linejoin:miter;stroke-opacity:1;fill-opacity:1"
     d="M 235.41016 824.04102 L 223.8125 830.10156 L 245.76367 861.08398 L 218.5293 860.08203 L 195.07031 826.80078 L 183.47266 832.86133 L 202.33594 859.48438 L 176.2832 858.52539 L 176.03711 877.05078 L 215.46289 878.01172 L 239.32617 911.69141 L 253.64648 909.90039 L 231.44336 878.40234 L 258.50195 879.0625 L 279.66602 908.93164 L 293.98633 907.14062 L 274.46875 879.45117 L 300.16992 880.07812 L 324.41992 914.30078 L 338.74023 912.51172 L 316.15234 880.4668 L 336.89648 880.97266 L 357.58398 910.16992 L 371.9043 908.38086 L 352.85938 881.36328 L 378.04492 881.97656 L 398.41211 910.7207 L 412.73242 908.93164 L 394.00586 882.36523 L 421.33203 883.03125 L 441.375 911.31836 L 455.69727 909.52734 L 437.29492 883.41992 L 458.26758 883.93164 L 461.25195 869.01367 L 426.23047 867.72461 L 397.11914 826.42773 L 385.52148 832.48828 L 410.06641 867.12891 L 382.55273 866.11719 L 354.15625 825.83008 L 342.55859 831.89258 L 366.38672 865.52148 L 341.03711 864.58789 L 313.32812 825.2793 L 301.73047 831.3418 L 324.86523 863.99414 L 303.99805 863.22656 L 280.16211 829.41016 L 268.56445 835.47266 L 287.80664 862.63086 L 261.94141 861.67773 L 235.41016 824.04102 z "
     transform="translate(-10)" />
</svg>
