<?xml version="1.0" encoding="UTF-8" standalone="no"?>
<svg
   version="1.1"
   viewBox="-10 0 1010 1000"
   id="svg866"
   sodipodi:docname="U0049_I.svg"
   inkscape:version="1.1.2 (0a00cf5339, 2022-02-04)"
   xmlns:inkscape="http://www.inkscape.org/namespaces/inkscape"
   xmlns:sodipodi="http://sodipodi.sourceforge.net/DTD/sodipodi-0.dtd"
   xmlns="http://www.w3.org/2000/svg"
   xmlns:svg="http://www.w3.org/2000/svg">
  <defs
     id="defs870" />
  <sodipodi:namedview
     id="namedview868"
     pagecolor="#ffffff"
     bordercolor="#666666"
     borderopacity="1.0"
     inkscape:pageshadow="2"
     inkscape:pageopacity="0.0"
     inkscape:pagecheckerboard="0"
     showgrid="false"
     inkscape:zoom="1.6758431"
     inkscape:cx="338.63552"
     inkscape:cy="823.16776"
     inkscape:window-width="2494"
     inkscape:window-height="1371"
     inkscape:window-x="66"
     inkscape:window-y="32"
     inkscape:window-maximized="1"
     inkscape:current-layer="svg866"
     inkscape:snap-global="false" />
  <rect
     style="fill:#dc0000;fill-rule:evenodd;stroke-width:10;stroke-linecap:round;stroke-linejoin:round;stroke-dashoffset:19.02;fill-opacity:1"
     id="rect845"
     width="1016.1195"
     height="219.56371"
     x="-15.531845"
     y="780.17365" />
  <path
     style="fill:#000000;fill-opacity:1;fill-rule:evenodd;stroke:none;stroke-width:1.31592px;stroke-linecap:butt;stroke-linejoin:miter;stroke-opacity:1"
     d="m 382.89184,780.02367 121.0822,2.38686 6.19979,-84.75678 125.98594,3.03915 v -72.79918 l -132.26217,1.19343 2.6786,-428.56833 131.8955,-3.34206 -2.06659,-67.26085 H 381.43435 Z"
     id="path4909" />
  <path
     style="fill:#040000;fill-opacity:1;fill-rule:evenodd;stroke:none;stroke-width:0.744616px;stroke-linecap:butt;stroke-linejoin:miter;stroke-opacity:1"
     d="m 514.73117,824.90396 27.6509,50.8533 92.53743,0.32645 0.84194,48.95103 -47.17624,-22.75241 -74.26351,2.44413 35.45205,21.97849 48.31746,51.58303 63.01915,-9.6467 33.28714,-58.73031 -0.0597,74.91135 -101.09188,7.50965 -58.72867,-47.35693 -64.08287,-27.49326 -135.73314,34.25175 -66.99711,-29.87922 7.04265,-37.59874 37.18514,-15.25712 -29.77951,22.68075 -3.45352,26.6252 59.91295,19.17374 48.07783,-11.28531 39.77633,-23.34746 -30.84126,-12.66143 c 0,0 -13.31249,-29.45407 -14.41019,-30.96911 -2.39196,-3.30139 2.07395,-34.79173 2.07395,-34.79173 z"
     id="path5576"
     sodipodi:nodetypes="ccccccccccccccccccccccccscc" />
</svg>
