<?xml version="1.0" encoding="UTF-8" standalone="no"?>
<svg
   version="1.1"
   viewBox="-10 0 1010 1000"
   id="svg866"
   sodipodi:docname="U004A_J.svg"
   inkscape:version="1.1.2 (0a00cf5339, 2022-02-04)"
   xmlns:inkscape="http://www.inkscape.org/namespaces/inkscape"
   xmlns:sodipodi="http://sodipodi.sourceforge.net/DTD/sodipodi-0.dtd"
   xmlns="http://www.w3.org/2000/svg"
   xmlns:svg="http://www.w3.org/2000/svg">
  <defs
     id="defs870" />
  <sodipodi:namedview
     id="namedview868"
     pagecolor="#ffffff"
     bordercolor="#666666"
     borderopacity="1.0"
     inkscape:pageshadow="2"
     inkscape:pageopacity="0.0"
     inkscape:pagecheckerboard="0"
     showgrid="false"
     inkscape:zoom="0.83792155"
     inkscape:cx="667.72361"
     inkscape:cy="425.45749"
     inkscape:window-width="2494"
     inkscape:window-height="1371"
     inkscape:window-x="66"
     inkscape:window-y="32"
     inkscape:window-maximized="1"
     inkscape:current-layer="svg866"
     inkscape:snap-global="false" />
  <rect
     style="fill:#dc0000;fill-rule:evenodd;stroke-width:10;stroke-linecap:round;stroke-linejoin:round;stroke-dashoffset:19.02;fill-opacity:1"
     id="rect845"
     width="1016.1195"
     height="219.56371"
     x="-15.531845"
     y="780.17365" />
  <path
     id="path1310"
     style="fill:#000000;fill-rule:evenodd;stroke:none;stroke-width:1px;stroke-linecap:butt;stroke-linejoin:miter;stroke-opacity:1;fill-opacity:1"
     d="M 742.75586 35.939453 L 708.96875 38.357422 L 707.17969 50.888672 L 726.27344 48.501953 L 730.14258 286.44922 L 614.46289 288.70703 L 615.08789 49.269531 L 672.23438 50.462891 L 672.23438 37.333984 L 595.93555 37.523438 L 596.23242 289.0625 L 593.07812 289.125 L 596.23047 521.80664 L 592.30469 568.70117 L 575 591.97266 L 562.46875 606.29492 L 562.50586 607.83789 L 562.16602 607.63281 L 536.04492 620.62695 L 506.80664 621.82031 L 466.22852 620.62695 L 447.73047 614.66016 L 432.2168 600.93555 L 431.61914 612.27344 L 456.68164 627.78711 L 489.50195 627.78711 L 538.76172 629.54492 L 562.76953 618.59375 L 565.56445 733.01758 L 601.99219 728.61328 L 630.0293 718.95898 L 656.28516 702.84961 L 679.55664 687.93164 L 649.7207 687.93164 L 649.88477 611.0332 L 726.81055 612.42773 L 734.56836 590.34961 L 738.74609 559.91797 L 745.36523 518.30469 L 741.58203 286.22656 L 741.24805 286.23242 L 742.75586 35.939453 z M 724.6582 368.3418 L 723.87305 529.64844 L 647.48438 530.20312 L 647.83203 371.01367 L 724.6582 368.3418 z M 391.18555 550.50391 L 329.92578 589.75781 L 329.92578 611.24023 L 312.02344 610.64258 L 291.73438 623.17383 L 320.50781 658.44141 L 360.48828 694.24414 L 391.80664 720.01953 L 436.19727 732.48438 L 473.19336 740.83789 L 545.39648 739.84375 L 543.60742 727.91016 L 522.125 728.50586 L 486.32227 726.7168 L 454.09961 721.94336 L 418.89453 716.57227 L 389.05859 702.84766 L 363.39844 686.73633 L 406.28125 689.07227 L 405.50586 569.59961 L 391.18555 550.50391 z "
     transform="translate(-10)" />
  <path
     id="path1892"
     style="fill:#040000;fill-opacity:1;fill-rule:evenodd;stroke:none;stroke-width:1px;stroke-linecap:butt;stroke-linejoin:miter;stroke-opacity:1"
     d="m 659.24298,791.66465 -44.75391,1.79102 -8.61914,13.54687 -25.01367,0.55665 0.5957,20.88476 10.64844,0.19336 -18.37695,28.87891 -72.00196,-0.58008 -27.58008,-26.32031 22.74219,-0.3086 -1.78906,-20.28711 -42.98242,-0.42578 -14.91602,-14.23437 -13.6289,2.3164 c 0.62179,0 5.27229,4.64485 12.03711,11.75586 l -41.57813,-0.41211 0.59766,22.67578 60.96484,-0.82812 c 7.77552,8.44935 15.54981,16.99998 23.62109,25.88672 l -8.18554,-0.0664 4.17773,25.0625 26.63867,-0.01 c 10.07397,11.1694 17.42188,19.3496 17.42188,19.3496 l 26.85351,-1.79101 -18.41015,-17.56836 30.61719,-0.0117 -10.25782,16.12109 22.52344,12.75977 21.53711,-28.89453 21.09961,-0.008 -0.59766,-23.86719 -2.68945,-0.0215 21.21289,-28.45899 83.13867,1.51758 -1.19336,-26.25586 -64.57812,1.43945 z" />
</svg>
