<?xml version="1.0" encoding="UTF-8" standalone="no"?>
<svg
   version="1.1"
   viewBox="-10 0 1010 1000"
   id="svg866"
   sodipodi:docname="U0047_G.svg"
   inkscape:version="1.1.2 (0a00cf5339, 2022-02-04)"
   xmlns:inkscape="http://www.inkscape.org/namespaces/inkscape"
   xmlns:sodipodi="http://sodipodi.sourceforge.net/DTD/sodipodi-0.dtd"
   xmlns="http://www.w3.org/2000/svg"
   xmlns:svg="http://www.w3.org/2000/svg">
  <defs
     id="defs870" />
  <sodipodi:namedview
     id="namedview868"
     pagecolor="#ffffff"
     bordercolor="#666666"
     borderopacity="1.0"
     inkscape:pageshadow="2"
     inkscape:pageopacity="0.0"
     inkscape:pagecheckerboard="0"
     showgrid="false"
     inkscape:zoom="0.10474019"
     inkscape:cx="1541.9105"
     inkscape:cy="-377.12362"
     inkscape:window-width="2494"
     inkscape:window-height="1371"
     inkscape:window-x="66"
     inkscape:window-y="32"
     inkscape:window-maximized="1"
     inkscape:current-layer="svg866"
     inkscape:snap-global="false" />
  <rect
     style="fill:#dc0000;fill-rule:evenodd;stroke-width:10;stroke-linecap:round;stroke-linejoin:round;stroke-dashoffset:19.02;fill-opacity:1"
     id="rect845"
     width="1016.1195"
     height="219.56371"
     x="-15.531845"
     y="780.17365" />
  <path
     id="path1676"
     style="fill:#000000;fill-opacity:1;fill-rule:evenodd;stroke:none;stroke-width:0.898919px;stroke-linecap:butt;stroke-linejoin:miter;stroke-opacity:1"
     d="M 457.65234 69.650391 L 456.89453 81.041016 L 438.47852 79.376953 L 431.66016 163.31836 L 357.74609 165.92969 L 361.53516 100.62891 L 308.67188 123.80664 L 240.46289 170.125 L 256.37891 177.71875 L 258.65234 240.86914 L 259.20508 256.22852 L 393.86719 253.53711 L 430.24414 220.88672 L 495.90039 206.5957 L 561.57031 208.11328 L 633.51953 227.54492 L 638.0332 227.36133 L 638.0332 213.10352 L 634.11719 210.97461 L 635.79102 164.52148 L 543.03516 168.66602 L 536.21289 103.36523 L 635.71289 105 L 637.98633 85.257812 L 586.45117 85.257812 L 590.24219 70.072266 L 457.65234 69.650391 z M 171.48633 264.20508 L 160.11914 264.96484 L 144.89258 294.55859 L 118.31445 367.61523 C 118.31445 367.61523 109.2207 425.7819 109.2207 433.375 C 109.2207 440.96809 112.25195 482.73047 112.25195 482.73047 L 172.88086 486.52734 L 171.48633 264.20508 z M 493.08398 408.06641 L 485.94336 479.00391 L 529.14062 476.72656 L 533.6875 532.89258 L 628.24805 532.91602 L 629.76367 482.82812 L 715.9082 484.9043 L 711.26367 635.87109 L 639.61133 641.80664 L 638.85156 670.66211 L 601.7168 686.60742 C 601.7168 686.60742 540.79713 688.95117 536.25 688.95117 C 531.70288 688.95117 447.43945 679.37109 447.43945 679.37109 L 364.14844 635.11523 C 364.14844 635.11523 331.2852 586.03875 330.52734 582.24219 C 329.76949 578.44565 305.51953 500.23828 305.51953 500.23828 L 304.00391 482.01367 L 259.30469 481.07617 L 254.9375 559.31055 L 131.9043 557.79297 L 140.24219 597.27539 L 160.70508 632.20312 L 253.78125 635.30859 L 251.50781 709.72266 L 218.16211 713.51758 L 244.6875 740.09375 C 244.6875 740.09375 295.46272 768.94771 298.49414 769.70703 C 301.52555 770.46634 346.23828 794.00391 346.23828 794.00391 L 353.66797 709.1543 L 438.96484 715.27734 L 440.28125 817.36719 L 534.04492 819.69727 L 534.10156 714.74219 L 616.70703 713.98242 L 622.00977 811.6543 L 677.7207 801.29492 L 718.64648 782.3125 L 720.91992 717.01367 L 800.6582 712.9707 L 803.09961 411.10352 L 493.08398 408.06641 z "
     transform="translate(-10)" />
  <path
     style="fill:#040000;fill-opacity:1;fill-rule:evenodd;stroke:none;stroke-width:0.744616px;stroke-linecap:butt;stroke-linejoin:miter;stroke-opacity:1"
     d="m 563.84352,895.61512 219.40282,-43.56854 0.52982,41.02385 -14.00159,62.9895 -160.39177,15.5872 136.29488,-40.2424 4.76191,-32.65008 -185.23886,40.937 -85.40782,1.70663 -53.45799,10.47612 118.22037,20.74708 -149.16662,18.57258 -142.39293,-21.94817 126.24859,-18.49472 -19.8045,-33.00149 -110.36743,-64.72365 149.6605,38.31224 z"
     id="path5576"
     sodipodi:nodetypes="cccccccccccccccccc" />
</svg>
