<?xml version="1.0" encoding="UTF-8" standalone="no"?>
<svg
   version="1.1"
   viewBox="-10 0 1010 1000"
   id="svg866"
   sodipodi:docname="U0043_ะก.svg"
   inkscape:version="1.1.2 (0a00cf5339, 2022-02-04)"
   xmlns:inkscape="http://www.inkscape.org/namespaces/inkscape"
   xmlns:sodipodi="http://sodipodi.sourceforge.net/DTD/sodipodi-0.dtd"
   xmlns="http://www.w3.org/2000/svg"
   xmlns:svg="http://www.w3.org/2000/svg">
  <defs
     id="defs870" />
  <sodipodi:namedview
     id="namedview868"
     pagecolor="#ffffff"
     bordercolor="#666666"
     borderopacity="1.0"
     inkscape:pageshadow="2"
     inkscape:pageopacity="0.0"
     inkscape:pagecheckerboard="0"
     showgrid="false"
     inkscape:zoom="0.83792154"
     inkscape:cx="573.44271"
     inkscape:cy="590.15072"
     inkscape:window-width="2494"
     inkscape:window-height="1371"
     inkscape:window-x="66"
     inkscape:window-y="32"
     inkscape:window-maximized="1"
     inkscape:current-layer="svg866"
     inkscape:snap-global="false" />
  <rect
     style="fill:#dc0000;fill-rule:evenodd;stroke-width:10;stroke-linecap:round;stroke-linejoin:round;stroke-dashoffset:19.02;fill-opacity:1"
     id="rect845"
     width="1016.1195"
     height="219.56371"
     x="-15.531845"
     y="780.17365" />
  <path
     style="fill:#040000;fill-opacity:1;fill-rule:evenodd;stroke:none;stroke-width:0.744616px;stroke-linecap:butt;stroke-linejoin:miter;stroke-opacity:1"
     d="m 365.38665,798.47888 16.22248,40.35407 -43.58223,39.46843 35.45205,21.97849 53.68789,21.7473 22.46469,-3.44765 67.90211,-93.44688 61.83127,15.18941 60.06277,42.89162 -26.97191,48.92826 4.8549,-49.57272 -86.54065,-37.30955 -48.36345,80.31498 -52.49012,11.09324 -155.73423,-34.93434 c -0.22222,-0.0498 -8.19109,-68.4056 -8.19109,-68.4056 l 36.55119,-47.55791 z"
     id="path5576"
     sodipodi:nodetypes="ccccccccccccccsccc" />
  <path
     id="path948"
     style="fill:#000000;fill-rule:evenodd;stroke:none;stroke-width:1px;stroke-linecap:butt;stroke-linejoin:miter;stroke-opacity:1;fill-opacity:1"
     d="M 472.27734 118.92188 L 472.26758 122.3457 L 439.68945 125.44922 L 419.43555 136.41797 L 420.2793 150.76562 L 472.22266 138.66797 L 472.02539 210.13867 L 443.33398 224.48438 L 402.07617 249.25977 L 373.4375 291.41602 L 359.93555 312.51367 L 342.21484 313.35742 L 343.62695 196.17383 L 392.00391 162.83398 L 392.00391 145.11133 C 392.00391 145.11133 356.45403 168.81126 343.85742 177.0293 L 343.90234 173.33008 L 311.39453 199.85742 L 290.29688 227.70508 L 259.33594 277.76562 L 243.30078 311.51953 L 271.99414 312.36328 L 274.98047 458.38867 L 229.48633 457.54492 L 232.01758 487.54883 L 238.83984 539.31055 L 256.56055 584.88086 L 272.59375 620.32422 L 272.80273 612.35547 L 284.77148 634.01367 L 312.61914 666.92578 L 336.24805 690.55469 L 359.87695 704.90039 L 398.9082 722.8418 L 435.19531 738.03125 L 468.10742 747.31445 L 511.71875 748.23047 L 548.00391 745.69922 L 582.60352 733.88477 L 609.60742 721.22656 L 652.93555 699.35156 L 647.66992 686.67188 L 615.60156 707.76953 L 583.53516 722.11523 L 555.68555 728.86719 L 446.91602 731.14453 L 430.88281 723.54883 L 381.57227 705.98438 L 361.32031 698.38867 L 333.7168 673.67578 L 309.24414 646.67188 L 284.77148 611.22852 L 273.51758 585.16797 L 274.99414 529.02344 L 350.10156 528.17969 L 377.94922 589.7832 L 414.99023 635.21094 L 461.40234 651.24609 L 517.86328 657.97461 L 552.16992 652.7168 L 601.03516 624.15039 L 630.62305 599.05469 L 671.97266 643.7793 L 673.66016 680.06641 L 699.82031 656.4375 L 630.57031 583.71875 L 582.47656 622.82031 L 552.26367 640.44336 L 511.75781 646.35156 L 458.05664 637.75 L 414.64648 612.07031 L 384.26758 577.4707 L 368.22656 529.85742 L 358.94336 506.22852 L 348.81641 486.82031 L 353.42188 457.66406 L 336.54297 457.66406 L 338.23242 382.55859 L 349.20117 379.18359 L 366.86328 322.21484 L 378.67773 300.27539 L 393.86719 274.11523 L 420.87109 250.48633 L 452.31445 231.46484 L 478.47461 223.87109 L 541.50195 223.87109 L 557.96484 230.21875 L 588.07812 244.50391 L 622.83203 270.29883 L 683.5918 193.50586 L 654.89844 165.65625 L 625.54297 144.9043 L 602.75781 138.15234 L 601.23047 175.69336 L 652.44531 178.68359 L 670.16602 193.87305 L 617.8457 247.03711 L 601.81055 234.37891 L 572.41797 218.70117 L 539.92383 207.73047 L 541.55664 120.24609 L 472.27734 118.92188 z "
     transform="translate(-10)" />
</svg>
