<?xml version="1.0" encoding="UTF-8" standalone="no"?>
<svg
   version="1.1"
   viewBox="-10 0 1010 1000"
   id="svg866"
   sodipodi:docname="U0044_D.svg"
   inkscape:version="1.1.2 (0a00cf5339, 2022-02-04)"
   xmlns:inkscape="http://www.inkscape.org/namespaces/inkscape"
   xmlns:sodipodi="http://sodipodi.sourceforge.net/DTD/sodipodi-0.dtd"
   xmlns="http://www.w3.org/2000/svg"
   xmlns:svg="http://www.w3.org/2000/svg">
  <defs
     id="defs870" />
  <sodipodi:namedview
     id="namedview868"
     pagecolor="#ffffff"
     bordercolor="#666666"
     borderopacity="1.0"
     inkscape:pageshadow="2"
     inkscape:pageopacity="0.0"
     inkscape:pagecheckerboard="0"
     showgrid="false"
     inkscape:zoom="0.5925"
     inkscape:cx="53.164557"
     inkscape:cy="473.41772"
     inkscape:window-width="2494"
     inkscape:window-height="1371"
     inkscape:window-x="66"
     inkscape:window-y="32"
     inkscape:window-maximized="1"
     inkscape:current-layer="svg866"
     inkscape:snap-global="false" />
  <rect
     style="fill:#dc0000;fill-rule:evenodd;stroke-width:10;stroke-linecap:round;stroke-linejoin:round;stroke-dashoffset:19.02;fill-opacity:1"
     id="rect845"
     width="1016.1195"
     height="219.56371"
     x="-15.531845"
     y="780.17365" />
  <path
     id="path1765"
     style="fill:#040000;fill-opacity:1;fill-rule:evenodd;stroke:none;stroke-width:1.03461px;stroke-linecap:butt;stroke-linejoin:miter;stroke-opacity:1"
     d="m 376.45108,792.06912 107.40263,10.26953 -0.63765,39.38282 46.75933,30.69531 -45.12235,38.4082 26.83341,29.38281 -59.48927,-3.74609 -16.60806,23.86914 -21.07788,-36.40039 -58.76171,5.37109 37.68385,-32.22265 -76.55309,-23.89453 23.43402,-2.20508 -48.41722,-24.65039 -66.63352,37.61326 -18.24401,67.40233 25.31621,14.43766 47.8527,-50.8714 -15.76971,36.90568 53.41323,-0.37475 -90.58877,26.84213 -35.0087,-22.07967 18.98485,-81.68744 87.38869,-38.82061 62.93882,33.2871 37.55005,-3.5332 -74.29938,-55.96094 87.23419,34.875 z"
     sodipodi:nodetypes="ccccccccccccccccccccccccccccc" />
  <path
     id="path2262"
     style="fill:#000000;fill-rule:evenodd;stroke:none;stroke-width:1px;stroke-linecap:butt;stroke-linejoin:miter;stroke-opacity:1;fill-opacity:1"
     d="M 465.48438 50.488281 L 231.54883 53.404297 L 233.23633 233.15039 L 241.67578 232.30664 L 241.11914 104.96484 L 381.75977 106.45312 L 385.98047 167.21289 L 465.62891 165.75977 L 465.48438 50.488281 z M 509.92969 55.660156 L 510.77344 72.539062 L 576.5957 87.728516 L 624.5625 114.32617 L 687.56445 156.92969 L 698.53516 170.43164 L 685.0332 183.93359 L 529.86133 183.59766 L 582.81445 224.25781 L 606.94531 263.76953 L 622.13477 262.92578 L 616.22852 294.99414 L 630.57422 327.06055 L 634.15039 378.01953 L 635.83984 436.24805 L 629.08789 477.59766 L 601.50195 528.12695 L 571.96484 577.5332 L 550.86719 593.56836 L 621.75391 594.41211 L 619.22266 515.08594 L 699.25 515.00977 L 696.2793 626.7168 L 624.54102 680.69531 L 572.66992 709.93359 L 519.50391 720.9043 L 522.03711 737.78125 L 604.09766 719.64844 L 657.60938 684.42578 L 698.66406 648.45508 L 723.98047 611.32422 L 754.70703 552.06836 L 774.44922 477.30664 L 776.98047 433.42578 L 696.21094 432.0625 L 695.83203 341.60352 L 778.03906 344.13477 L 768.02148 287.89648 L 762.11523 263.42383 L 696.89844 264.75586 L 697.33203 184.18359 L 715.89844 170.68164 L 690.58203 142.83398 L 636.04688 95.960938 L 586.25781 73.175781 L 509.92969 55.660156 z M 376.16211 261.91992 L 234.95703 261.99609 L 233.7793 550.46094 L 245.34375 553.875 L 245.34375 509.14844 L 364.07617 510.86328 L 364.50391 614.04883 L 373.78516 613.20508 L 377.63477 514.10547 L 372.57031 397.65039 L 364.97656 398.49414 L 364.97656 434.78125 L 310.9668 432.24805 L 312.6543 343.64062 L 376.16211 344.47852 L 376.16211 261.91992 z M 247.16406 575.13281 L 234.50586 578.50977 L 237.26172 753.24805 L 465.73633 750.15039 L 464.09961 649.27148 L 523.06836 622.63867 L 522.22461 615.04297 L 464.21289 638.49805 L 389.10742 637.6543 L 385.98242 742.42773 L 243.07227 739.89648 L 247.16406 575.13281 z "
     transform="translate(-10)" />
</svg>
