<?xml version="1.0" encoding="UTF-8" standalone="no"?>
<svg
   version="1.1"
   viewBox="-10 0 1010 1000"
   id="svg866"
   sodipodi:docname="U004E_N.svg"
   inkscape:version="1.1.2 (0a00cf5339, 2022-02-04)"
   xmlns:inkscape="http://www.inkscape.org/namespaces/inkscape"
   xmlns:sodipodi="http://sodipodi.sourceforge.net/DTD/sodipodi-0.dtd"
   xmlns="http://www.w3.org/2000/svg"
   xmlns:svg="http://www.w3.org/2000/svg">
  <defs
     id="defs870" />
  <sodipodi:namedview
     id="namedview868"
     pagecolor="#ffffff"
     bordercolor="#666666"
     borderopacity="1.0"
     inkscape:pageshadow="2"
     inkscape:pageopacity="0.0"
     inkscape:pagecheckerboard="0"
     showgrid="false"
     inkscape:zoom="1.185"
     inkscape:cx="496.62447"
     inkscape:cy="475.52743"
     inkscape:window-width="2494"
     inkscape:window-height="1371"
     inkscape:window-x="66"
     inkscape:window-y="32"
     inkscape:window-maximized="1"
     inkscape:current-layer="svg866"
     inkscape:snap-global="false" />
  <rect
     style="fill:#dc0000;fill-rule:evenodd;stroke-width:10;stroke-linecap:round;stroke-linejoin:round;stroke-dashoffset:19.02;fill-opacity:1"
     id="rect845"
     width="1016.1195"
     height="219.56371"
     x="-15.531845"
     y="780.17365" />
  <path
     style="fill:#040000;fill-opacity:1;fill-rule:evenodd;stroke:none;stroke-width:0.65589px;stroke-linecap:butt;stroke-linejoin:miter;stroke-opacity:1"
     d="m 223.72312,823.97896 -12.58679,40.35407 33.81483,39.46843 -27.50674,21.97849 -41.65565,21.7473 -17.43003,-3.44765 0.35095,-21.71692 -49.91925,4.05755 30.46774,6.93297 11.17851,20.16255 23.2187,8.65221 c 0,0 114.66153,-44.79214 163.39104,-72.90902 0,0 10.32898,-29.45407 11.18066,-30.96911 1.85589,-3.30139 -1.60914,-34.79173 -1.60914,-34.79173 z"
     id="path5576"
     sodipodi:nodetypes="cccccccccccsscc" />
  <path
     style="fill:#040000;fill-opacity:1;fill-rule:evenodd;stroke:none;stroke-width:0.665174px;stroke-linecap:butt;stroke-linejoin:miter;stroke-opacity:1"
     d="m 762.71055,818.30468 12.9456,40.35407 -34.77876,39.46843 28.29085,21.97849 42.84311,21.7473 17.92687,-3.44765 -0.36094,-21.71692 42.4735,-0.69431 -30.72588,10.41901 -0.73858,18.55767 -26.38078,11.52291 c 0,0 -117.93013,-44.79214 -168.04875,-72.90902 0,0 -10.62341,-29.45407 -11.49936,-30.96911 -1.90881,-3.30139 1.655,-34.79173 1.655,-34.79173 z"
     id="path5576-3"
     sodipodi:nodetypes="cccccccccccsscc" />
  <path
     id="path8142"
     style="fill:#000000;fill-rule:evenodd;stroke:none;stroke-width:1px;stroke-linecap:butt;stroke-linejoin:miter;stroke-opacity:1;fill-opacity:1"
     d="M 769.58594 57.832031 L 633.44531 57.869141 L 636.82031 75.589844 L 739.06445 76.435547 L 743.28516 156.60352 L 632.5293 151.89648 L 633.37305 237.97266 L 664.59766 238.81641 C 664.59766 238.81641 664.69922 397.36861 664.69922 400.74414 C 664.69922 404.11967 634.91211 402.75391 634.91211 402.75391 L 646.97852 592.39258 L 584.26953 454.07617 L 584.23438 475.79492 C 563.09226 433.71401 515.56445 340.22852 515.56445 340.22852 L 515.56445 374.83789 L 584.17969 510.36328 L 583.86914 704.81055 L 624.05664 769.99219 L 663.88477 770.01172 L 665.57227 734.56836 L 739.83398 732.03711 L 742.36523 772.54297 L 766.83789 773.38672 L 767.16797 647.99609 L 766.05273 648.04297 C 766.00045 599.07033 765.9082 512.53711 765.9082 512.53711 L 749.19922 511.94141 L 749.3457 648.74414 L 666.74414 652.21484 L 663.9668 486.81055 L 738.18164 488.09375 L 742.9082 240.04688 L 764.00586 240.89062 L 769.58594 57.832031 z M 280.05859 59.324219 L 221.83008 60.167969 L 224.33203 485.07031 L 228.63086 485.21094 L 225.7832 580.3125 L 223.65039 580.28516 L 224.30469 629.71875 L 220.15625 768.31055 L 272.01172 771.19141 L 271.93164 771.76172 C 271.93164 771.76172 358.00586 775.981 358.00586 772.60547 C 358.00586 769.22995 359.69531 732.09961 359.69531 732.09961 L 277.5 732.49805 L 273.83984 758.30664 L 230.89844 755.18359 L 234.91016 649.86523 L 356.37891 650.80273 L 353.00195 581.97266 L 237.55273 580.4668 L 241.16406 485.62305 L 275.80859 486.75781 L 276.02539 154.68945 L 418.80469 158.91016 L 364.09375 62.701172 L 357.3418 77.046875 L 279.21484 75.359375 L 280.05859 59.324219 z M 427.71289 173.72656 L 427.38672 409.66797 L 497.42969 540.4707 L 497.51953 534.65039 L 563.02734 664.07617 L 570.34766 644.66016 L 498.02148 502.20703 L 501.03516 307.66797 L 427.71289 173.72656 z M 343.80273 232.17188 L 322.91797 232.76758 L 340.61133 387.00195 L 337.53516 545.75977 L 348.54883 542.04492 C 348.54883 542.04492 350.82227 388.94154 350.82227 386.55469 C 350.82227 384.16783 334.51172 244.91602 334.51172 244.91602 L 353.92383 269.24219 L 400.20703 383.99609 L 409.15625 381.01367 L 343.80273 232.17188 z "
     transform="translate(-10)" />
</svg>
