<?xml version="1.0" encoding="UTF-8" standalone="no"?>
<svg
   version="1.1"
   viewBox="-10 0 1010 1000"
   id="svg866"
   sodipodi:docname="U0042_B.svg"
   inkscape:version="1.1.2 (0a00cf5339, 2022-02-04)"
   xmlns:inkscape="http://www.inkscape.org/namespaces/inkscape"
   xmlns:sodipodi="http://sodipodi.sourceforge.net/DTD/sodipodi-0.dtd"
   xmlns="http://www.w3.org/2000/svg"
   xmlns:svg="http://www.w3.org/2000/svg">
  <defs
     id="defs870" />
  <sodipodi:namedview
     id="namedview868"
     pagecolor="#ffffff"
     bordercolor="#666666"
     borderopacity="1.0"
     inkscape:pageshadow="2"
     inkscape:pageopacity="0.0"
     inkscape:pagecheckerboard="0"
     showgrid="false"
     inkscape:zoom="0.5925"
     inkscape:cx="1182.2785"
     inkscape:cy="1094.5148"
     inkscape:window-width="2494"
     inkscape:window-height="1371"
     inkscape:window-x="66"
     inkscape:window-y="32"
     inkscape:window-maximized="1"
     inkscape:current-layer="svg866"
     inkscape:snap-global="false" />
  <rect
     style="fill:#dc0000;fill-rule:evenodd;stroke-width:10;stroke-linecap:round;stroke-linejoin:round;stroke-dashoffset:19.02;fill-opacity:1"
     id="rect845"
     width="1016.1195"
     height="219.56371"
     x="-15.531845"
     y="780.17365" />
  <path
     style="fill:#040000;fill-opacity:1;fill-rule:evenodd;stroke:none;stroke-width:0.744616px;stroke-linecap:butt;stroke-linejoin:miter;stroke-opacity:1"
     d="m 358.569,823.97896 16.22248,40.35407 -43.58223,39.46843 35.45205,21.97849 53.68789,21.7473 22.46469,-3.44765 -0.45232,-21.71692 256.70689,0.32181 -223.47953,28.39023 -52.49012,11.09324 c 0,0 -147.78152,-44.79214 -210.58655,-72.90902 0,0 -13.31249,-29.45407 -14.41019,-30.96911 -2.39196,-3.30139 2.07395,-34.79173 2.07395,-34.79173 z"
     id="path5576"
     sodipodi:nodetypes="ccccccccccsscc" />
  <path
     id="path7166"
     style="fill:#000000;fill-rule:evenodd;stroke:none;stroke-width:1px;stroke-linecap:butt;stroke-linejoin:miter;stroke-opacity:1;fill-opacity:1"
     d="M 281.38672 55.642578 L 280.60547 191.36523 L 214.9668 193.75195 L 218.03125 275.43359 L 284.9043 276.62891 L 286.79688 447.98633 L 211.5 449.86523 L 217.86719 528.13672 L 369.54102 527.13281 L 376.37305 56.835938 L 281.38672 55.642578 z M 548.51367 56.759766 L 462.91797 56.796875 L 464.01172 166.70312 L 515.33008 171.47656 L 548.74609 182.2168 L 548.51367 56.759766 z M 662.91602 94.728516 L 665.44727 180.80469 L 757.99219 184.07227 L 747.02148 146.09766 L 713.26758 118.25 L 662.91602 94.728516 z M 723.21289 279.11523 L 721.88867 352.83008 L 754.11133 314.63867 L 761.27148 282.41602 L 723.21289 279.11523 z M 543.30273 341.01172 L 495.56641 356.52734 L 377.21289 355.35938 L 376.01953 374.45312 L 547.42578 374.98242 L 543.30273 341.01172 z M 630.96484 363.36133 L 629.51758 441.30273 L 487.86719 440.83984 L 487.86719 455.16016 L 607.21094 480.22266 L 643.01367 518.41211 L 646.40625 591.875 L 616.57031 647.9668 L 533.20508 671.60547 L 374.46289 672.99414 L 375.65625 702.83008 C 375.65625 702.83008 755.11886 701.39251 759.89258 702.58594 C 764.6663 703.77937 783.76172 652.46289 783.76172 652.46289 L 805.24414 617.85352 L 721.70312 622.62695 L 720.30273 449.04297 L 757.29883 447.84961 L 735.81836 426.36719 L 657.99219 402.95508 L 655.60547 392.21484 L 679.47266 385.05469 L 708.53906 363.36133 L 630.96484 363.36133 z M 216.72852 636.31445 L 212.30273 788.98828 C 212.30273 788.98828 277.24934 784.84531 281.46875 787.37695 C 285.68815 789.9086 283.0957 638.9668 283.0957 638.9668 L 216.72852 636.31445 z "
     transform="translate(-10)" />
</svg>
