<?xml version="1.0" encoding="UTF-8" standalone="no"?>
<svg
   version="1.1"
   viewBox="-10 0 1010 1000"
   id="svg866"
   sodipodi:docname="U0054_T.svg"
   inkscape:version="1.1.2 (0a00cf5339, 2022-02-04)"
   xmlns:inkscape="http://www.inkscape.org/namespaces/inkscape"
   xmlns:sodipodi="http://sodipodi.sourceforge.net/DTD/sodipodi-0.dtd"
   xmlns="http://www.w3.org/2000/svg"
   xmlns:svg="http://www.w3.org/2000/svg">
  <defs
     id="defs870" />
  <sodipodi:namedview
     id="namedview868"
     pagecolor="#ffffff"
     bordercolor="#666666"
     borderopacity="1.0"
     inkscape:pageshadow="2"
     inkscape:pageopacity="0.0"
     inkscape:pagecheckerboard="0"
     showgrid="false"
     inkscape:zoom="0.5925"
     inkscape:cx="287.76371"
     inkscape:cy="414.34599"
     inkscape:window-width="2494"
     inkscape:window-height="1371"
     inkscape:window-x="66"
     inkscape:window-y="32"
     inkscape:window-maximized="1"
     inkscape:current-layer="svg866"
     inkscape:snap-global="false" />
  <rect
     style="fill:#dc0000;fill-rule:evenodd;stroke-width:10;stroke-linecap:round;stroke-linejoin:round;stroke-dashoffset:19.02;fill-opacity:1"
     id="rect845"
     width="1016.1195"
     height="219.56371"
     x="-15.531845"
     y="780.17365" />
  <path
     style="fill:#000000;fill-opacity:1;fill-rule:evenodd;stroke:none;stroke-width:0.924036px;stroke-linecap:butt;stroke-linejoin:miter;stroke-opacity:1"
     d="m 454.1211,734.81288 1.68787,30.26278 148.99459,-0.13105 -5.06329,-30.26279 -45.56962,4.32326 3.37553,-74.9364 42.19409,-2.88217 6.75106,-77.81858 -48.94515,-2.88217 -1.68777,-87.90616 -75.94936,1.44107 3.76677,-329.36979 309.21862,-0.68241 -5.06329,-85.024 -163.5122,2.02631 5.06329,-33.144949 h -74.2616 L 553.43287,76.64753 404.49998,79.52969 402.81222,49.266917 320.84319,46.384747 315.7799,88.1762 275.27357,82.41186 v 76.37749 l 182.25386,6.27559 2.08498,411.34947 16.87764,1.44108 2.34704,158.01525 z"
     id="path1925" />
  <path
     style="fill:#040000;fill-opacity:1;fill-rule:evenodd;stroke:none;stroke-width:0.744616px;stroke-linecap:butt;stroke-linejoin:miter;stroke-opacity:1"
     d="m 605.82125,830.72399 -40.53568,30.35094 42.41217,20.12971 -29.23624,29.34185 22.92104,20.18835 64.53114,21.00579 24.15245,-0.916 -0.45232,-21.71692 32.50225,-100.72691 2.71899,46.09779 -18.1114,64.29366 16.11752,19.0475 -373.425,5.95018 159.48532,-24.76992 -94.26022,-16.39849 77.3301,-36.41342 -52.46003,-4.95204 38.65004,-25.53876 -31.11931,-6.6962 0.38619,-18.75797 z"
     id="path5576"
     sodipodi:nodetypes="ccccccccccccccccccccc" />
</svg>
