<?xml version="1.0" encoding="UTF-8" standalone="no"?>
<svg
   version="1.1"
   viewBox="-10 0 1010 1000"
   id="svg866"
   sodipodi:docname="U0059_Y.svg"
   inkscape:version="1.1.2 (0a00cf5339, 2022-02-04)"
   xmlns:inkscape="http://www.inkscape.org/namespaces/inkscape"
   xmlns:sodipodi="http://sodipodi.sourceforge.net/DTD/sodipodi-0.dtd"
   xmlns="http://www.w3.org/2000/svg"
   xmlns:svg="http://www.w3.org/2000/svg">
  <defs
     id="defs870" />
  <sodipodi:namedview
     id="namedview868"
     pagecolor="#ffffff"
     bordercolor="#666666"
     borderopacity="1.0"
     inkscape:pageshadow="2"
     inkscape:pageopacity="0.0"
     inkscape:pagecheckerboard="0"
     showgrid="false"
     inkscape:zoom="0.29625"
     inkscape:cx="899.57805"
     inkscape:cy="929.9578"
     inkscape:window-width="2494"
     inkscape:window-height="1371"
     inkscape:window-x="66"
     inkscape:window-y="32"
     inkscape:window-maximized="1"
     inkscape:current-layer="svg866"
     inkscape:snap-global="false" />
  <rect
     style="fill:#dc0000;fill-opacity:1;fill-rule:evenodd;stroke-width:10;stroke-linecap:round;stroke-linejoin:round;stroke-dashoffset:19.02"
     id="rect845"
     width="1016.1195"
     height="219.56371"
     x="-15.531845"
     y="781.01752" />
  <path
     id="path4205"
     style="fill:#000000;fill-rule:evenodd;stroke:none;stroke-width:1px;stroke-linecap:butt;stroke-linejoin:miter;stroke-opacity:1;fill-opacity:1"
     d="M 363.0293 82.740234 L 225.50586 83.503906 L 270.56641 179.25586 L 277.16797 191.14258 L 282.23242 118.56836 L 346.7168 117.72461 L 343.54102 270.74219 L 423.70898 270.74219 L 421.02148 473.0293 L 336.45703 287.40625 L 323.79883 297.5332 L 421.00977 493 L 421.08984 580.66211 L 487.75781 578.97266 L 489.43945 423.18359 L 590.32227 424.38477 L 630.46875 346.31055 L 628.92773 346.29883 L 630.80859 344.73438 L 718.59766 164.08789 L 706.7832 163.24414 L 604.66016 346.12891 L 514.64258 345.49805 L 488.48242 391.06836 L 363.0293 82.740234 z M 614.38281 83.322266 L 600.03711 115.39062 L 523.13477 314.31641 L 535.79297 313.47266 L 619.48047 119.55078 L 706.70117 114.87305 L 705.01172 86.181641 L 614.38281 83.322266 z M 540.89258 499.78906 L 539.60742 660.86719 L 421.51758 660.02344 L 420.63477 735.34766 L 484.77148 734.50391 L 485.61523 752.22656 L 558.1875 753.07031 L 555.95117 501.71094 L 540.89258 499.78906 z "
     transform="translate(-10)" />
  <path
     style="fill:#000000;fill-rule:evenodd;stroke:none;stroke-width:1px;stroke-linecap:butt;stroke-linejoin:miter;stroke-opacity:1;fill-opacity:1"
     d="m 415.82307,816.97704 -1.68776,40.50633 28.69198,1.68776 1.68776,-33.75527 12.65823,0.84388 0.84388,32.91139 h 32.9114 l -1.68777,-38.81856 26.16034,2.53164 0.84388,92.82701 31.22363,-3.37553 -1.8291,-105.90367 -131.7423,-1.68776 z"
     id="path4523" />
</svg>
