<?xml version="1.0" encoding="UTF-8" standalone="no"?>
<svg
   version="1.1"
   viewBox="-10 0 1010 1000"
   id="svg866"
   sodipodi:docname="U0052_R.svg"
   inkscape:version="1.1.2 (0a00cf5339, 2022-02-04)"
   xmlns:inkscape="http://www.inkscape.org/namespaces/inkscape"
   xmlns:sodipodi="http://sodipodi.sourceforge.net/DTD/sodipodi-0.dtd"
   xmlns="http://www.w3.org/2000/svg"
   xmlns:svg="http://www.w3.org/2000/svg">
  <defs
     id="defs870" />
  <sodipodi:namedview
     id="namedview868"
     pagecolor="#ffffff"
     bordercolor="#666666"
     borderopacity="1.0"
     inkscape:pageshadow="2"
     inkscape:pageopacity="0.0"
     inkscape:pagecheckerboard="0"
     showgrid="false"
     inkscape:zoom="1.185"
     inkscape:cx="352.32067"
     inkscape:cy="398.73418"
     inkscape:window-width="2494"
     inkscape:window-height="1371"
     inkscape:window-x="66"
     inkscape:window-y="32"
     inkscape:window-maximized="1"
     inkscape:current-layer="svg866"
     inkscape:snap-global="false" />
  <rect
     style="fill:#dc0000;fill-rule:evenodd;stroke-width:10;stroke-linecap:round;stroke-linejoin:round;stroke-dashoffset:19.02;fill-opacity:1"
     id="rect845"
     width="1016.1195"
     height="219.56371"
     x="-15.531845"
     y="780.17365" />
  <path
     style="fill:#040000;fill-opacity:1;fill-rule:evenodd;stroke:none;stroke-width:0.578687px;stroke-linecap:butt;stroke-linejoin:miter;stroke-opacity:1"
     d="m 250.99024,793.18022 -7.76592,50.91386 20.86339,49.79647 -16.97136,27.72979 -25.7011,27.4381 -10.75414,-4.34982 0.21652,-27.39978 -122.888941,0.40602 106.982581,35.81935 25.12771,13.9961 c 0,0 70.74495,-56.51328 100.81054,-91.98774 0,0 6.37287,-37.16157 6.89836,-39.07306 1.14505,-4.1653 -0.99284,-43.89598 -0.99284,-43.89598 z"
     id="path5576"
     sodipodi:nodetypes="ccccccccccsscc" />
  <path
     style="fill:#040000;fill-opacity:1;fill-rule:evenodd;stroke:none;stroke-width:0.35078px;stroke-linecap:butt;stroke-linejoin:miter;stroke-opacity:1"
     d="m 634.98344,793.7246 5.63816,25.76756 -15.14709,25.20206 12.32142,14.03408 18.65933,13.88645 7.80764,-2.20145 -0.15719,-13.86705 89.21897,0.20549 -77.67075,18.12821 -18.24304,7.08345 c 0,0 -51.36174,-28.60144 -73.18976,-46.55511 0,0 -4.62678,-18.80752 -5.0083,-19.77493 -0.83132,-2.10806 0.72081,-22.21581 0.72081,-22.21581 z"
     id="path5576-3"
     sodipodi:nodetypes="ccccccccccsscc" />
  <path
     id="path974"
     style="fill:#000000;fill-opacity:1;fill-rule:evenodd;stroke:none;stroke-width:1.13239px;stroke-linecap:butt;stroke-linejoin:miter;stroke-opacity:1"
     d="M 213.73633 55.931641 L 218.03906 408.20508 L 217.54688 408.19727 L 217.54688 490.25781 L 323.44141 487.56836 C 323.44141 487.56836 315.29604 566.9375 320.72656 566.9375 C 326.1571 566.9375 245.56836 569.10547 245.56836 569.10547 L 249.61719 734.13086 L 232.24805 731.86523 L 232.06641 515.9668 L 219.4082 513.43555 L 215.45117 727.92188 L 217.36133 729.92188 L 215.41797 729.66992 L 215.45117 727.92188 L 214.53906 726.9668 L 215.16211 729.63477 L 215.11133 729.62891 L 221.89844 753.84375 L 326.4375 748.46094 L 325.08008 648.91406 L 354.94531 650.25977 C 354.94531 650.25977 344.63762 483.75 351.42578 483.75 C 358.21395 483.75 398.94337 485.0957 398.94336 485.0957 L 401.6582 399 L 550.01172 401.68945 L 545.9375 482.4043 L 571.36719 483.8457 L 618.25391 567.31445 L 542.43945 566.24219 L 544.47461 626.74805 L 459.1582 473.9043 L 428.42383 473.9043 L 429.26758 483.1875 L 453.74023 484.875 L 537.19727 646.95703 L 535.65234 646.95703 L 586.28516 748.56836 L 625.65625 749.91406 L 627.01367 653.05664 L 666.91992 653.95703 L 719.41406 747.41406 L 746.56641 747.41406 L 643.17383 577.64453 L 637.47266 567.58789 L 637.04688 567.58008 L 586.57422 484.70508 L 593.45508 485.0957 L 578.51953 458.19141 L 628.70312 446.47266 L 665.35938 414.18555 L 623.27344 402.08008 L 629.03125 249.45508 L 713.20703 245.41992 L 707.77539 218.51562 L 700.98633 176.8125 L 694.19922 167.39648 L 553.00391 167.39648 L 551.64648 184.88477 L 565.22461 203.7168 L 581.51562 248.11133 L 580.1582 285.77734 L 559.79492 326.13477 L 521.78125 366.49219 L 468.83203 375.91211 L 394.16211 375.91211 L 354.79102 375.91211 L 358.86328 330.16992 L 316.77734 330.16992 L 322.20703 409.54297 L 236.17969 408.4375 L 236.24023 217.46484 L 354.99023 217.46484 L 353.07031 140.41211 L 236.26758 138.91797 L 236.28711 75.873047 L 440.05273 75.179688 L 440.93359 162.90039 L 487.01562 160.99805 L 487.35352 75.019531 L 520.01562 74.90625 L 598.75977 95.083984 L 613.69141 77.597656 L 559.38867 66.833984 L 524.08984 57.417969 L 213.73633 55.931641 z "
     transform="translate(-10)" />
</svg>
