<?xml version="1.0" encoding="UTF-8" standalone="no"?>
<svg
   version="1.1"
   viewBox="-10 0 1010 1000"
   id="svg866"
   sodipodi:docname="U0055_U.svg"
   inkscape:version="1.1.2 (0a00cf5339, 2022-02-04)"
   xmlns:inkscape="http://www.inkscape.org/namespaces/inkscape"
   xmlns:sodipodi="http://sodipodi.sourceforge.net/DTD/sodipodi-0.dtd"
   xmlns="http://www.w3.org/2000/svg"
   xmlns:svg="http://www.w3.org/2000/svg">
  <defs
     id="defs870" />
  <sodipodi:namedview
     id="namedview868"
     pagecolor="#ffffff"
     bordercolor="#666666"
     borderopacity="1.0"
     inkscape:pageshadow="2"
     inkscape:pageopacity="0.0"
     inkscape:pagecheckerboard="0"
     showgrid="false"
     inkscape:zoom="1.6758431"
     inkscape:cx="360.11724"
     inkscape:cy="731.27371"
     inkscape:window-width="2494"
     inkscape:window-height="1371"
     inkscape:window-x="66"
     inkscape:window-y="32"
     inkscape:window-maximized="1"
     inkscape:current-layer="svg866"
     inkscape:snap-global="false" />
  <rect
     style="fill:#dc0000;fill-opacity:1;fill-rule:evenodd;stroke-width:10;stroke-linecap:round;stroke-linejoin:round;stroke-dashoffset:19.02"
     id="rect845"
     width="1016.1195"
     height="219.56371"
     x="-15.531845"
     y="781.01752" />
  <path
     id="path2723"
     style="fill:#000000;fill-rule:evenodd;stroke:none;stroke-width:1px;stroke-linecap:butt;stroke-linejoin:miter;stroke-opacity:1;fill-opacity:1"
     d="M 644.38477 87.080078 L 640.80469 119.30273 L 693.58594 126.03711 L 694.74023 353.71875 L 638.4668 353.60742 L 642.04688 427.59961 L 758.5293 429.98633 L 759.72266 503.97852 L 758.5293 544.55469 L 744.20703 568.42383 L 757.33594 573.19727 L 766.88281 554.10352 L 769.26953 490.85156 L 769.26953 426.40625 L 775.66211 90.660156 L 644.38477 87.080078 z M 247.04688 94.177734 L 247.04688 104.91797 L 334.89453 108.49805 L 332.50781 126.40039 L 250.52148 125.20703 L 243.64648 202.35156 L 331.96094 201.1582 L 331.49414 354.72266 L 244.37305 353.5293 L 245.56641 427.52148 L 259.88867 427.52148 L 258.69531 536.125 L 261.74414 598.07227 L 283.22656 648.19727 L 326.18945 706.67578 L 379.89258 740.0918 L 548.10547 741.51172 L 554.07227 771.34766 L 600.93164 754.31055 L 637.92773 741.18164 L 631.96094 661.22266 L 720.4707 663.2832 L 740.75977 637.02734 L 756.99609 592.71484 L 644.22266 589.13477 L 657.35156 566.46094 L 660.93164 530.6582 L 659.73828 461.4375 L 641.83594 461.4375 L 643.0293 528.26953 L 628.96875 568.9043 L 617.03516 597.54688 L 577.53516 646.40039 L 546.50586 651.17383 L 548.89258 667.88281 L 333.92969 667.70312 L 332.73633 592.51758 L 379.28125 591.32422 L 395.98828 625.93359 L 427.01758 649.80078 L 443.72656 643.83398 L 417.4707 612.80469 L 397.08203 586.79883 L 381.56836 536.67383 L 383.95508 514 L 333.83008 511.61328 L 335.02344 429.26562 L 381.56836 429.26562 L 384.29297 95.371094 L 247.04688 94.177734 z "
     transform="translate(-10)" />
  <path
     id="path3037"
     style="fill:#000000;fill-rule:evenodd;stroke:none;stroke-width:1px;stroke-linecap:butt;stroke-linejoin:miter;stroke-opacity:1;fill-opacity:1"
     d="M 316.32617 801.04883 L 291.64258 837.8125 L 256.27344 820.06641 L 228.22656 861.83789 L 273.57812 901.81641 L 310.63672 862.5293 L 333.63086 882.79883 L 380.41211 833.20312 L 316.32617 801.04883 z M 321.11914 815.75781 L 356.92188 836.64453 L 331.85938 865.28516 L 317.66211 855.08203 L 320.35938 852.2207 L 303.66992 843.84766 L 321.11914 815.75781 z M 261.06641 834.77539 L 296.86914 855.66211 L 271.80664 884.30273 L 243.11133 863.67969 L 261.06641 834.77539 z "
     transform="translate(-10)" />
</svg>
