<?xml version="1.0" encoding="UTF-8" standalone="no"?>
<svg
   version="1.1"
   viewBox="-10 0 1010 1000"
   id="svg866"
   sodipodi:docname="U0051_Q.svg"
   inkscape:version="1.1.2 (0a00cf5339, 2022-02-04)"
   xmlns:inkscape="http://www.inkscape.org/namespaces/inkscape"
   xmlns:sodipodi="http://sodipodi.sourceforge.net/DTD/sodipodi-0.dtd"
   xmlns="http://www.w3.org/2000/svg"
   xmlns:svg="http://www.w3.org/2000/svg">
  <defs
     id="defs870" />
  <sodipodi:namedview
     id="namedview868"
     pagecolor="#ffffff"
     bordercolor="#666666"
     borderopacity="1.0"
     inkscape:pageshadow="2"
     inkscape:pageopacity="0.0"
     inkscape:pagecheckerboard="0"
     showgrid="false"
     inkscape:zoom="0.20948039"
     inkscape:cx="1386.7647"
     inkscape:cy="2198.2965"
     inkscape:window-width="2494"
     inkscape:window-height="1371"
     inkscape:window-x="66"
     inkscape:window-y="32"
     inkscape:window-maximized="1"
     inkscape:current-layer="svg866"
     inkscape:snap-global="false" />
  <rect
     style="fill:#dc0000;fill-opacity:1;fill-rule:evenodd;stroke-width:10;stroke-linecap:round;stroke-linejoin:round;stroke-dashoffset:19.02"
     id="rect845"
     width="1016.1195"
     height="219.56371"
     x="-15.531845"
     y="781.01752" />
  <path
     id="path1052"
     style="fill:#000000;fill-rule:evenodd;stroke:none;stroke-width:1px;stroke-linecap:butt;stroke-linejoin:miter;stroke-opacity:1;fill-opacity:1"
     d="M 408.26367 33.164062 L 344.45312 59.853516 L 349.20117 59.902344 L 294.75391 90.578125 L 299.81641 103.23633 L 375.21875 60.167969 L 632.99805 62.810547 L 582.88281 46.017578 L 530.33008 34.007812 L 466.41602 33.164062 L 408.26367 33.164062 z M 647.96484 75.714844 L 640.36914 84.998047 L 671.5918 107.31055 L 706.19141 136.00195 L 743.29688 194.11914 L 763.4043 232.13672 L 766.375 309.23633 L 679.58008 306.25586 L 677.68359 561.8457 L 632.95898 561.00195 L 661.65039 479.99023 L 662.53711 392.33203 L 660.00586 326.50977 L 647.88281 264.2168 L 616.6582 218.64648 L 574.06641 170.99023 L 558.0332 171.83398 L 597.35352 205.83789 L 635.78125 269.76367 L 651.81445 325.80664 L 654.29883 404.64844 L 649.23438 479.14648 L 625.4043 560.93359 L 606.83984 598.06445 L 580.67969 629.28711 L 557.89453 643.63281 L 605.6875 647.00977 L 607.89648 746.01562 L 680.03516 712.95508 L 682.56836 643.61133 L 736.57617 644.45508 L 746.70312 629.26562 L 765.13086 598.80664 L 784.54102 559.14453 L 762.59961 561.67578 L 766.24414 390.23828 L 798.31055 392.76953 L 797.4668 335.38672 L 790.25391 268.92383 L 766.66602 214.12891 L 739.66211 158.43359 L 698.94922 113.90039 L 647.96484 75.714844 z M 285.66211 95.927734 L 280.13867 102.68359 L 259.88477 116.18555 L 234.56836 144.03516 L 215.1582 171.03906 L 209.1582 220.76172 L 184.68555 220.76172 L 178.77734 246.92188 L 169.49414 284.05273 L 161.05664 310.21484 L 212.5332 308.52539 L 211.34961 476.50195 L 169.05078 475.28906 L 167.05859 467.31836 L 167.05859 433.5625 L 165.37109 387.99414 L 167.90234 344.95508 L 157.77539 344.95508 L 155.24414 390.52539 L 159.46289 439.86328 L 160.73633 482.12695 L 160.81445 482.18359 L 159.91797 486.07031 L 164.98047 521.51367 L 173.25391 557.53516 L 215.26758 559.37305 L 213.46289 633.27539 L 236.20898 667.68359 L 261 700.8125 L 283.78516 717.68945 L 283.85156 716.37695 L 315.63867 739.57031 L 388.64258 764.31445 L 414.80273 766.8457 L 413.11523 756.71875 L 392.35742 755.4668 L 341.72461 735.21289 L 312.18945 720.02344 L 284.70117 699.56641 L 287.64648 641.28125 L 404.45117 642.34961 L 389.26172 630.53711 L 359.72461 606.06445 L 339.47266 579.90234 L 329.3457 556.27539 L 326.90625 556.32422 L 314.48438 514.08984 L 305.89258 472.28125 L 303.44531 396.55078 L 308.55859 324.2832 L 316.99805 287.15234 L 331.9707 249.97461 L 348.28516 219.76367 L 391.24219 174.73828 L 441.63281 158.8457 L 484.41406 157.83789 L 528.74609 159.73633 L 532.12109 148.76562 L 441.69727 146.89844 L 396.12695 157.86914 L 367.43555 177.2793 L 333.67969 214.41016 L 309.88867 269.96094 L 299.61523 319.57617 L 295.39648 381.17773 L 295.24805 479.41016 L 307.90625 535.10742 L 317.36328 556.51562 L 287.15039 557.11914 L 285.66211 95.927734 z M 525.42188 658.27539 L 495.88672 663.33789 L 460.24414 663.41406 L 443.36523 660.88281 L 443.93164 768.48438 L 499.62695 771.01562 L 527.47461 767.64062 L 527.47461 767.59375 L 545.63867 789.54492 L 578.07422 822.89648 L 618.58008 846.52539 L 659.92969 869.31055 L 671.74414 870.99805 L 673.43164 858.33984 L 641.93945 842.00586 L 602.73828 821.6543 L 574.04688 794.65039 L 543.21875 764.50586 L 527.16406 751.12695 L 525.42188 658.27539 z M 668.05859 735.50781 L 656.24414 740.57227 L 687.46875 763.35742 L 688.3125 883.1875 L 768.21094 894.37305 L 817.15625 896.06055 L 869.23242 889.83398 L 913.95117 874.36719 L 884.79883 768.97656 L 857.51562 775.40625 L 826.29297 786.37695 L 787.27539 786.63281 L 787.27539 797.60352 L 830.3125 797.60352 L 871.66211 784.10156 L 897.31836 866.39648 L 870.31445 874.83594 L 827.27539 884.96094 L 758.95703 882.70117 L 760.38867 780.23438 L 727.97461 770.95117 L 697.5957 755.76172 L 668.05859 735.50781 z "
     transform="translate(-10)" />
  <path
     id="path2411"
     style="fill:#000000;fill-rule:evenodd;stroke:none;stroke-width:1px;stroke-linecap:butt;stroke-linejoin:miter;stroke-opacity:1;fill-opacity:1"
     d="M 304.86133 791.80078 L 324.55273 819.8457 L 324.55273 840.73047 L 310.82812 865.79297 L 279.20312 863.40625 L 255.93164 838.94141 L 259.51172 814.47461 L 281.97461 795.13281 L 251.29297 804.97852 L 244.72852 837.79883 L 269.19336 871.21484 L 312.61914 873.68164 L 333.50391 849.8125 L 335.89062 816.26562 L 304.86133 791.80078 z M 202.08789 825.61328 L 221.7793 853.66016 L 221.7793 874.54492 L 208.05469 899.60547 L 189.6582 898.2168 L 191.66016 884.53906 L 214.12305 865.19727 L 183.44141 875.04297 L 178.9668 897.41016 L 176.42969 897.21875 L 153.1582 872.75391 L 156.73828 848.28906 L 179.19922 828.94727 L 148.51953 838.79297 L 141.95508 871.61133 L 166.41992 905.02734 L 177.32031 905.64648 L 176.87695 907.86328 L 201.34375 941.2793 L 244.76758 943.74609 L 265.65234 919.87695 L 268.03906 886.33008 L 237.00977 861.86328 L 256.70117 889.91016 L 256.70117 910.79492 L 242.97852 935.85742 L 211.35156 933.46875 L 188.08008 909.00391 L 188.47852 906.28125 L 209.8457 907.49609 L 230.73047 883.62695 L 233.11719 850.07812 L 202.08789 825.61328 z "
     transform="translate(-10)" />
</svg>
