<?xml version="1.0" encoding="UTF-8" standalone="no"?>
<svg
   version="1.1"
   viewBox="-10 0 1010 1000"
   id="svg866"
   sodipodi:docname="U0052_R.svg"
   inkscape:version="1.1.2 (0a00cf5339, 2022-02-04)"
   xmlns:inkscape="http://www.inkscape.org/namespaces/inkscape"
   xmlns:sodipodi="http://sodipodi.sourceforge.net/DTD/sodipodi-0.dtd"
   xmlns="http://www.w3.org/2000/svg"
   xmlns:svg="http://www.w3.org/2000/svg">
  <defs
     id="defs870" />
  <sodipodi:namedview
     id="namedview868"
     pagecolor="#ffffff"
     bordercolor="#666666"
     borderopacity="1.0"
     inkscape:pageshadow="2"
     inkscape:pageopacity="0.0"
     inkscape:pagecheckerboard="0"
     showgrid="false"
     inkscape:zoom="0.41896077"
     inkscape:cx="132.47064"
     inkscape:cy="762.60124"
     inkscape:window-width="2494"
     inkscape:window-height="1371"
     inkscape:window-x="66"
     inkscape:window-y="32"
     inkscape:window-maximized="1"
     inkscape:current-layer="svg866"
     inkscape:snap-global="false" />
  <rect
     style="fill:#dc0000;fill-rule:evenodd;stroke-width:10;stroke-linecap:round;stroke-linejoin:round;stroke-dashoffset:19.02;fill-opacity:1"
     id="rect845"
     width="1016.1195"
     height="219.56371"
     x="-15.531845"
     y="780.17365" />
  <path
     style="fill:#040000;fill-opacity:1;fill-rule:evenodd;stroke:none;stroke-width:0.578687px;stroke-linecap:butt;stroke-linejoin:miter;stroke-opacity:1"
     d="m 250.99024,793.18022 -7.76592,50.91386 20.86339,49.79647 -16.97136,27.72979 -25.7011,27.4381 -10.75414,-4.34982 0.21652,-27.39978 -122.888941,0.40602 106.982581,35.81935 25.12771,13.9961 c 0,0 70.74495,-56.51328 100.81054,-91.98774 0,0 6.37287,-37.16157 6.89836,-39.07306 1.14505,-4.1653 -0.99284,-43.89598 -0.99284,-43.89598 z"
     id="path5576"
     sodipodi:nodetypes="ccccccccccsscc" />
  <path
     style="fill:#040000;fill-opacity:1;fill-rule:evenodd;stroke:none;stroke-width:0.35078px;stroke-linecap:butt;stroke-linejoin:miter;stroke-opacity:1"
     d="m 634.98344,793.7246 5.63816,25.76756 -15.14709,25.20206 12.32142,14.03408 18.65933,13.88645 7.80764,-2.20145 -0.15719,-13.86705 89.21897,0.20549 -77.67075,18.12821 -18.24304,7.08345 c 0,0 -51.36174,-28.60144 -73.18976,-46.55511 0,0 -4.62678,-18.80752 -5.0083,-19.77493 -0.83132,-2.10806 0.72081,-22.21581 0.72081,-22.21581 z"
     id="path5576-3"
     sodipodi:nodetypes="ccccccccccsscc" />
  <path
     id="path974"
     style="fill:#000000;fill-opacity:1;fill-rule:evenodd;stroke:none;stroke-width:1.13239px;stroke-linecap:butt;stroke-linejoin:miter;stroke-opacity:1"
     d="m 203.73591,55.931913 4.30374,352.273117 -0.49326,-0.007 v 82.06012 l 105.89588,-2.69036 c 0,0 -8.14562,79.36977 -2.7151,79.36977 5.43054,0 -75.15872,2.16858 -75.15872,2.16858 l 4.04822,165.02509 -34.50542,-4.50226 6.78777,24.21536 104.53832,-5.3829 -1.35756,-99.54741 29.86619,1.34518 c 0,0 -10.30758,-166.50898 -3.51942,-166.50898 6.78817,0 47.51662,1.34518 47.51661,1.34518 l 2.7151,-86.09565 148.35333,2.69035 -4.07488,80.71495 25.43136,1.43985 46.8856,83.46913 -75.81416,-1.07217 2.7151,80.71494 h -9.50288 l 50.63388,101.6125 39.37128,1.34518 1.35756,-96.85705 39.90454,0.90045 52.49578,93.45558 h 27.15108 l -103.39184,-169.76953 -5.70128,-10.0569 -0.4266,-0.007 -50.47168,-82.87471 6.88109,0.38968 -14.93531,-26.90352 50.18283,-11.71909 36.65618,-32.28642 -42.08639,-12.10658 5.75905,-152.6235 84.17501,-4.03553 -5.43244,-26.90571 -6.78777,-41.70265 -6.78776,-9.41623 H 543.00443 l -1.35755,17.48948 13.57776,18.83247 16.29065,44.39299 -1.35756,37.66712 -20.36331,40.35748 -38.01374,40.35746 -52.94904,9.41844 h -74.66991 -39.3713 l 4.07267,-45.74038 h -42.08639 l 5.43022,79.37197 -86.02805,-1.1052 0.0622,-190.97312 h 118.74931 l -1.91968,-77.05148 -116.80298,-1.49489 0.02,-63.044928 203.76419,-0.693498 0.88207,87.720426 46.0813,-1.90218 0.33772,-85.978965 32.6635,-0.112282 78.74258,20.177634 14.9331,-17.487282 -54.30438,-10.763609 -35.29863,-9.416234 z" />
</svg>
