<?xml version="1.0" encoding="UTF-8" standalone="no"?>
<svg
   version="1.1"
   viewBox="-10 0 1010 1000"
   id="svg866"
   sodipodi:docname="U0053_S.svg"
   inkscape:version="1.1.2 (0a00cf5339, 2022-02-04)"
   xmlns:inkscape="http://www.inkscape.org/namespaces/inkscape"
   xmlns:sodipodi="http://sodipodi.sourceforge.net/DTD/sodipodi-0.dtd"
   xmlns="http://www.w3.org/2000/svg"
   xmlns:svg="http://www.w3.org/2000/svg">
  <defs
     id="defs870" />
  <sodipodi:namedview
     id="namedview868"
     pagecolor="#ffffff"
     bordercolor="#666666"
     borderopacity="1.0"
     inkscape:pageshadow="2"
     inkscape:pageopacity="0.0"
     inkscape:pagecheckerboard="0"
     showgrid="false"
     inkscape:zoom="0.29625"
     inkscape:cx="-136.70886"
     inkscape:cy="-163.71308"
     inkscape:window-width="2494"
     inkscape:window-height="1371"
     inkscape:window-x="66"
     inkscape:window-y="32"
     inkscape:window-maximized="1"
     inkscape:current-layer="svg866"
     inkscape:snap-global="false" />
  <rect
     style="fill:#dc0000;fill-rule:evenodd;stroke-width:10;stroke-linecap:round;stroke-linejoin:round;stroke-dashoffset:19.02;fill-opacity:1"
     id="rect845"
     width="1016.1195"
     height="219.56371"
     x="-15.531845"
     y="780.17365" />
  <path
     style="fill:#040000;fill-opacity:1;fill-rule:evenodd;stroke:none;stroke-width:0.578687px;stroke-linecap:butt;stroke-linejoin:miter;stroke-opacity:1"
     d="m 339.66679,974.19841 66.74045,-42.54203 40.97867,-47.31979 104.83366,-29.71322 57.88041,48.22216 -19.07767,45.11441 -71.3568,17.42874 -31.11036,-33.5058 59.58736,-35.94792 -2.76504,-20.23929 -49.04429,16.22233 -23.02633,35.52964 34.93674,54.5363 95.77623,-17.05772 27.57453,-74.82631 -74.98529,-58.48795 -124.0844,36.63808 -40.57208,51.4745 -52.53579,40.93043 -71.29084,-30.36087 -15.92307,-44.88163 -6.6069,-27.16232 26.61316,-23.52567 47.96277,5.35447 20.94917,22.65916 -24.45751,35.52857 35.86668,-22.18437 2.001,-23.53048 -31.65037,-23.73059 -58.25628,-8.83225 -33.61831,30.83832 2.76725,35.41488 19.95669,52.95746 z"
     id="path5576"
     sodipodi:nodetypes="cccccccccccccccccccccccccccccccccc" />
  <path
     id="path3255"
     style="fill:#040000;fill-opacity:1;fill-rule:evenodd;stroke:none;stroke-width:1px;stroke-linecap:butt;stroke-linejoin:miter;stroke-opacity:1"
     d="m 387.84604,25.557366 -40.75,15.494141 -32.68164,24.632812 -0.64648,82.648441 -66.66602,2.53125 -10.12695,40.50586 -4.00586,40.53906 138.31641,0.32813 -6.75,-18.56446 14.3457,-47.25781 34.59961,-20.25195 48.94531,-6.75196 h 44.75195 l 33.60352,14.29493 60.2793,-4.21875 -0.84571,-77.638678 45.57032,40.507818 -59.20899,73.35351 15.18946,9.28321 41.35156,-51.47657 20.73828,-35.14648 L 598.27183,57.02221 573.79917,47.739007 525.69956,25.7976 524.85581,68.836663 387.84604,69.438226 Z m -7.73047,234.726564 -145.93164,5.93164 12.65821,42.19531 14.30664,21.14454 19.41015,36.2871 132.97657,-5.15625 v -69.19726 l -17.72071,-10.12695 z m 77.20899,41.45899 -1.69727,97.25195 h -71.73046 l 1.6875,29.53515 19.41015,5.90821 48.51172,22.35742 39.61328,22.6875 176.35156,-0.0293 -3.01367,88.92188 -110.54883,-0.10352 -17.72265,43.03711 -28.59375,24.5625 -42.19336,8.4375 -43.88281,-2.53125 -46.41407,-11.81445 -51.74414,-33.28516 -37.97461,-36.28711 -70.96484,94.74024 27.0625,1.54101 -0.84375,39.66406 10.9707,7.59376 34.59961,21.9414 27.49414,12.82227 v -82.70117 l 43.88282,0.84374 126.00585,-0.84374 151.10743,1.31445 -24.54688,44.79883 -93.17969,46.45117 -54.50976,5.0625 -49.78906,0.84375 -38.81836,-15.18946 -8.04883,16.06641 36.33594,11.81445 57.09179,-0.11328 60.62305,-8.39648 48.10156,-21.94141 53.16406,-27.84765 32.56641,-51.38282 4.80664,0.041 27.00391,-57.38281 c 0,0 3.37487,-79.32564 4.21875,-82.70117 0.84388,-3.37553 -15.18946,-53.16407 -15.18946,-53.16407 l -20.2539,-32.06836 -27.84766,-32.91015 -98.62109,-3.80274 0.8457,-58.22656 -10.9707,-2.53125 -34.50586,-12.73242 z" />
</svg>
