<?xml version="1.0" encoding="UTF-8" standalone="no"?>
<svg
   version="1.1"
   viewBox="-10 0 1010 1000"
   id="svg866"
   sodipodi:docname="U006E_n.svg"
   inkscape:version="1.1.2 (0a00cf5339, 2022-02-04)"
   xmlns:inkscape="http://www.inkscape.org/namespaces/inkscape"
   xmlns:sodipodi="http://sodipodi.sourceforge.net/DTD/sodipodi-0.dtd"
   xmlns="http://www.w3.org/2000/svg"
   xmlns:svg="http://www.w3.org/2000/svg">
  <path
     id="path968"
     style="fill:#000000;fill-opacity:1;fill-rule:evenodd;stroke:none;stroke-width:1px;stroke-linecap:butt;stroke-linejoin:miter;stroke-opacity:1"
     d="m 527.76562,148.2207 -27.44921,16.70899 -9.54688,33.41601 -40.26609,35.23031 -0.0329,23.25056 39.31132,1.09701 0.22234,23.92024 82.92161,0.19524 -1.0039,-133.81836 z m -150.74414,46.11133 -123.24804,0.35742 -0.56836,91.78125 h 76.3789 l -0.0488,190.1875 68.92578,-3.10742 -1.15039,-232.67578 -10.74024,-11.93359 z m -127.32617,374.91016 1.89453,202.14648 h 76.37891 l -3.58008,-23.86914 77.57422,2.38672 0.81445,-89.96289 -76.38086,-1.19336 -1.19336,-89.50781 z m 354.93555,182.25976 1.19336,26.25586 161.53516,-2.78906 v -20.28906 z"
     transform="translate(-10)"
     sodipodi:nodetypes="ccccccccccccccccccccccccccccccccc" />
  <defs
     id="defs870" />
  <sodipodi:namedview
     id="namedview868"
     pagecolor="#ffffff"
     bordercolor="#666666"
     borderopacity="1.0"
     inkscape:pageshadow="2"
     inkscape:pageopacity="0.0"
     inkscape:pagecheckerboard="0"
     showgrid="false"
     inkscape:zoom="0.41896077"
     inkscape:cx="-13.127721"
     inkscape:cy="328.19302"
     inkscape:window-width="2494"
     inkscape:window-height="1371"
     inkscape:window-x="66"
     inkscape:window-y="32"
     inkscape:window-maximized="1"
     inkscape:current-layer="svg866" />
  <rect
     style="fill:#dc0000;fill-rule:evenodd;stroke-width:10;stroke-linecap:round;stroke-linejoin:round;stroke-dashoffset:19.02;fill-opacity:1"
     id="rect845"
     width="1016.1195"
     height="219.56371"
     x="-15.531845"
     y="780.17365" />
  <path
     style="fill:#000000;fill-rule:evenodd;stroke:none;stroke-width:1px;stroke-linecap:butt;stroke-linejoin:miter;stroke-opacity:1;fill-opacity:1"
     d="m 598.07853,656.78477 152.62563,4.17591 1.19343,-91.41271 h -27.44887 l 6.53254,-304.93255 -9.54743,-31.02916 -26.25544,-29.83573 -53.70432,-13.12772 v 96.66776 l -78.54926,-5.25148 14.32115,32.22259 21.48173,56.09121 42.96345,7.16057 -1.19343,194.52896 -46.2059,-3.58029 z"
     id="path972" />
</svg>
