<?xml version="1.0" encoding="UTF-8" standalone="no"?>
<svg
   version="1.1"
   viewBox="-10 0 1010 1000"
   id="svg866"
   sodipodi:docname="U0068_h.svg"
   inkscape:version="1.1.2 (0a00cf5339, 2022-02-04)"
   xmlns:inkscape="http://www.inkscape.org/namespaces/inkscape"
   xmlns:sodipodi="http://sodipodi.sourceforge.net/DTD/sodipodi-0.dtd"
   xmlns="http://www.w3.org/2000/svg"
   xmlns:svg="http://www.w3.org/2000/svg">
  <defs
     id="defs870" />
  <sodipodi:namedview
     id="namedview868"
     pagecolor="#ffffff"
     bordercolor="#666666"
     borderopacity="1.0"
     inkscape:pageshadow="2"
     inkscape:pageopacity="0.0"
     inkscape:pagecheckerboard="0"
     showgrid="false"
     inkscape:zoom="0.41896077"
     inkscape:cx="1213.7175"
     inkscape:cy="774.53553"
     inkscape:window-width="2494"
     inkscape:window-height="1371"
     inkscape:window-x="66"
     inkscape:window-y="32"
     inkscape:window-maximized="1"
     inkscape:current-layer="svg866"
     inkscape:snap-global="false" />
  <rect
     style="fill:#dc0000;fill-rule:evenodd;stroke-width:10;stroke-linecap:round;stroke-linejoin:round;stroke-dashoffset:19.02;fill-opacity:1"
     id="rect845"
     width="1016.1195"
     height="219.56371"
     x="-15.531845"
     y="780.17365" />
  <path
     id="path2274"
     style="fill:#000000;fill-rule:evenodd;stroke:none;stroke-width:1px;stroke-linecap:butt;stroke-linejoin:miter;stroke-opacity:1;fill-opacity:1"
     d="M 457.73242 87.179688 L 420.60156 88.867188 L 420.52539 91.585938 L 335.26172 89.322266 L 335.26172 129.82812 L 346.23242 130.67188 L 344.54492 100.29297 L 420.09766 106.66797 L 417.22461 208.02734 L 338.95703 210.68945 L 337.70312 417.96094 L 343.16211 418.14453 L 343.3418 625.75391 L 332.23047 626.04492 L 340.70703 693.64844 L 439.23828 697.76758 L 437.2207 754.51758 C 406.29476 754.66826 335.95703 758.14844 335.95703 758.14844 L 344.39453 776.71289 L 457.47461 773.33789 C 457.47461 773.33789 462.82042 759.89784 454.3418 755.82227 L 456.86133 698.50391 L 459.62695 698.61914 L 461.31445 622.66992 L 453.23828 622.88086 L 471.07812 422.45898 L 487.86328 423.02539 L 514.86719 404.45898 L 550.31055 394.33203 L 550.36328 391.29297 L 610.90039 393.58398 L 612.14258 485.47266 L 672.90234 488.84766 L 679.65234 622.18164 L 611.00586 623.03906 L 614.38086 698.98828 L 623.89258 698.69922 L 625.57617 754.22656 L 613.23242 754.58008 L 613.23242 783.27148 L 729.68945 781.58398 L 731.37695 751.20312 L 637.20898 753.89453 L 635.03125 698.36133 L 725.77344 695.61133 L 724.17578 421.63086 L 676.91992 419.94336 L 675.23047 311.92578 L 643.16406 293.36133 L 609.4082 283.23438 L 609.45117 286.37109 L 551.88281 303.48828 L 551.99805 296.82422 L 481.11328 323.83008 L 482.80078 347.45703 L 368.2793 348.7832 L 363.2168 282.96094 L 454.35547 284.64844 L 457.73242 87.179688 z M 609.63477 299.9375 L 610.78125 384.84375 L 550.37695 390.45898 L 551.85547 305.10547 L 609.63477 299.9375 z M 364.99219 418.88086 L 464.85938 422.25 L 444.80273 623.10156 L 362.19336 625.26172 L 364.99219 418.88086 z "
     transform="translate(-10)" />
</svg>
