<?xml version="1.0" encoding="UTF-8" standalone="no"?>
<svg
   version="1.1"
   viewBox="-10 0 1010 1000"
   id="svg866"
   sodipodi:docname="U0064_d.svg"
   inkscape:version="1.1.2 (0a00cf5339, 2022-02-04)"
   xmlns:inkscape="http://www.inkscape.org/namespaces/inkscape"
   xmlns:sodipodi="http://sodipodi.sourceforge.net/DTD/sodipodi-0.dtd"
   xmlns="http://www.w3.org/2000/svg"
   xmlns:svg="http://www.w3.org/2000/svg">
  <defs
     id="defs870" />
  <sodipodi:namedview
     id="namedview868"
     pagecolor="#ffffff"
     bordercolor="#666666"
     borderopacity="1.0"
     inkscape:pageshadow="2"
     inkscape:pageopacity="0.0"
     inkscape:pagecheckerboard="0"
     showgrid="false"
     inkscape:zoom="0.5925"
     inkscape:cx="697.8903"
     inkscape:cy="606.75105"
     inkscape:window-width="2494"
     inkscape:window-height="1371"
     inkscape:window-x="66"
     inkscape:window-y="32"
     inkscape:window-maximized="1"
     inkscape:current-layer="svg866" />
  <rect
     style="fill:#dc0000;fill-rule:evenodd;stroke-width:10;stroke-linecap:round;stroke-linejoin:round;stroke-dashoffset:19.02;fill-opacity:1"
     id="rect845"
     width="1016.1195"
     height="219.56371"
     x="-15.531845"
     y="780.17365" />
  <path
     id="path2196"
     style="fill:#000000;fill-rule:evenodd;stroke:none;stroke-width:1px;stroke-linecap:butt;stroke-linejoin:miter;stroke-opacity:1;fill-opacity:1"
     d="M 716.1582 99.941406 L 678.18359 101.20703 L 681.38086 221.43555 C 681.38086 221.43555 714.76556 223.74448 715.1875 221.63477 C 715.60944 219.52507 716.1582 99.941406 716.1582 99.941406 z M 585.28711 100.73438 L 584.45117 316.78906 L 589.0918 317.63281 L 588.66992 344.63672 L 541.98633 311.48242 L 539.64062 410.88672 L 566.64453 422.70117 L 573.39648 432.40625 L 610.72266 431.19727 L 610.58984 500.73047 L 585.4707 500.73047 L 584.96875 569.01367 C 584.96875 569.01367 681.01178 570.29714 680.58984 568.60938 C 680.1679 566.92161 680.35742 499.04688 680.35742 499.04688 L 714.57812 498.16797 L 714.02344 433.08203 L 679.8457 430.55078 L 679.52734 362.18359 L 609.85547 359.65234 L 611.02539 101.57812 L 585.28711 100.73438 z M 457.28906 297.12695 L 423.60352 301.76953 L 400.97461 309.94141 L 394.98828 386.9707 L 337.51172 388.83398 L 341.82812 345.41797 L 298.01953 399.09375 L 279.22266 445.16406 L 268.08203 491.54297 L 266.39453 507.14258 L 325.76758 506.95898 L 335.38281 410.25195 L 450.7168 414.42969 L 457.28906 297.12695 z M 331.5332 570.18945 L 330.40625 623.98047 L 332.12695 709.89258 L 297.4375 711.6582 L 328.42188 752.02539 L 360.13281 778.21484 L 402.14648 778.63672 L 400.30859 636.85547 L 412.12305 637.69922 L 406.63867 622.08789 L 402.83984 602.67969 C 402.83984 602.67969 397.77734 582.0041 397.77734 580.73828 C 397.77734 579.47245 398.19922 571.0332 398.19922 571.0332 L 331.5332 570.18945 z M 583.63867 639.37891 L 584.9043 650.34961 L 574.14453 660.42383 L 552.625 679.41211 L 518.38477 692.26758 C 518.38477 692.26758 496.02174 696.91016 494.33398 696.91016 C 492.64621 696.91016 471.91797 696.23437 471.91797 696.23438 L 473.6582 709.38477 L 713.57617 709.29492 L 713.9707 640.70703 L 583.63867 639.37891 z M 715.92969 778.44922 C 715.88099 778.44842 715.83009 778.45996 715.77734 778.48633 C 714.08958 779.33021 678.50195 778.48633 678.50195 778.48633 L 680.75586 790.72266 L 717.04297 791.14453 C 717.04297 791.14453 717.43936 778.47397 715.92969 778.44922 z "
     transform="translate(-10)" />
</svg>
