<?xml version="1.0" encoding="UTF-8" standalone="no"?>
<svg
   version="1.1"
   viewBox="-10 0 1010 1000"
   id="svg866"
   sodipodi:docname="U0065_e.svg"
   inkscape:version="1.1.2 (0a00cf5339, 2022-02-04)"
   xmlns:inkscape="http://www.inkscape.org/namespaces/inkscape"
   xmlns:sodipodi="http://sodipodi.sourceforge.net/DTD/sodipodi-0.dtd"
   xmlns="http://www.w3.org/2000/svg"
   xmlns:svg="http://www.w3.org/2000/svg">
  <defs
     id="defs870" />
  <sodipodi:namedview
     id="namedview868"
     pagecolor="#ffffff"
     bordercolor="#666666"
     borderopacity="1.0"
     inkscape:pageshadow="2"
     inkscape:pageopacity="0.0"
     inkscape:pagecheckerboard="0"
     showgrid="false"
     inkscape:zoom="1.185"
     inkscape:cx="245.99156"
     inkscape:cy="594.51477"
     inkscape:window-width="2494"
     inkscape:window-height="1371"
     inkscape:window-x="66"
     inkscape:window-y="32"
     inkscape:window-maximized="1"
     inkscape:current-layer="svg866"
     inkscape:snap-global="false" />
  <rect
     style="fill:#dc0000;fill-rule:evenodd;stroke-width:10;stroke-linecap:round;stroke-linejoin:round;stroke-dashoffset:19.02;fill-opacity:1"
     id="rect845"
     width="1016.1195"
     height="219.56371"
     x="-15.531845"
     y="780.17365" />
  <path
     id="path2712"
     style="fill:#000000;fill-rule:evenodd;stroke:none;stroke-width:1px;stroke-linecap:butt;stroke-linejoin:miter;stroke-opacity:1;fill-opacity:1"
     d="M 500.52734 275.54102 L 497.92188 367.57812 L 527.16211 391.76172 L 546.57227 418.76562 L 554.61914 446.93359 L 557.99414 473.9375 L 625.42188 473.9375 L 625.42188 537.22852 L 396.89844 537.17383 L 396.89844 550.67578 L 621.37891 552.60352 L 634.88086 560.19922 L 659.35352 553.44727 L 664.41797 505.3457 L 661.04102 444.58789 L 646.69531 410.83203 L 566.40039 406.14453 L 564.69141 338.26953 L 617.01367 335.73828 L 594.22852 318.85938 L 557.57617 297.88477 L 500.52734 275.54102 z M 312.82031 359.11719 L 284.45898 421.66016 L 272.64453 495.92188 L 264.17188 534.97656 L 321.41211 538.44531 L 317.24219 472.84375 L 381.07422 472 L 386.98242 451.74609 L 400.24805 423.45117 L 412.0625 409.94922 L 315.35156 404.6875 L 312.82031 359.11719 z M 273.98828 602.84961 L 286.89258 639.10938 L 307.14453 679.61523 L 320.64844 671.17578 L 442.16602 677.92773 L 440.47852 748.8125 L 379.55469 737.87109 L 421.75 764.875 L 514.57617 766.5625 L 509.51367 677.11133 L 618.29297 673.73438 L 619.98047 722.67969 L 645.29688 727.74414 L 626.73242 690.61328 L 606.47852 633.22852 L 571.03516 653.48242 L 500.14844 670.35938 L 437.70117 655.16992 L 402.25977 619.72656 L 398.88281 606.22461 L 273.98828 602.84961 z "
     transform="translate(-10)" />
</svg>
