<?xml version="1.0" encoding="UTF-8" standalone="no"?>
<svg
   version="1.1"
   viewBox="-10 0 1010 1000"
   id="svg866"
   sodipodi:docname="U0062_b.svg"
   inkscape:version="1.1.2 (0a00cf5339, 2022-02-04)"
   xmlns:inkscape="http://www.inkscape.org/namespaces/inkscape"
   xmlns:sodipodi="http://sodipodi.sourceforge.net/DTD/sodipodi-0.dtd"
   xmlns="http://www.w3.org/2000/svg"
   xmlns:svg="http://www.w3.org/2000/svg">
  <path
     id="path1001"
     style="fill:#000000;fill-opacity:1;fill-rule:evenodd;stroke:none;stroke-width:1px;stroke-linecap:butt;stroke-linejoin:miter;stroke-opacity:1"
     d="m 356.93164,163.08594 -0.5625,40.125 69.29102,0.84375 c 0,0 4.21173,-40.50599 -0.85157,-39.66211 -5.06329,0.84388 -67.87695,-1.30664 -67.87695,-1.30664 z m 0,0 -50.04492,0.59765 2.50195,261.69336 43.88086,-0.84375 3.09961,-221.32226 z m 133.43359,182.66797 -40.50585,21.09765 -28.69336,10.12696 -0.84375,95.35742 32.27539,-32.77539 36.17968,-13.66407 z m 134.12696,5.81836 -2.32422,146.5957 -29.51953,3.91211 9.2832,30.3789 v 30.38086 l 21.09766,1.6875 2.25,192.13672 -61.88672,0.14453 -6.75,-63.29101 -30.38086,1.6875 -48.53125,-1.28125 -25.31641,-15.18945 -22.78515,-16.03516 4.69336,89.88867 59.60546,6.03125 -1.6875,21.94141 10.89258,2.60742 32.06836,4.2207 45.6543,-6.44531 41.34961,-17.7207 27.0039,-21.09766 29.53516,-30.38086 13.60547,-26.62109 -1.90625,-188.85743 h 31.22266 l -28.88477,-80.57421 -39.59766,-43.02344 z m -201.07813,143.0625 -116.98047,1.04296 0.78711,275.81641 h 53.16407 l 4.36132,-209.0957 57.20118,3.2207 z"
     transform="translate(-10)"
     sodipodi:nodetypes="cccsccccccccccccccccccccccccccccccccccccccccccccccccc" />
  <defs
     id="defs870" />
  <sodipodi:namedview
     id="namedview868"
     pagecolor="#ffffff"
     bordercolor="#666666"
     borderopacity="1.0"
     inkscape:pageshadow="2"
     inkscape:pageopacity="0.0"
     inkscape:pagecheckerboard="0"
     showgrid="false"
     inkscape:zoom="0.41896077"
     inkscape:cx="261.36099"
     inkscape:cy="483.33881"
     inkscape:window-width="2494"
     inkscape:window-height="1371"
     inkscape:window-x="66"
     inkscape:window-y="32"
     inkscape:window-maximized="1"
     inkscape:current-layer="svg866" />
  <rect
     style="fill:#dc0000;fill-rule:evenodd;stroke-width:10;stroke-linecap:round;stroke-linejoin:round;stroke-dashoffset:19.02;fill-opacity:1"
     id="rect845"
     width="1016.1195"
     height="219.56371"
     x="-15.531845"
     y="780.17365" />
</svg>
