<?xml version="1.0" encoding="UTF-8" standalone="no"?>
<svg
   version="1.1"
   viewBox="-10 0 1010 1000"
   id="svg866"
   sodipodi:docname="U006A_j.svg"
   inkscape:version="1.1.2 (0a00cf5339, 2022-02-04)"
   xmlns:inkscape="http://www.inkscape.org/namespaces/inkscape"
   xmlns:sodipodi="http://sodipodi.sourceforge.net/DTD/sodipodi-0.dtd"
   xmlns="http://www.w3.org/2000/svg"
   xmlns:svg="http://www.w3.org/2000/svg">
  <defs
     id="defs870" />
  <sodipodi:namedview
     id="namedview868"
     pagecolor="#ffffff"
     bordercolor="#666666"
     borderopacity="1.0"
     inkscape:pageshadow="2"
     inkscape:pageopacity="0.0"
     inkscape:pagecheckerboard="0"
     showgrid="false"
     inkscape:zoom="0.5925"
     inkscape:cx="659.07173"
     inkscape:cy="630.37975"
     inkscape:window-width="2494"
     inkscape:window-height="1371"
     inkscape:window-x="66"
     inkscape:window-y="32"
     inkscape:window-maximized="1"
     inkscape:current-layer="svg866"
     inkscape:snap-global="false" />
  <rect
     style="fill:#dc0000;fill-rule:evenodd;stroke-width:10;stroke-linecap:round;stroke-linejoin:round;stroke-dashoffset:19.02;fill-opacity:1"
     id="rect845"
     width="1016.1195"
     height="219.56371"
     x="-15.531845"
     y="780.17365" />
  <path
     id="path10277"
     style="fill:#040000;fill-rule:evenodd;stroke:none;stroke-width:1px;stroke-linecap:butt;stroke-linejoin:miter;stroke-opacity:1;fill-opacity:1"
     d="M 491.25586 207.91797 L 490.66797 309.41211 L 503.19141 306.375 L 524.67188 290.86133 L 530.64062 266.39648 L 530.64062 245.51172 L 513.33594 218.0625 L 491.25586 207.91797 z M 445.05078 210.33984 L 423.73828 218.76562 L 407.79492 253.63672 L 411.97266 284.03711 L 443.30078 308.875 L 445.05078 210.33984 z M 415.59961 372.30273 L 414.4043 452.26172 L 445.43359 453.45508 L 444.24023 508.35352 L 415.59961 503.58008 L 417.92578 570.17578 L 439.4082 568.98242 L 444.18164 688.32422 L 500.27344 685.9375 C 500.27344 685.9375 498.96477 840.82589 500.1582 845.59961 L 505.55469 848.34961 L 515.10156 841.18945 L 525.84375 795.83789 L 524.16016 624.39453 L 505.06641 627.97461 L 501.52539 396.16992 L 445.43359 387.81641 L 444.24023 375.88281 L 415.59961 372.30273 z M 337.33789 829.3457 C 337.33789 829.3457 319.8752 896.81222 316.29492 901.58594 L 335.03125 909.30664 L 400.58984 910.5 L 465.03516 897.37109 L 504.41797 861.56836 L 383.88281 857.98828 L 385.07617 832.92578 L 337.33789 829.3457 z "
     transform="translate(-10)" />
</svg>
