<?xml version="1.0" encoding="UTF-8" standalone="no"?>
<svg
   version="1.1"
   viewBox="-10 0 1010 1000"
   id="svg866"
   sodipodi:docname="U006F_o.svg"
   inkscape:version="1.1.2 (0a00cf5339, 2022-02-04)"
   xmlns:inkscape="http://www.inkscape.org/namespaces/inkscape"
   xmlns:sodipodi="http://sodipodi.sourceforge.net/DTD/sodipodi-0.dtd"
   xmlns="http://www.w3.org/2000/svg"
   xmlns:svg="http://www.w3.org/2000/svg">
  <defs
     id="defs870" />
  <sodipodi:namedview
     id="namedview868"
     pagecolor="#ffffff"
     bordercolor="#666666"
     borderopacity="1.0"
     inkscape:pageshadow="2"
     inkscape:pageopacity="0.0"
     inkscape:pagecheckerboard="0"
     showgrid="false"
     inkscape:zoom="0.5925"
     inkscape:cx="370.46414"
     inkscape:cy="748.52321"
     inkscape:window-width="2494"
     inkscape:window-height="1371"
     inkscape:window-x="66"
     inkscape:window-y="32"
     inkscape:window-maximized="1"
     inkscape:current-layer="svg866" />
  <rect
     style="fill:#dc0000;fill-rule:evenodd;stroke-width:10;stroke-linecap:round;stroke-linejoin:round;stroke-dashoffset:19.02;fill-opacity:1"
     id="rect845"
     width="1016.1195"
     height="219.56371"
     x="-15.531845"
     y="780.17365" />
  <path
     id="path1653"
     style="fill:#000000;fill-opacity:1;fill-rule:evenodd;stroke:none;stroke-width:0.813088px;stroke-linecap:butt;stroke-linejoin:miter;stroke-opacity:1"
     d="m 531.72415,274.18433 0.6753,37.64256 -107.01819,-0.85991 -14.18426,12.54699 -8.7788,9.75912 -2.02743,59.94868 -44.5052,-4.55447 -14.85955,25.79255 -3.37646,26.4879 -8.10508,24.39861 71.32305,-2.09089 2.03526,77.28569 -2.02588,75.98049 -69.78801,-0.0258 5.40234,21.60914 10.20441,29.85657 10.80624,24.39862 104.90634,-0.34848 0.67685,75.98049 -33.37069,-1.84244 37.43963,20.9154 50.65474,14.63789 15.53328,1.39554 0.70187,-110.0495 -24.31521,-2.09251 c 0,0 -23.63804,-19.51781 -25.66423,-22.30611 -2.02619,-2.78829 -30.01455,-37.31345 -30.01455,-37.31345 0,0 -10.79249,-41.85113 -8.7663,-46.03357 2.0262,-4.18245 2.91846,-81.15288 2.91846,-81.15288 l 5.52739,-48.14545 11.48153,-33.46078 -0.67529,-41.82436 48.56476,-2.02475 31.74498,5.57734 31.74343,-4.18341 22.96305,5.57734 c 0,0 18.9111,22.30663 20.2619,29.27738 1.35079,6.97074 17.56072,55.0683 17.56072,55.0683 l 11.48153,34.8531 -1.35058,28.58041 v 10.45609 l 16.88543,-1.39393 3.24515,-156.50416 62.81155,0.69696 -12.15682,-18.12432 -23.63991,-29.97434 -18.91131,-19.51825 -14.85799,-6.27268 -56.88868,-0.28718 -4.72861,-30.67131 -16.21014,-5.57572 -34.44459,-2.0925 z m 237.5903,272.83602 -126.99557,32.78641 -8.10507,42.52132 -12.83368,28.58041 -1.23491,-3.68004 -2.30881,134.59655 29.04226,-6.27269 27.69167,-19.51824 12.83211,-12.54861 3.5656,-144.18465 h 67.54016 l 8.78036,-24.39701 z" />
</svg>
