<?xml version="1.0" encoding="UTF-8" standalone="no"?>
<svg
   version="1.1"
   viewBox="-10 0 1010 1000"
   id="svg866"
   sodipodi:docname="U006D_m.svg"
   inkscape:version="1.1.2 (0a00cf5339, 2022-02-04)"
   xmlns:inkscape="http://www.inkscape.org/namespaces/inkscape"
   xmlns:sodipodi="http://sodipodi.sourceforge.net/DTD/sodipodi-0.dtd"
   xmlns="http://www.w3.org/2000/svg"
   xmlns:svg="http://www.w3.org/2000/svg">
  <defs
     id="defs870" />
  <sodipodi:namedview
     id="namedview868"
     pagecolor="#ffffff"
     bordercolor="#666666"
     borderopacity="1.0"
     inkscape:pageshadow="2"
     inkscape:pageopacity="0.0"
     inkscape:pagecheckerboard="0"
     showgrid="false"
     inkscape:zoom="0.41896077"
     inkscape:cx="989.35278"
     inkscape:cy="750.66695"
     inkscape:window-width="2494"
     inkscape:window-height="1371"
     inkscape:window-x="66"
     inkscape:window-y="32"
     inkscape:window-maximized="1"
     inkscape:current-layer="svg866"
     inkscape:snap-global="false" />
  <rect
     style="fill:#dc0000;fill-rule:evenodd;stroke-width:10;stroke-linecap:round;stroke-linejoin:round;stroke-dashoffset:19.02;fill-opacity:1"
     id="rect845"
     width="1016.1195"
     height="219.56371"
     x="-15.531845"
     y="780.17365" />
  <path
     id="path2463"
     style="fill:#000000;fill-rule:evenodd;stroke:none;stroke-width:1px;stroke-linecap:butt;stroke-linejoin:miter;stroke-opacity:1;fill-opacity:1"
     d="M 711.41406 244.69531 L 697.06836 245.53906 L 696.57227 275.0957 L 769.98828 278.47266 L 771.65039 354.86523 L 687.28906 357.39062 L 705.85352 373.42383 L 721.04297 402.11523 L 721.88867 429.12109 L 846.88867 429.12109 L 848.70312 348.29102 L 833.51367 307.78516 L 799.75781 272.3418 L 755.29688 248.91602 L 711.41406 244.69531 z M 373.24609 244.74414 L 329.36719 249.83008 L 280.92969 279.59961 L 494.9082 277.29883 L 464.33008 255.62109 L 419.1875 245.9375 L 373.24609 244.74414 z M 210.23047 257.80078 C 204.51685 257.80078 102.86523 258.99609 102.86523 258.99609 L 104.41016 283.77539 L 217.98633 283.45898 C 217.98633 283.45898 215.94409 257.80078 210.23047 257.80078 z M 621.64844 259.16211 L 592.11133 276.88477 L 569.32812 295.44922 L 544.01172 316.54688 L 547.38672 357.05273 L 376.91797 358.55469 L 402.23438 386.40234 L 417.56641 419.07031 L 420.09766 463.79492 L 410.13477 749.92969 C 410.13477 749.92969 470.04896 755.83647 469.20508 752.46094 C 468.36119 749.08541 472.21289 429.73047 472.21289 429.73047 L 550.69336 432.26172 L 552.38281 404.41406 L 572.75391 386.11719 L 598.07031 371.77148 L 621.69922 358.26758 L 621.64844 259.16211 z M 318.44531 355.8457 C 315.06978 355.8457 106.08594 360.49023 106.08594 360.49023 L 105.21289 427.41797 L 167.66016 428.26172 L 172.80859 659.57031 L 100.80078 657.93164 L 104.64062 728.79297 L 245.83008 725.00977 L 240.55078 410.11328 L 275.4082 380.31836 C 275.4082 380.31836 321.82084 355.8457 318.44531 355.8457 z M 722.53516 581.75 L 723.29297 655.97266 L 770.23242 657.47461 L 769.38867 752.83398 L 853.61523 752.76367 L 858.67969 736.72852 L 844.33203 734.19727 L 848.26953 655.95703 L 860.92773 653.42578 L 860.93164 583.43945 L 722.53516 581.75 z "
     transform="translate(-10)" />
</svg>
