<?xml version="1.0" encoding="UTF-8" standalone="no"?>
<svg
   version="1.1"
   viewBox="-10 0 1010 1000"
   id="svg866"
   sodipodi:docname="U0069_i.svg"
   inkscape:version="1.1.2 (0a00cf5339, 2022-02-04)"
   xmlns:inkscape="http://www.inkscape.org/namespaces/inkscape"
   xmlns:sodipodi="http://sodipodi.sourceforge.net/DTD/sodipodi-0.dtd"
   xmlns="http://www.w3.org/2000/svg"
   xmlns:svg="http://www.w3.org/2000/svg">
  <defs
     id="defs870" />
  <sodipodi:namedview
     id="namedview868"
     pagecolor="#ffffff"
     bordercolor="#666666"
     borderopacity="1.0"
     inkscape:pageshadow="2"
     inkscape:pageopacity="0.0"
     inkscape:pagecheckerboard="0"
     showgrid="false"
     inkscape:zoom="0.41896077"
     inkscape:cx="996.51335"
     inkscape:cy="702.92978"
     inkscape:window-width="2494"
     inkscape:window-height="1371"
     inkscape:window-x="66"
     inkscape:window-y="32"
     inkscape:window-maximized="1"
     inkscape:current-layer="svg866" />
  <rect
     style="fill:#dc0000;fill-rule:evenodd;stroke-width:10;stroke-linecap:round;stroke-linejoin:round;stroke-dashoffset:19.02;fill-opacity:1"
     id="rect845"
     width="1016.1195"
     height="219.56371"
     x="-15.531845"
     y="780.17365" />
  <path
     style="fill:#000000;fill-opacity:1;fill-rule:evenodd;stroke:none;stroke-width:1px;stroke-linecap:butt;stroke-linejoin:miter;stroke-opacity:1"
     d="m 537.53721,686.71127 1.22792,-62.11616 c 0,0 -103.92015,-1.91815 -103.92015,-5.29368 0,-3.37553 1.06953,-129.4907 1.06953,-129.4907 l 102.226,2.86691 1.27201,-179.12302 -36.28692,-3.37553 -1.99268,120.76254 -63.29114,-4.21941 -4.21941,-67.51055 -27.00422,-0.84388 1.26984,329.02183 121.15401,0.23384 z"
     id="path6444"
     sodipodi:nodetypes="ccsccccccccccc" />
  <path
     style="fill:#000000;fill-rule:evenodd;stroke:none;stroke-width:1px;stroke-linecap:butt;stroke-linejoin:miter;stroke-opacity:1;fill-opacity:1"
     d="m 434.46277,162.57519 0.0379,-50.4991 13.50211,-6.32911 h 33.92246 l 28.28982,1.46306 13.99176,10.71082 16.4557,18.56539 6.75105,13.08017 -0.84388,12.65823 0.40005,33.3468 -17.72152,22.78481 -37.18303,20.70903 -45.21113,-6.92411 c 0,0 -24.27616,-9.63902 -25.12004,-11.32679 -0.84388,-1.68776 -12.23629,-17.72152 -12.23629,-17.72152 0,0 5.3123,-1.68776 5.73424,0 0.42195,1.68777 10.54853,13.92405 10.54853,13.92405 l 15.61181,7.173 20.25317,7.59494 22.78481,1.68776 14.57612,-0.84388 18.14346,-11.39241 16.4557,-13.92405 8.01687,-16.87763 c 0,0 5.34679,-27.42617 0.42194,-27.84811 -4.92484,-0.42194 -107.58157,-0.0114 -107.58157,-0.0114 z"
     id="path6512" />
  <path
     style="fill:#000000;fill-rule:evenodd;stroke:none;stroke-width:1px;stroke-linecap:butt;stroke-linejoin:miter;stroke-opacity:1;fill-opacity:1"
     d="m 407.73519,774.89737 v -9.24908 l 127.82017,0.94364 v 9.84577 z"
     id="path6950" />
</svg>
