<?xml version="1.0" encoding="UTF-8" standalone="no"?>
<svg
   version="1.1"
   viewBox="-10 0 1010 1000"
   id="svg866"
   sodipodi:docname="U0063_c.svg"
   inkscape:version="1.1.2 (0a00cf5339, 2022-02-04)"
   xmlns:inkscape="http://www.inkscape.org/namespaces/inkscape"
   xmlns:sodipodi="http://sodipodi.sourceforge.net/DTD/sodipodi-0.dtd"
   xmlns="http://www.w3.org/2000/svg"
   xmlns:svg="http://www.w3.org/2000/svg">
  <defs
     id="defs870" />
  <sodipodi:namedview
     id="namedview868"
     pagecolor="#ffffff"
     bordercolor="#666666"
     borderopacity="1.0"
     inkscape:pageshadow="2"
     inkscape:pageopacity="0.0"
     inkscape:pagecheckerboard="0"
     showgrid="false"
     inkscape:zoom="0.41896077"
     inkscape:cx="793.6304"
     inkscape:cy="960.71048"
     inkscape:window-width="2494"
     inkscape:window-height="1371"
     inkscape:window-x="66"
     inkscape:window-y="32"
     inkscape:window-maximized="1"
     inkscape:current-layer="svg866" />
  <rect
     style="fill:#dc0000;fill-rule:evenodd;stroke-width:10;stroke-linecap:round;stroke-linejoin:round;stroke-dashoffset:19.02;fill-opacity:1"
     id="rect845"
     width="1016.1195"
     height="219.56371"
     x="-15.531845"
     y="780.17365" />
  <path
     id="path2163"
     style="fill:#000000;fill-rule:evenodd;stroke:none;stroke-width:1px;stroke-linecap:butt;stroke-linejoin:miter;stroke-opacity:1;fill-opacity:1"
     d="M 565.40039 215.51172 L 522.54492 215.83398 L 482.56641 217.625 L 456.50977 225.75391 L 428.46484 238.28516 L 386.69531 257.97656 L 586.44922 256.75781 L 591.00586 340.20312 L 633 364.25781 L 676.55273 309.54492 L 678.3418 253.90234 L 639.55664 235.4043 L 611.34766 220.88086 L 565.40039 215.51172 z M 429.31055 337.95703 L 297.51562 341.53711 L 271.93359 392.00391 L 264.17773 424.82422 L 346.48633 423.82031 L 345.2168 677.08984 L 293.21484 680.15234 L 331.40625 712.97266 L 355.62695 742.87695 L 391.98438 760.89844 L 510.42578 760.88281 L 511.02148 795.49219 L 568.5332 794.24023 L 637.82031 777.53516 L 667.37109 761.67969 L 590.24023 761.24609 L 589.93359 678.21484 L 429.42969 680.00586 L 428.71875 617.16797 L 413.80078 588.52539 L 398.24023 508.80273 L 409.69336 433.48828 L 427.31641 400.07227 L 429.31055 337.95703 z "
     transform="translate(-10)" />
</svg>
