<?xml version="1.0" encoding="UTF-8" standalone="no"?>
<svg
   version="1.1"
   viewBox="-10 0 1010 1000"
   id="svg866"
   sodipodi:docname="U0066_f.svg"
   inkscape:version="1.1.2 (0a00cf5339, 2022-02-04)"
   xmlns:inkscape="http://www.inkscape.org/namespaces/inkscape"
   xmlns:sodipodi="http://sodipodi.sourceforge.net/DTD/sodipodi-0.dtd"
   xmlns="http://www.w3.org/2000/svg"
   xmlns:svg="http://www.w3.org/2000/svg">
  <defs
     id="defs870" />
  <sodipodi:namedview
     id="namedview868"
     pagecolor="#ffffff"
     bordercolor="#666666"
     borderopacity="1.0"
     inkscape:pageshadow="2"
     inkscape:pageopacity="0.0"
     inkscape:pagecheckerboard="0"
     showgrid="false"
     inkscape:zoom="1.185"
     inkscape:cx="562.44726"
     inkscape:cy="459.49367"
     inkscape:window-width="2494"
     inkscape:window-height="1371"
     inkscape:window-x="66"
     inkscape:window-y="32"
     inkscape:window-maximized="1"
     inkscape:current-layer="svg866"
     inkscape:snap-global="false" />
  <rect
     style="fill:#dc0000;fill-rule:evenodd;stroke-width:10;stroke-linecap:round;stroke-linejoin:round;stroke-dashoffset:19.02;fill-opacity:1"
     id="rect845"
     width="1016.1195"
     height="219.56371"
     x="-15.531845"
     y="780.17365" />
  <path
     id="path2536"
     style="fill:#000000;fill-opacity:1;fill-rule:evenodd;stroke:none;stroke-width:0.871502px;stroke-linecap:butt;stroke-linejoin:miter;stroke-opacity:1"
     d="M 542.25195 86.509766 L 516.83789 93.746094 L 458.32812 117.69141 L 441.45117 144.69531 L 434.70117 174.23242 L 433.11719 215.5957 L 434.28125 304.64648 L 370.74414 309.71289 L 374.5293 361.07812 L 430.58984 361.07812 L 466.91016 361.00195 L 466.48438 215.67773 L 462.89453 162.23438 L 477.24023 131.00977 L 522.81055 113.28906 L 564.33594 106.04688 L 565.37695 175.92969 L 520.51953 192.57031 L 507.01758 247.42188 L 505.30078 381.98633 L 374.64453 381.71289 L 374.64453 393.52734 L 505.13672 394.81641 L 504.4082 451.9082 L 430.30273 451.41797 L 429.5918 536.49414 L 504.06445 538.30078 L 502.86719 611.94531 L 426.35156 611.67383 L 428.62695 751.80859 L 449.76953 753.85547 L 451.88281 685.29102 L 513.79492 682.64648 L 515.91016 768.44727 L 532.82422 769.4707 L 530.19336 612.04297 L 527.32227 612.0332 L 525.52539 538.82031 L 527.61719 538.87109 L 529.75781 452.07617 L 522.73828 452.0293 L 522.35742 394.98828 L 565.57031 395.41406 L 565.57031 395.41797 L 611.16602 397.58984 L 614.22852 303.95898 L 566.54492 303.23828 L 565.71094 382.11328 L 522.27148 382.02148 L 522.04688 348.29883 L 523.73438 241.125 L 530.48633 199.77539 C 530.48633 199.77539 565.69869 190.41992 569.07422 190.41992 L 569.65625 187.75781 L 594.7207 181.53516 L 625.36914 192.38867 L 625.2207 87.234375 L 542.25195 86.509766 z M 566.54492 303.23828 L 566.57617 300.09375 L 566.38867 303.23633 L 566.54492 303.23828 z "
     transform="translate(-10)" />
</svg>
