<?xml version="1.0" encoding="UTF-8" standalone="no"?>
<svg
   version="1.1"
   viewBox="-10 0 1010 1000"
   id="svg866"
   sodipodi:docname="U0073_s.svg"
   inkscape:version="1.1.2 (0a00cf5339, 2022-02-04)"
   xmlns:inkscape="http://www.inkscape.org/namespaces/inkscape"
   xmlns:sodipodi="http://sodipodi.sourceforge.net/DTD/sodipodi-0.dtd"
   xmlns="http://www.w3.org/2000/svg"
   xmlns:svg="http://www.w3.org/2000/svg">
  <defs
     id="defs870" />
  <sodipodi:namedview
     id="namedview868"
     pagecolor="#ffffff"
     bordercolor="#666666"
     borderopacity="1.0"
     inkscape:pageshadow="2"
     inkscape:pageopacity="0.0"
     inkscape:pagecheckerboard="0"
     showgrid="false"
     inkscape:zoom="0.148125"
     inkscape:cx="1684.3882"
     inkscape:cy="1522.3629"
     inkscape:window-width="2494"
     inkscape:window-height="1371"
     inkscape:window-x="66"
     inkscape:window-y="32"
     inkscape:window-maximized="1"
     inkscape:current-layer="svg866"
     inkscape:snap-global="false" />
  <rect
     style="fill:#dc0000;fill-rule:evenodd;stroke-width:10;stroke-linecap:round;stroke-linejoin:round;stroke-dashoffset:19.02;fill-opacity:1"
     id="rect845"
     width="1016.1195"
     height="219.56371"
     x="-15.531845"
     y="780.17365" />
  <path
     style="fill:#000000;fill-rule:evenodd;stroke:none;stroke-width:1px;stroke-linecap:butt;stroke-linejoin:miter;stroke-opacity:1;fill-opacity:1"
     d="m 370.95528,501.44883 6.24954,-221.59172 h 74.2616 l -0.84388,69.42935 32.06751,-21.94093 43.88186,2.53164 -4.83296,-105.7953 -70.88608,2.53165 -56.54008,20.25316 -51.77532,43.64653 -23.6287,45.56962 -3.58109,62.6003 8.43882,52.32068 z"
     id="path3097" />
  <path
     style="fill:#000000;fill-rule:evenodd;stroke:none;stroke-width:1px;stroke-linecap:butt;stroke-linejoin:miter;stroke-opacity:1;fill-opacity:1"
     d="m 452.93363,541.8918 c 0,-5.06329 -0.35936,-136.78869 -0.35936,-136.78869 l 30.37975,25.31645 41.37684,12.18962 1.53922,87.14327 76.40942,-3.75606 -3.81745,-52.71949 39.748,30.85366 36.28692,47.25738 -2.53165,56.54009 -114.69294,0.81014 -13.50211,-23.62869 -31.22363,-17.72152 -42.19409,-15.18987 z"
     id="path3099" />
  <path
     style="fill:#000000;fill-rule:evenodd;stroke:none;stroke-width:1px;stroke-linecap:butt;stroke-linejoin:miter;stroke-opacity:1;fill-opacity:1"
     d="m 600.05751,354.30282 22.78481,13.50209 58.5765,-78.76585 -39.24684,-25.91096 -41.35022,-23.6287 z"
     id="path3101" />
  <path
     style="fill:#000000;fill-rule:evenodd;stroke:none;stroke-width:1px;stroke-linecap:butt;stroke-linejoin:miter;stroke-opacity:1;fill-opacity:1"
     d="M 465.61993,725.86381 303.942,723.6821 l 66.07123,40.26209 103.56563,17.99929 70.89144,-3.05577 65.82278,-24.47258 -144.47588,4.52062 z"
     id="path3103" />
</svg>
