<?xml version="1.0" encoding="UTF-8" standalone="no"?>
<svg
   version="1.1"
   viewBox="-10 0 1010 1000"
   id="svg866"
   sodipodi:docname="U007E_asciitilde.svg"
   inkscape:version="1.1.2 (0a00cf5339, 2022-02-04)"
   xmlns:inkscape="http://www.inkscape.org/namespaces/inkscape"
   xmlns:sodipodi="http://sodipodi.sourceforge.net/DTD/sodipodi-0.dtd"
   xmlns="http://www.w3.org/2000/svg"
   xmlns:svg="http://www.w3.org/2000/svg">
  <defs
     id="defs870" />
  <sodipodi:namedview
     id="namedview868"
     pagecolor="#ffffff"
     bordercolor="#666666"
     borderopacity="1.0"
     inkscape:pageshadow="2"
     inkscape:pageopacity="0.0"
     inkscape:pagecheckerboard="0"
     showgrid="false"
     inkscape:zoom="1.185"
     inkscape:cx="282.27848"
     inkscape:cy="541.35021"
     inkscape:window-width="2494"
     inkscape:window-height="1371"
     inkscape:window-x="66"
     inkscape:window-y="32"
     inkscape:window-maximized="1"
     inkscape:current-layer="svg866"
     inkscape:snap-global="false" />
  <rect
     style="fill:#dc0000;fill-opacity:1;fill-rule:evenodd;stroke-width:10;stroke-linecap:round;stroke-linejoin:round;stroke-dashoffset:19.02"
     id="rect845"
     width="1016.1195"
     height="219.56371"
     x="-15.531845"
     y="781.01752" />
  <path
     id="path10004"
     style="fill:#000000;fill-rule:evenodd;stroke:none;stroke-width:1px;stroke-linecap:butt;stroke-linejoin:miter;stroke-opacity:1;fill-opacity:1"
     d="M 460.43945 336.9082 L 378.53906 337.75195 L 340.87109 354.68164 L 310.49219 386.74805 L 310.49219 436.53711 L 266.60938 434.84961 L 265.76562 441.60156 L 259.67188 443.63281 L 327.33203 499.94531 L 360.08789 467.99414 L 386.24805 438.45898 L 386.24414 434.14844 L 387.04492 434.79492 L 421.05859 431.21484 L 454.10938 441.35938 L 484.54297 466.42188 L 542.20508 506.30664 L 541.27344 503.90039 L 547.61719 508.61914 L 568.71289 522.12109 L 605 517.90234 L 608.37695 440.73242 L 741.01758 438.4082 L 756.20703 415.62305 L 679.96094 354.25781 L 662.24023 394.76367 L 641.14258 408.26562 L 607.38867 420.08008 L 581.22852 420.08008 L 555.06641 409.10938 L 538.18945 393.07617 L 538.17969 397.67773 L 525.12109 382.00781 L 497.67188 360.52539 L 472.01172 343.2207 L 460.84766 340.98828 L 460.43945 336.9082 z M 386.17773 351.25391 L 456.39844 353.59375 L 456.52148 354.34375 L 489.9375 384.17773 L 538.14453 414.02344 L 537.96875 495.36133 L 535.04492 487.80859 L 488.57422 458.83789 L 454.5625 430.19727 C 454.5625 430.19727 434.8703 421.24609 431.88672 421.24609 C 428.90315 421.24609 391.5625 423.63281 391.5625 423.63281 L 386.23633 424.22461 L 386.17773 351.25391 z "
     transform="translate(-10)" />
</svg>
