<?xml version="1.0" encoding="UTF-8" standalone="no"?>
<svg
   version="1.1"
   viewBox="-10 0 1010 1000"
   id="svg866"
   sodipodi:docname="U0075_u.svg"
   inkscape:version="1.1.2 (0a00cf5339, 2022-02-04)"
   xmlns:inkscape="http://www.inkscape.org/namespaces/inkscape"
   xmlns:sodipodi="http://sodipodi.sourceforge.net/DTD/sodipodi-0.dtd"
   xmlns="http://www.w3.org/2000/svg"
   xmlns:svg="http://www.w3.org/2000/svg">
  <defs
     id="defs870" />
  <sodipodi:namedview
     id="namedview868"
     pagecolor="#ffffff"
     bordercolor="#666666"
     borderopacity="1.0"
     inkscape:pageshadow="2"
     inkscape:pageopacity="0.0"
     inkscape:pagecheckerboard="0"
     showgrid="false"
     inkscape:zoom="0.83792154"
     inkscape:cx="511.3844"
     inkscape:cy="565.08871"
     inkscape:window-width="2494"
     inkscape:window-height="1371"
     inkscape:window-x="66"
     inkscape:window-y="32"
     inkscape:window-maximized="1"
     inkscape:current-layer="svg866" />
  <rect
     style="fill:#dc0000;fill-rule:evenodd;stroke-width:10;stroke-linecap:round;stroke-linejoin:round;stroke-dashoffset:19.02;fill-opacity:1"
     id="rect845"
     width="1016.1195"
     height="219.56371"
     x="-15.531845"
     y="780.17365" />
  <path
     style="fill:#000000;fill-rule:evenodd;stroke:none;stroke-width:1px;stroke-linecap:butt;stroke-linejoin:miter;stroke-opacity:1;fill-opacity:1"
     d="M 278.75253,340.78587 V 293.0487 l 136.64713,4.95029 3.87638,256.94177 -35.00212,0.73948 -2.06831,-70.36004 -75.07041,-1.28767 -17.72151,0.84389 0.20551,70.15092 16.39462,-1.26582 0.57752,70.30951 113.85555,1.31226 13.23193,26.11828 14.34599,19.83122 37.74854,4.44326 c 0,0 27.45632,0.80752 32.51961,-0.0364 5.06329,-0.84389 44.6457,-22.99357 44.6457,-22.99357 l 24.98491,-28.47942 11.25998,-0.28429 -1.10713,-66.7988 -1.97841,-262.11023 13.81944,0.53597 -1.36153,122.43053 73.32754,-0.88081 0.47169,-67.55785 41.39564,0.34087 -0.43765,-44.28462 -62.31638,-0.4946 0.42195,-9.70464 78.56883,0.82953 0.10795,187.79996 -2.82739,109.83681 H 722.97732 L 722.8314,485.678 l -112.76443,1.97622 -1.63379,136.82913 130.30914,1.26582 -0.30008,149.07351 -115.82186,-2.10971 -1.26582,-21.94093 8.86076,-1.26582 0.42194,15.18987 93.55531,-1.14993 0.55184,-70.87552 -120.97462,-1.50708 -16.19724,40.70994 -44.74773,31.62038 -62.09982,23.69251 -79.78675,-1.03368 -45.92213,-18.98737 4.21941,-3.79747 46.8716,16.71727 74.3215,1.23549 63.30518,-26.98779 37.13497,-29.66015 13.98715,-33.07315 -299.17379,-0.34924 -18.96002,-55.71055 3.98266,-157.33228 -0.75518,-61.03363 c 0,0 100.87437,3.01367 100.87437,0.0601 0,-2.95359 3.24831,-73.11193 3.24831,-73.11193 z"
     id="path6028" />
</svg>
