<?xml version="1.0" encoding="UTF-8" standalone="no"?>
<svg
   version="1.1"
   viewBox="-10 0 1010 1000"
   id="svg866"
   sodipodi:docname="U0071_q.svg"
   inkscape:version="1.1.2 (0a00cf5339, 2022-02-04)"
   xmlns:inkscape="http://www.inkscape.org/namespaces/inkscape"
   xmlns:sodipodi="http://sodipodi.sourceforge.net/DTD/sodipodi-0.dtd"
   xmlns="http://www.w3.org/2000/svg"
   xmlns:svg="http://www.w3.org/2000/svg">
  <defs
     id="defs870" />
  <sodipodi:namedview
     id="namedview868"
     pagecolor="#ffffff"
     bordercolor="#666666"
     borderopacity="1.0"
     inkscape:pageshadow="2"
     inkscape:pageopacity="0.0"
     inkscape:pagecheckerboard="0"
     showgrid="false"
     inkscape:zoom="0.5925"
     inkscape:cx="826.16034"
     inkscape:cy="924.05063"
     inkscape:window-width="2494"
     inkscape:window-height="1371"
     inkscape:window-x="66"
     inkscape:window-y="32"
     inkscape:window-maximized="1"
     inkscape:current-layer="svg866"
     inkscape:snap-global="false" />
  <rect
     style="fill:#dc0000;fill-rule:evenodd;stroke-width:10;stroke-linecap:round;stroke-linejoin:round;stroke-dashoffset:19.02;fill-opacity:1"
     id="rect845"
     width="1016.1195"
     height="219.56371"
     x="-15.531845"
     y="780.17365" />
  <path
     id="path10669"
     style="fill:#040000;fill-rule:evenodd;stroke:none;stroke-width:1px;stroke-linecap:butt;stroke-linejoin:miter;stroke-opacity:1;fill-opacity:1"
     d="M 479.76172 278.26953 L 475.61328 364.45898 L 510.21094 378.80469 L 523.71484 390.61914 L 538.06055 389.77539 L 538.91992 525.93945 C 538.91992 525.93945 602.02161 533.84636 601.17773 529.62695 C 600.33385 525.40754 600.33398 454.52148 600.33398 454.52148 L 649.68945 460.40625 L 650.5332 386.14453 L 599.90039 389.52148 L 597.9043 317.08789 L 557.39844 317.93164 L 551.49023 335.6543 C 551.49023 335.6543 538.83256 308.65039 535.45703 308.65039 C 532.0815 308.65039 503.38867 288.39648 503.38867 288.39648 L 479.76172 278.26953 z M 320.45898 323.1582 L 286.51562 375.5957 L 272.76172 413.0957 L 315.48828 413.08008 L 320.45898 323.1582 z M 294.42578 529.37695 L 291.0332 668.74414 L 317.46094 712.97852 L 362.18555 736.60742 L 358.56055 600.26367 L 388.93945 601.95117 L 377.125 579.16602 L 373.75 548.78711 L 372.90625 530.2207 L 294.42578 529.37695 z M 538.85352 605.84375 L 525.35156 621.87695 L 501.0293 645.22461 L 483.87305 653.92578 L 485.06445 741.34766 L 504.89453 729.5332 L 516.70898 720.25195 L 517.13086 694.93555 L 541.98047 694.51367 L 571.72656 696.16602 L 575.00781 607.53906 L 538.85352 605.84375 z M 601.22266 673.10352 L 598.75391 742.5293 L 538.83984 743.37305 L 538.49219 917.05664 L 557.90234 914.52539 L 557.06055 830.29688 L 614.44531 831.14062 L 615.28906 917.43164 L 647.35547 916.58789 L 681.11133 886.20703 L 681.11133 865.95508 L 646.51172 865.95508 L 649.32422 674.79102 L 601.22266 673.10352 z "
     transform="translate(-10)" />
</svg>
