<?xml version="1.0" encoding="UTF-8" standalone="no"?>
<svg
   version="1.1"
   viewBox="-10 0 1010 1000"
   id="svg866"
   sodipodi:docname="U007D_braceright.svg"
   inkscape:version="1.1.2 (0a00cf5339, 2022-02-04)"
   xmlns:inkscape="http://www.inkscape.org/namespaces/inkscape"
   xmlns:sodipodi="http://sodipodi.sourceforge.net/DTD/sodipodi-0.dtd"
   xmlns="http://www.w3.org/2000/svg"
   xmlns:svg="http://www.w3.org/2000/svg">
  <defs
     id="defs870" />
  <sodipodi:namedview
     id="namedview868"
     pagecolor="#ffffff"
     bordercolor="#666666"
     borderopacity="1.0"
     inkscape:pageshadow="2"
     inkscape:pageopacity="0.0"
     inkscape:pagecheckerboard="0"
     showgrid="false"
     inkscape:zoom="0.83792154"
     inkscape:cx="562.70185"
     inkscape:cy="553.15442"
     inkscape:window-width="2494"
     inkscape:window-height="1371"
     inkscape:window-x="66"
     inkscape:window-y="32"
     inkscape:window-maximized="1"
     inkscape:current-layer="svg866"
     inkscape:snap-global="false" />
  <rect
     style="fill:#dc0000;fill-opacity:1;fill-rule:evenodd;stroke-width:10;stroke-linecap:round;stroke-linejoin:round;stroke-dashoffset:19.02"
     id="rect845"
     width="1016.1195"
     height="219.56371"
     x="-15.531845"
     y="781.01752" />
  <path
     style="fill:#000000;fill-rule:evenodd;stroke:none;stroke-width:1px;stroke-linecap:butt;stroke-linejoin:miter;stroke-opacity:1;fill-opacity:1"
     d="m 431.88769,710.8722 -27.44887,0.59671 -0.34676,57.99436 56.85695,-1.00859 45.08466,-2.9284 23.27186,-6.56386 15.72655,-8.09542 26.25544,-24.46529 11.9343,-36.39959 7.75728,-21.48173 2.98358,-50.72072 c 0,0 -14.32115,-33.41602 -14.32115,-35.80287 0,-2.38686 1.79014,-44.5065 1.79014,-44.5065 l -1.43122,-61.05606 13.29012,-20.60395 c 0,0 15.51458,-10.74087 19.09487,-11.33758 3.58029,-0.59672 47.73717,-10.14415 47.73717,-10.14415 l 0.92165,-66.3094 c 0,0 -13.72443,-0.59671 -10.14414,1.79015 3.58028,2.38685 3.58028,54.89774 3.58028,54.89774 l -33.41601,7.16057 -25.65873,12.53101 3.77714,-73.48469 30.43245,0.59672 -20.91918,-12.88841 -26.85215,-19.09486 -2.98358,-27.44887 4.68762,-63.66072 -0.59671,-28.43036 12.531,-39.97988 -7.0418,-51.75224 -7.75729,-28.04559 -16.1113,-19.691581 -21.48172,-16.708008 -6.97414,-1.176694 -5.37043,2.983573 -0.59672,53.70429 -42.75931,0.30179 -20.11435,-18.37396 -26.25544,-8.950722 -22.26852,-2.386858 -0.66144,-36.522436 42.96346,1.790144 2.38685,-10.740863 -60.12719,-0.840095 1.53622,54.414004 25.6419,1.193429 28.6423,8.950697 19.09487,17.30473 6.12539,42.38429 -1.79014,15.51458 49.59367,-1.14193 1.44681,183.9888 -39.68575,2.76086 4.177,15.51458 23.27187,9.54743 28.04559,12.53101 -28.32938,8.54558 -28.04558,15.51458 8.95072,2.98357 26.85215,-0.59672 3.08031,127.50914 -55.95714,-3.24198 7.75729,29.83573 2.53144,36.9038 44.7536,4.177 0.63102,117.24091 -31.5857,9.64591 -73.14277,8.93761 -14.91787,-2.38686 v -41.62529 l 20.2883,-0.59671 z"
     id="path11542" />
</svg>
