<?xml version="1.0" encoding="UTF-8" standalone="no"?>
<svg
   version="1.1"
   viewBox="-10 0 1010 1000"
   id="svg866"
   sodipodi:docname="U007B_braceleft.svg"
   inkscape:version="1.1.2 (0a00cf5339, 2022-02-04)"
   xmlns:inkscape="http://www.inkscape.org/namespaces/inkscape"
   xmlns:sodipodi="http://sodipodi.sourceforge.net/DTD/sodipodi-0.dtd"
   xmlns="http://www.w3.org/2000/svg"
   xmlns:svg="http://www.w3.org/2000/svg">
  <defs
     id="defs870" />
  <sodipodi:namedview
     id="namedview868"
     pagecolor="#ffffff"
     bordercolor="#666666"
     borderopacity="1.0"
     inkscape:pageshadow="2"
     inkscape:pageopacity="0.0"
     inkscape:pagecheckerboard="0"
     showgrid="false"
     inkscape:zoom="0.41896077"
     inkscape:cx="972.64477"
     inkscape:cy="1306.8049"
     inkscape:window-width="2494"
     inkscape:window-height="1371"
     inkscape:window-x="66"
     inkscape:window-y="32"
     inkscape:window-maximized="1"
     inkscape:current-layer="svg866"
     inkscape:snap-global="false" />
  <rect
     style="fill:#dc0000;fill-opacity:1;fill-rule:evenodd;stroke-width:10;stroke-linecap:round;stroke-linejoin:round;stroke-dashoffset:19.02"
     id="rect845"
     width="1016.1195"
     height="219.56371"
     x="-15.531845"
     y="781.01752" />
  <path
     id="path10832"
     style="fill:#000000;fill-rule:evenodd;stroke:none;stroke-width:1px;stroke-linecap:butt;stroke-linejoin:miter;stroke-opacity:1;fill-opacity:1"
     d="M 484.43555 27.794922 L 485.62891 38.535156 L 546.13477 39.132812 L 544.94141 74.337891 L 521.07227 74.935547 L 496.60742 92.240234 L 484.67383 106.56055 L 427.80664 106.45703 L 430.19336 52.054688 L 411.69531 71.746094 L 400.46875 107.38086 L 395.69531 144.97266 L 400.30664 167.79297 L 473.60352 169.86719 L 482.73633 233.27344 L 398.79297 231.75977 L 408.3418 260.40234 L 405.09961 292.42578 C 408.50319 292.912 455.55438 292.97772 475.80469 292.99414 L 480.29883 333.94336 L 467.76758 357.8125 L 443.17383 378.01367 L 416.32227 386.36719 L 415.12891 401.88086 L 446.1582 413.81641 L 467.04297 432.91016 L 480.16992 453.79492 L 489.71875 452.00586 L 475.99414 426.94336 L 459.28516 405.46094 L 440.19141 400.0918 L 427.66016 397.70508 L 436.45703 390.69727 L 466.88867 381.74805 L 476.43555 368.02344 L 489.56445 341.16992 L 492.54688 313.7207 L 489.25391 293.01758 C 489.3385 293.01758 491.16016 293.02148 491.16016 293.02148 L 495.23438 233.49805 L 493.31445 233.46289 L 489.24414 170.31055 L 491.13477 170.36328 L 485.34766 131.57031 L 497.28125 104.12109 L 518.76367 89.203125 L 546.21289 83.236328 L 558.14648 83.833984 L 558.74414 28.935547 L 484.43555 27.794922 z M 370.10352 353.18945 L 360.55469 362.14062 L 326.54297 360.35156 L 327.31055 426.80078 L 357.74219 428.58984 L 371.4668 437.54102 L 371.42188 434.78906 L 391.64844 452.00586 L 405.37305 474.08398 L 405.9707 501.5332 C 405.9707 501.5332 406.0073 501.5409 406.00781 501.54102 L 403.49023 552.28711 L 478.08008 553.32227 L 477.37891 569.12305 L 473.87891 618.72266 L 401.19922 618.50586 L 401.97461 670.62305 L 475.91797 672.23047 L 485.13672 700.40039 L 508.4082 715.31836 L 545.4043 716.51172 L 547.76367 745.75977 L 444.04102 749.76953 L 467.8457 759.62305 L 497.68164 767.97656 L 558.9668 766.85547 L 557.77344 745.37305 L 557.50586 745.38281 L 558.5332 706.36719 L 539.4375 706.96289 C 539.4375 706.96289 507.81172 704.57719 504.82812 703.98047 C 501.84456 703.38376 487.52344 678.32031 487.52344 678.32031 L 485.26172 637.60156 L 484.63281 618.75391 L 484.21484 618.75195 L 483.94336 613.87695 L 488.00977 553.46094 L 489.41602 553.48047 L 495.38281 488.6543 L 419.2207 490.30469 C 418.88536 483.45209 418.5 476.17969 418.5 476.17969 L 410.14648 448.13281 L 385.08398 426.65234 L 371.21484 421.91602 L 370.10352 353.18945 z "
     transform="translate(-10)" />
</svg>
