<?xml version="1.0" encoding="UTF-8" standalone="no"?>
<svg
   version="1.1"
   viewBox="-10 0 1010 1000"
   id="svg866"
   sodipodi:docname="U0074_t.svg"
   inkscape:version="1.1.2 (0a00cf5339, 2022-02-04)"
   xmlns:inkscape="http://www.inkscape.org/namespaces/inkscape"
   xmlns:sodipodi="http://sodipodi.sourceforge.net/DTD/sodipodi-0.dtd"
   xmlns="http://www.w3.org/2000/svg"
   xmlns:svg="http://www.w3.org/2000/svg">
  <defs
     id="defs870" />
  <sodipodi:namedview
     id="namedview868"
     pagecolor="#ffffff"
     bordercolor="#666666"
     borderopacity="1.0"
     inkscape:pageshadow="2"
     inkscape:pageopacity="0.0"
     inkscape:pagecheckerboard="0"
     showgrid="false"
     inkscape:zoom="0.5925"
     inkscape:cx="669.19831"
     inkscape:cy="353.5865"
     inkscape:window-width="2494"
     inkscape:window-height="1371"
     inkscape:window-x="66"
     inkscape:window-y="32"
     inkscape:window-maximized="1"
     inkscape:current-layer="svg866" />
  <rect
     style="fill:#dc0000;fill-rule:evenodd;stroke-width:10;stroke-linecap:round;stroke-linejoin:round;stroke-dashoffset:19.02;fill-opacity:1"
     id="rect845"
     width="1016.1195"
     height="219.56371"
     x="-15.531845"
     y="780.17365" />
  <path
     id="path888"
     style="fill:#000000;fill-opacity:1;fill-rule:evenodd;stroke:none;stroke-width:1px;stroke-linecap:butt;stroke-linejoin:miter;stroke-opacity:1"
     d="m 417.83002,82.563409 v 50.210941 l -8.4766,43.23633 -9.9707,54.49414 3.6524,118.47852 -8.4395,-1.68946 4.0508,86.35938 111.5195,-1.98438 -0.082,-86.55664 -42.6699,-0.84375 -0.6387,-261.283201 z m 200.8613,143.398441 -47.4336,1.54883 0.2344,98.36328 46.5508,1.06836 z m -252.0449,69.3125 -26.3242,0.72461 0.2304,29.70899 26.9375,-0.89649 z m 29.6602,172.0293 -0.2579,140.89648 5.4844,35.44336 6.9043,12.62891 1.0625,-188.42188 z m 134.8457,173.72656 -1.6875,52.01367 -105.4473,-1.35547 11.7969,21.22266 43.8808,37.13086 29.1114,12.19727 57.2988,2.14648 22.7851,-8.4375 38.8184,-20.25391 -15.543,-93.81836 h -17.7226 l -2.5313,10.96875 -42.1933,4.22071 z" />
</svg>
