<?xml version="1.0" encoding="UTF-8" standalone="no"?>
<svg
   version="1.1"
   viewBox="-10 0 1010 1000"
   id="svg866"
   sodipodi:docname="U0077_w.svg"
   inkscape:version="1.1.2 (0a00cf5339, 2022-02-04)"
   xmlns:inkscape="http://www.inkscape.org/namespaces/inkscape"
   xmlns:sodipodi="http://sodipodi.sourceforge.net/DTD/sodipodi-0.dtd"
   xmlns="http://www.w3.org/2000/svg"
   xmlns:svg="http://www.w3.org/2000/svg">
  <defs
     id="defs870" />
  <sodipodi:namedview
     id="namedview868"
     pagecolor="#ffffff"
     bordercolor="#666666"
     borderopacity="1.0"
     inkscape:pageshadow="2"
     inkscape:pageopacity="0.0"
     inkscape:pagecheckerboard="0"
     showgrid="false"
     inkscape:zoom="1.185"
     inkscape:cx="600.42194"
     inkscape:cy="633.33333"
     inkscape:window-width="2494"
     inkscape:window-height="1371"
     inkscape:window-x="66"
     inkscape:window-y="32"
     inkscape:window-maximized="1"
     inkscape:current-layer="svg866"
     inkscape:snap-global="false" />
  <rect
     style="fill:#dc0000;fill-rule:evenodd;stroke-width:10;stroke-linecap:round;stroke-linejoin:round;stroke-dashoffset:19.02;fill-opacity:1"
     id="rect845"
     width="1016.1195"
     height="219.56371"
     x="-15.531845"
     y="780.17365" />
  <path
     id="path2081"
     style="fill:#000000;fill-rule:evenodd;stroke:none;stroke-width:1px;stroke-linecap:butt;stroke-linejoin:miter;stroke-opacity:1;fill-opacity:1"
     d="M 183.86328 358.85547 L 189.76953 389.23633 L 264.96094 390.43359 L 265.63672 505.95703 L 327.24023 506.80078 L 326.39648 564.18555 L 244.78906 562.90039 L 264.19727 621.97266 L 362.49023 623.83594 L 300.60742 360.80078 L 183.86328 358.85547 z M 712.93164 359.33008 L 706.18164 388.86719 L 808.38281 393.92969 L 822.72852 360.17383 L 712.93164 359.33008 z M 532.74609 360.06055 L 453.49023 361.69922 L 439.91797 409.84961 L 531.05859 409.84961 L 532.74609 360.06055 z M 540.2207 441.76367 L 428.81641 442.60742 L 418.70312 490.70898 L 487.90039 494.08594 L 498.87109 462.86133 L 510.68555 504.21094 L 536.00195 506.74414 L 540.2207 441.76367 z M 691.22656 446.76758 L 674.34961 504.99609 L 775.38867 509.07617 L 790.57812 448.31641 L 691.22656 446.76758 z M 585.25195 464.88477 L 577.6582 507.92383 L 599.59766 509.61133 L 585.25195 464.88477 z M 661.91016 560.22852 L 649.62695 621.92969 L 738.3457 622.32422 L 760.28711 563.25195 L 661.91016 560.22852 z M 398.20117 560.52148 L 379.08984 622.05859 L 458.21875 618.74805 L 481.00195 565.58398 L 398.20117 560.52148 z M 525.06641 562.17578 L 573.4082 740.2168 L 708.94531 739.25391 L 731.73047 679.33789 L 585.63086 681.09961 L 586.47461 623.7168 L 632.88672 623.7168 L 613.04297 562.58203 L 525.06641 562.17578 z M 444.09766 677.16797 L 278.50586 680.20898 L 298.75977 740.96875 L 428.0625 740.45898 L 444.09766 677.16797 z "
     transform="translate(-10)" />
</svg>
